%TF.GenerationSoftware,KiCad,Pcbnew,7.0.9*%
%TF.CreationDate,2023-12-16T11:51:24+08:00*%
%TF.ProjectId,iPico,69506963-6f2e-46b6-9963-61645f706362,rev?*%
%TF.SameCoordinates,Original*%
%TF.FileFunction,Soldermask,Top*%
%TF.FilePolarity,Negative*%
%FSLAX46Y46*%
G04 Gerber Fmt 4.6, Leading zero omitted, Abs format (unit mm)*
G04 Created by KiCad (PCBNEW 7.0.9) date 2023-12-16 11:51:24*
%MOMM*%
%LPD*%
G01*
G04 APERTURE LIST*
G04 Aperture macros list*
%AMRoundRect*
0 Rectangle with rounded corners*
0 $1 Rounding radius*
0 $2 $3 $4 $5 $6 $7 $8 $9 X,Y pos of 4 corners*
0 Add a 4 corners polygon primitive as box body*
4,1,4,$2,$3,$4,$5,$6,$7,$8,$9,$2,$3,0*
0 Add four circle primitives for the rounded corners*
1,1,$1+$1,$2,$3*
1,1,$1+$1,$4,$5*
1,1,$1+$1,$6,$7*
1,1,$1+$1,$8,$9*
0 Add four rect primitives between the rounded corners*
20,1,$1+$1,$2,$3,$4,$5,0*
20,1,$1+$1,$4,$5,$6,$7,0*
20,1,$1+$1,$6,$7,$8,$9,0*
20,1,$1+$1,$8,$9,$2,$3,0*%
G04 Aperture macros list end*
%ADD10O,0.300000X0.900000*%
%ADD11R,1.650000X0.250000*%
%ADD12C,3.300000*%
%ADD13RoundRect,0.050000X0.387500X0.050000X-0.387500X0.050000X-0.387500X-0.050000X0.387500X-0.050000X0*%
%ADD14RoundRect,0.050000X0.050000X0.387500X-0.050000X0.387500X-0.050000X-0.387500X0.050000X-0.387500X0*%
%ADD15R,3.200000X3.200000*%
%ADD16RoundRect,0.140000X0.170000X-0.140000X0.170000X0.140000X-0.170000X0.140000X-0.170000X-0.140000X0*%
%ADD17RoundRect,0.140000X0.140000X0.170000X-0.140000X0.170000X-0.140000X-0.170000X0.140000X-0.170000X0*%
%ADD18RoundRect,0.147500X-0.172500X0.147500X-0.172500X-0.147500X0.172500X-0.147500X0.172500X0.147500X0*%
%ADD19RoundRect,0.140000X-0.140000X-0.170000X0.140000X-0.170000X0.140000X0.170000X-0.140000X0.170000X0*%
%ADD20RoundRect,0.135000X0.185000X-0.135000X0.185000X0.135000X-0.185000X0.135000X-0.185000X-0.135000X0*%
%ADD21R,0.750000X1.000000*%
%ADD22RoundRect,0.135000X-0.185000X0.135000X-0.185000X-0.135000X0.185000X-0.135000X0.185000X0.135000X0*%
%ADD23RoundRect,0.218750X0.218750X0.256250X-0.218750X0.256250X-0.218750X-0.256250X0.218750X-0.256250X0*%
%ADD24RoundRect,0.140000X-0.170000X0.140000X-0.170000X-0.140000X0.170000X-0.140000X0.170000X0.140000X0*%
%ADD25O,1.140000X2.130000*%
%ADD26RoundRect,0.100000X-0.400000X-0.670000X0.400000X-0.670000X0.400000X0.670000X-0.400000X0.670000X0*%
%ADD27RoundRect,0.100000X-0.190000X-0.670000X0.190000X-0.670000X0.190000X0.670000X-0.190000X0.670000X0*%
%ADD28RoundRect,0.100000X-0.180000X-0.670000X0.180000X-0.670000X0.180000X0.670000X-0.180000X0.670000X0*%
%ADD29RoundRect,0.150000X0.150000X-0.512500X0.150000X0.512500X-0.150000X0.512500X-0.150000X-0.512500X0*%
%ADD30R,1.150000X1.000000*%
%ADD31RoundRect,0.147500X0.172500X-0.147500X0.172500X0.147500X-0.172500X0.147500X-0.172500X-0.147500X0*%
%ADD32RoundRect,0.218750X-0.256250X0.218750X-0.256250X-0.218750X0.256250X-0.218750X0.256250X0.218750X0*%
%ADD33RoundRect,0.135000X-0.135000X-0.185000X0.135000X-0.185000X0.135000X0.185000X-0.135000X0.185000X0*%
G04 APERTURE END LIST*
D10*
%TO.C,U1*%
X106375000Y-103400000D03*
X105875000Y-103400000D03*
X105375000Y-103400000D03*
X104875000Y-103400000D03*
X104875000Y-106200000D03*
X105375000Y-106200000D03*
X105875000Y-106200000D03*
X106375000Y-106200000D03*
D11*
X105625000Y-104800000D03*
%TD*%
D12*
%TO.C,H3*%
X92800000Y-110300000D03*
%TD*%
D13*
%TO.C,U4*%
X103637500Y-100200000D03*
X103637500Y-99800000D03*
X103637500Y-99400000D03*
X103637500Y-99000000D03*
X103637500Y-98600000D03*
X103637500Y-98200000D03*
X103637500Y-97800000D03*
X103637500Y-97400000D03*
X103637500Y-97000000D03*
X103637500Y-96600000D03*
X103637500Y-96200000D03*
X103637500Y-95800000D03*
X103637500Y-95400000D03*
X103637500Y-95000000D03*
D14*
X102800000Y-94162500D03*
X102400000Y-94162500D03*
X102000000Y-94162500D03*
X101600000Y-94162500D03*
X101200000Y-94162500D03*
X100800000Y-94162500D03*
X100400000Y-94162500D03*
X100000000Y-94162500D03*
X99600000Y-94162500D03*
X99200000Y-94162500D03*
X98800000Y-94162500D03*
X98400000Y-94162500D03*
X98000000Y-94162500D03*
X97600000Y-94162500D03*
D13*
X96762500Y-95000000D03*
X96762500Y-95400000D03*
X96762500Y-95800000D03*
X96762500Y-96200000D03*
X96762500Y-96600000D03*
X96762500Y-97000000D03*
X96762500Y-97400000D03*
X96762500Y-97800000D03*
X96762500Y-98200000D03*
X96762500Y-98600000D03*
X96762500Y-99000000D03*
X96762500Y-99400000D03*
X96762500Y-99800000D03*
X96762500Y-100200000D03*
D14*
X97600000Y-101037500D03*
X98000000Y-101037500D03*
X98400000Y-101037500D03*
X98800000Y-101037500D03*
X99200000Y-101037500D03*
X99600000Y-101037500D03*
X100000000Y-101037500D03*
X100400000Y-101037500D03*
X100800000Y-101037500D03*
X101200000Y-101037500D03*
X101600000Y-101037500D03*
X102000000Y-101037500D03*
X102400000Y-101037500D03*
X102800000Y-101037500D03*
D15*
X100200000Y-97600000D03*
%TD*%
D16*
%TO.C,C16*%
X97180000Y-89110000D03*
X97180000Y-88150000D03*
%TD*%
D17*
%TO.C,C14*%
X94780000Y-98325000D03*
X93820000Y-98325000D03*
%TD*%
D18*
%TO.C,D2*%
X101122600Y-106775000D03*
X101122600Y-107745000D03*
%TD*%
D19*
%TO.C,C2*%
X92765000Y-105775000D03*
X93725000Y-105775000D03*
%TD*%
D12*
%TO.C,H1*%
X100000000Y-86700000D03*
%TD*%
D20*
%TO.C,R1*%
X102187000Y-107765000D03*
X102187000Y-106745000D03*
%TD*%
D19*
%TO.C,C1*%
X92765000Y-104700000D03*
X93725000Y-104700000D03*
%TD*%
D16*
%TO.C,C15*%
X96150000Y-91080000D03*
X96150000Y-90120000D03*
%TD*%
D21*
%TO.C,SW1*%
X103625000Y-92200000D03*
X103625000Y-86200000D03*
X107375000Y-92200000D03*
X107375000Y-86200000D03*
%TD*%
D22*
%TO.C,R4*%
X96075000Y-104715000D03*
X96075000Y-105735000D03*
%TD*%
D23*
%TO.C,F1*%
X94475000Y-107650000D03*
X92900000Y-107650000D03*
%TD*%
D24*
%TO.C,C13*%
X101805000Y-90095000D03*
X101805000Y-91055000D03*
%TD*%
%TO.C,C7*%
X95100000Y-90095000D03*
X95100000Y-91055000D03*
%TD*%
D20*
%TO.C,R6*%
X107300000Y-103920000D03*
X107300000Y-102900000D03*
%TD*%
%TO.C,R5*%
X97180000Y-91090000D03*
X97180000Y-90070000D03*
%TD*%
D25*
%TO.C,J1*%
X94775000Y-112050000D03*
D26*
X95900000Y-110190000D03*
D27*
X97420000Y-110190000D03*
X98070000Y-110190000D03*
X98720000Y-110190000D03*
X99370000Y-110190000D03*
X100020000Y-110190000D03*
D28*
X100670000Y-110190000D03*
D27*
X101970000Y-110190000D03*
X102620000Y-110190000D03*
X103270000Y-110190000D03*
D26*
X104180000Y-110190000D03*
D25*
X105225000Y-112050000D03*
%TD*%
D29*
%TO.C,U2*%
X92750000Y-103200000D03*
X93700000Y-103200000D03*
X94650000Y-103200000D03*
X94650000Y-100925000D03*
X92750000Y-100925000D03*
%TD*%
D16*
%TO.C,C8*%
X105100000Y-97560000D03*
X105100000Y-96600000D03*
%TD*%
%TO.C,C6*%
X98100000Y-105705000D03*
X98100000Y-104745000D03*
%TD*%
D24*
%TO.C,C10*%
X97100000Y-104745000D03*
X97100000Y-105705000D03*
%TD*%
D20*
%TO.C,R3*%
X98993800Y-107765000D03*
X98993800Y-106745000D03*
%TD*%
D24*
%TO.C,C9*%
X95000000Y-104745000D03*
X95000000Y-105705000D03*
%TD*%
D12*
%TO.C,H2*%
X107200000Y-110300000D03*
%TD*%
D24*
%TO.C,C3*%
X107300000Y-105000000D03*
X107300000Y-105960000D03*
%TD*%
D17*
%TO.C,C4*%
X94780000Y-99400000D03*
X93820000Y-99400000D03*
%TD*%
%TO.C,C12*%
X94875000Y-96725000D03*
X93915000Y-96725000D03*
%TD*%
D16*
%TO.C,C11*%
X105100000Y-100185000D03*
X105100000Y-99225000D03*
%TD*%
D30*
%TO.C,Y1*%
X100355000Y-89280000D03*
X98605000Y-89280000D03*
X98605000Y-90680000D03*
X100355000Y-90680000D03*
%TD*%
D20*
%TO.C,R2*%
X100058200Y-107765000D03*
X100058200Y-106745000D03*
%TD*%
D24*
%TO.C,C17*%
X102650000Y-104720000D03*
X102650000Y-105680000D03*
%TD*%
D16*
%TO.C,C5*%
X92800000Y-99435000D03*
X92800000Y-98475000D03*
%TD*%
D24*
%TO.C,C18*%
X101600000Y-104720000D03*
X101600000Y-105680000D03*
%TD*%
D31*
%TO.C,D1*%
X97929400Y-107740000D03*
X97929400Y-106770000D03*
%TD*%
D32*
%TO.C,D3*%
X93500000Y-88412500D03*
X93500000Y-89987500D03*
%TD*%
D33*
%TO.C,R7*%
X92790000Y-91800000D03*
X93810000Y-91800000D03*
%TD*%
D16*
%TO.C,C19*%
X100550000Y-105680000D03*
X100550000Y-104720000D03*
%TD*%
M02*
