%TF.GenerationSoftware,KiCad,Pcbnew,7.0.9*%
%TF.CreationDate,2023-12-16T11:51:22+08:00*%
%TF.ProjectId,iPico,69506963-6f2e-46b6-9963-61645f706362,rev?*%
%TF.SameCoordinates,Original*%
%TF.FileFunction,Drillmap*%
%TF.FilePolarity,Positive*%
%FSLAX45Y45*%
G04 Gerber Fmt 4.5, Leading zero omitted, Abs format (unit mm)*
G04 Created by KiCad (PCBNEW 7.0.9) date 2023-12-16 11:51:22*
%MOMM*%
%LPD*%
G01*
G04 APERTURE LIST*
%ADD10C,0.100000*%
%ADD11C,0.200000*%
G04 APERTURE END LIST*
D10*
X10430000Y-11151000D02*
X10430000Y-11501000D01*
X9100000Y-11501000D02*
X9100000Y-8501000D01*
X9100000Y-8501000D02*
X10900000Y-8501000D01*
X10900000Y-11501000D02*
X10430000Y-11501000D01*
X9100000Y-11501000D02*
X9570000Y-11501000D01*
X10900000Y-8501000D02*
X10900000Y-11501000D01*
X9570000Y-11151000D02*
X10430000Y-11151000D01*
X9570000Y-11501000D02*
X9570000Y-11151000D01*
D11*
D10*
X9137500Y-10617500D02*
X9162500Y-10642500D01*
X9162500Y-10617500D02*
X9137500Y-10642500D01*
X9147500Y-10027500D02*
X9172500Y-10052500D01*
X9172500Y-10027500D02*
X9147500Y-10052500D01*
X9147500Y-10277500D02*
X9172500Y-10302500D01*
X9172500Y-10277500D02*
X9147500Y-10302500D01*
X9267500Y-9227500D02*
X9292500Y-9252500D01*
X9292500Y-9227500D02*
X9267500Y-9252500D01*
X9267500Y-10237500D02*
X9292500Y-10262500D01*
X9292500Y-10237500D02*
X9267500Y-10262500D01*
X9277500Y-8567500D02*
X9302500Y-8592500D01*
X9302500Y-8567500D02*
X9277500Y-8592500D01*
X9287500Y-9367500D02*
X9312500Y-9392500D01*
X9312500Y-9367500D02*
X9287500Y-9392500D01*
X9287500Y-9507500D02*
X9312500Y-9532500D01*
X9312500Y-9507500D02*
X9287500Y-9532500D01*
X9287500Y-9637500D02*
X9312500Y-9662500D01*
X9312500Y-9637500D02*
X9287500Y-9662500D01*
X9317500Y-9820000D02*
X9342500Y-9845000D01*
X9342500Y-9820000D02*
X9317500Y-9845000D01*
X9357500Y-10000000D02*
X9382500Y-10025000D01*
X9382500Y-10000000D02*
X9357500Y-10025000D01*
X9357500Y-10407500D02*
X9382500Y-10432500D01*
X9382500Y-10407500D02*
X9357500Y-10432500D01*
X9357500Y-10627500D02*
X9382500Y-10652500D01*
X9382500Y-10627500D02*
X9357500Y-10652500D01*
X9369500Y-9877500D02*
X9394500Y-9902500D01*
X9394500Y-9877500D02*
X9369500Y-9902500D01*
X9427500Y-10558000D02*
X9452500Y-10583000D01*
X9452500Y-10558000D02*
X9427500Y-10583000D01*
X9437500Y-9093000D02*
X9462500Y-9118000D01*
X9462500Y-9093000D02*
X9437500Y-9118000D01*
X9448951Y-9179249D02*
X9473951Y-9204249D01*
X9473951Y-9179249D02*
X9448951Y-9204249D01*
X9457500Y-10237500D02*
X9482500Y-10262500D01*
X9482500Y-10237500D02*
X9457500Y-10262500D01*
X9467500Y-8567500D02*
X9492500Y-8592500D01*
X9492500Y-8567500D02*
X9467500Y-8592500D01*
X9477500Y-10987500D02*
X9502500Y-11012500D01*
X9502500Y-10987500D02*
X9477500Y-11012500D01*
X9497500Y-8947500D02*
X9522500Y-8972500D01*
X9522500Y-8947500D02*
X9497500Y-8972500D01*
X9507500Y-10857500D02*
X9532500Y-10882500D01*
X9532500Y-10857500D02*
X9507500Y-10882500D01*
X9547500Y-9807500D02*
X9572500Y-9832500D01*
X9572500Y-9807500D02*
X9547500Y-9832500D01*
X9577500Y-10387500D02*
X9602500Y-10412500D01*
X9602500Y-10387500D02*
X9577500Y-10412500D01*
X9577500Y-10637500D02*
X9602500Y-10662500D01*
X9602500Y-10637500D02*
X9577500Y-10662500D01*
X9597180Y-9177180D02*
X9622180Y-9202180D01*
X9622180Y-9177180D02*
X9597180Y-9202180D01*
X9597500Y-8947500D02*
X9622500Y-8972500D01*
X9622500Y-8947500D02*
X9597500Y-8972500D01*
X9707500Y-8567500D02*
X9732500Y-8592500D01*
X9732500Y-8567500D02*
X9707500Y-8592500D01*
X9707500Y-8737500D02*
X9732500Y-8762500D01*
X9732500Y-8737500D02*
X9707500Y-8762500D01*
X9727500Y-10657500D02*
X9752500Y-10682500D01*
X9752500Y-10657500D02*
X9727500Y-10682500D01*
X9747500Y-10558000D02*
X9772500Y-10583000D01*
X9772500Y-10558000D02*
X9747500Y-10583000D01*
X9797500Y-10397500D02*
X9822500Y-10422500D01*
X9822500Y-10397500D02*
X9797500Y-10422500D01*
X9867500Y-8797500D02*
X9892500Y-8822500D01*
X9892500Y-8797500D02*
X9867500Y-8822500D01*
X9907500Y-9647500D02*
X9932500Y-9672500D01*
X9932500Y-9647500D02*
X9907500Y-9672500D01*
X9917500Y-9857500D02*
X9942500Y-9882500D01*
X9942500Y-9857500D02*
X9917500Y-9882500D01*
X10007500Y-9747500D02*
X10032500Y-9772500D01*
X10032500Y-9747500D02*
X10007500Y-9772500D01*
X10097500Y-9647500D02*
X10122500Y-9672500D01*
X10122500Y-9647500D02*
X10097500Y-9672500D01*
X10097500Y-10459500D02*
X10122500Y-10484500D01*
X10122500Y-10459500D02*
X10097500Y-10484500D01*
X10097500Y-10555500D02*
X10122500Y-10580500D01*
X10122500Y-10555500D02*
X10097500Y-10580500D01*
X10107500Y-9093000D02*
X10132500Y-9118000D01*
X10132500Y-9093000D02*
X10107500Y-9118000D01*
X10107500Y-9857500D02*
X10132500Y-9882500D01*
X10132500Y-9857500D02*
X10107500Y-9882500D01*
X10137500Y-9277500D02*
X10162500Y-9302500D01*
X10162500Y-9277500D02*
X10137500Y-9302500D01*
X10147500Y-10617500D02*
X10172500Y-10642500D01*
X10172500Y-10617500D02*
X10147500Y-10642500D01*
X10167500Y-8567500D02*
X10192500Y-8592500D01*
X10192500Y-8567500D02*
X10167500Y-8592500D01*
X10267500Y-10417500D02*
X10292500Y-10442500D01*
X10292500Y-10417500D02*
X10267500Y-10442500D01*
X10267500Y-10607500D02*
X10292500Y-10632500D01*
X10292500Y-10607500D02*
X10267500Y-10632500D01*
X10287500Y-10700000D02*
X10312500Y-10725000D01*
X10312500Y-10700000D02*
X10287500Y-10725000D01*
X10314500Y-10842000D02*
X10339500Y-10867000D01*
X10339500Y-10842000D02*
X10314500Y-10867000D01*
X10427500Y-10847500D02*
X10452500Y-10872500D01*
X10452500Y-10847500D02*
X10427500Y-10872500D01*
X10431052Y-10303948D02*
X10456052Y-10328948D01*
X10456052Y-10303948D02*
X10431052Y-10328948D01*
X10497500Y-9577500D02*
X10522500Y-9602500D01*
X10522500Y-9577500D02*
X10497500Y-9602500D01*
X10497500Y-9827500D02*
X10522500Y-9852500D01*
X10522500Y-9827500D02*
X10497500Y-9852500D01*
X10497500Y-10057500D02*
X10522500Y-10082500D01*
X10522500Y-10057500D02*
X10497500Y-10082500D01*
X10527500Y-10967500D02*
X10552500Y-10992500D01*
X10552500Y-10967500D02*
X10527500Y-10992500D01*
X10540000Y-8907500D02*
X10565000Y-8932500D01*
X10565000Y-8907500D02*
X10540000Y-8932500D01*
X10547500Y-8737500D02*
X10572500Y-8762500D01*
X10572500Y-8737500D02*
X10547500Y-8762500D01*
X10547500Y-9077500D02*
X10572500Y-9102500D01*
X10572500Y-9077500D02*
X10547500Y-9102500D01*
X10617500Y-8607500D02*
X10642500Y-8632500D01*
X10642500Y-8607500D02*
X10617500Y-8632500D01*
X10637500Y-9207500D02*
X10662500Y-9232500D01*
X10662500Y-9207500D02*
X10637500Y-9232500D01*
X10667500Y-9577500D02*
X10692500Y-9602500D01*
X10692500Y-9577500D02*
X10667500Y-9602500D01*
X10667500Y-10057500D02*
X10692500Y-10082500D01*
X10692500Y-10057500D02*
X10667500Y-10082500D01*
X10667500Y-10467500D02*
X10692500Y-10492500D01*
X10692500Y-10467500D02*
X10667500Y-10492500D01*
X10707500Y-10647500D02*
X10732500Y-10672500D01*
X10732500Y-10647500D02*
X10707500Y-10672500D01*
X10807500Y-9557500D02*
X10832500Y-9582500D01*
X10832500Y-9557500D02*
X10807500Y-9582500D01*
X10807500Y-9837500D02*
X10832500Y-9862500D01*
X10832500Y-9837500D02*
X10807500Y-9862500D01*
X10827500Y-8677500D02*
X10852500Y-8702500D01*
X10852500Y-8677500D02*
X10827500Y-8702500D01*
X10827500Y-8907500D02*
X10852500Y-8932500D01*
X10852500Y-8907500D02*
X10827500Y-8932500D01*
X10827500Y-9137500D02*
X10852500Y-9162500D01*
X10852500Y-9137500D02*
X10827500Y-9162500D01*
X10837500Y-10707500D02*
X10862500Y-10732500D01*
X10862500Y-10707500D02*
X10837500Y-10732500D01*
X10847500Y-10087500D02*
X10872500Y-10112500D01*
X10872500Y-10087500D02*
X10847500Y-10112500D01*
X10847500Y-10357500D02*
X10872500Y-10382500D01*
X10872500Y-10357500D02*
X10847500Y-10382500D01*
X9504500Y-11205000D02*
G75*
G03*
X9504500Y-11205000I-27000J0D01*
G01*
X9450500Y-11155500D02*
X9450500Y-11254500D01*
X9450500Y-11254500D02*
G75*
G03*
X9504500Y-11254500I27000J0D01*
G01*
X9504500Y-11254500D02*
X9504500Y-11155500D01*
X9504500Y-11155500D02*
G75*
G03*
X9450500Y-11155500I-27000J0D01*
G01*
X10549500Y-11205000D02*
G75*
G03*
X10549500Y-11205000I-27000J0D01*
G01*
X10495500Y-11155500D02*
X10495500Y-11254500D01*
X10495500Y-11254500D02*
G75*
G03*
X10549500Y-11254500I27000J0D01*
G01*
X10549500Y-11254500D02*
X10549500Y-11155500D01*
X10549500Y-11155500D02*
G75*
G03*
X10495500Y-11155500I-27000J0D01*
G01*
X9280000Y-10980000D02*
X9280000Y-11080000D01*
X9230000Y-11030000D02*
X9330000Y-11030000D01*
X10000000Y-8620000D02*
X10000000Y-8720000D01*
X9950000Y-8670000D02*
X10050000Y-8670000D01*
X10720000Y-10980000D02*
X10720000Y-11080000D01*
X10670000Y-11030000D02*
X10770000Y-11030000D01*
D11*
X9355777Y-11817484D02*
X9355777Y-11617484D01*
X9355777Y-11617484D02*
X9403396Y-11617484D01*
X9403396Y-11617484D02*
X9431967Y-11627008D01*
X9431967Y-11627008D02*
X9451015Y-11646055D01*
X9451015Y-11646055D02*
X9460539Y-11665103D01*
X9460539Y-11665103D02*
X9470063Y-11703198D01*
X9470063Y-11703198D02*
X9470063Y-11731769D01*
X9470063Y-11731769D02*
X9460539Y-11769865D01*
X9460539Y-11769865D02*
X9451015Y-11788912D01*
X9451015Y-11788912D02*
X9431967Y-11807960D01*
X9431967Y-11807960D02*
X9403396Y-11817484D01*
X9403396Y-11817484D02*
X9355777Y-11817484D01*
X9555777Y-11817484D02*
X9555777Y-11684150D01*
X9555777Y-11722246D02*
X9565301Y-11703198D01*
X9565301Y-11703198D02*
X9574824Y-11693674D01*
X9574824Y-11693674D02*
X9593872Y-11684150D01*
X9593872Y-11684150D02*
X9612920Y-11684150D01*
X9679586Y-11817484D02*
X9679586Y-11684150D01*
X9679586Y-11617484D02*
X9670063Y-11627008D01*
X9670063Y-11627008D02*
X9679586Y-11636531D01*
X9679586Y-11636531D02*
X9689110Y-11627008D01*
X9689110Y-11627008D02*
X9679586Y-11617484D01*
X9679586Y-11617484D02*
X9679586Y-11636531D01*
X9803396Y-11817484D02*
X9784348Y-11807960D01*
X9784348Y-11807960D02*
X9774824Y-11788912D01*
X9774824Y-11788912D02*
X9774824Y-11617484D01*
X9908158Y-11817484D02*
X9889110Y-11807960D01*
X9889110Y-11807960D02*
X9879586Y-11788912D01*
X9879586Y-11788912D02*
X9879586Y-11617484D01*
X10136729Y-11817484D02*
X10136729Y-11617484D01*
X10136729Y-11617484D02*
X10203396Y-11760341D01*
X10203396Y-11760341D02*
X10270063Y-11617484D01*
X10270063Y-11617484D02*
X10270063Y-11817484D01*
X10451015Y-11817484D02*
X10451015Y-11712722D01*
X10451015Y-11712722D02*
X10441491Y-11693674D01*
X10441491Y-11693674D02*
X10422444Y-11684150D01*
X10422444Y-11684150D02*
X10384348Y-11684150D01*
X10384348Y-11684150D02*
X10365301Y-11693674D01*
X10451015Y-11807960D02*
X10431967Y-11817484D01*
X10431967Y-11817484D02*
X10384348Y-11817484D01*
X10384348Y-11817484D02*
X10365301Y-11807960D01*
X10365301Y-11807960D02*
X10355777Y-11788912D01*
X10355777Y-11788912D02*
X10355777Y-11769865D01*
X10355777Y-11769865D02*
X10365301Y-11750817D01*
X10365301Y-11750817D02*
X10384348Y-11741293D01*
X10384348Y-11741293D02*
X10431967Y-11741293D01*
X10431967Y-11741293D02*
X10451015Y-11731769D01*
X10546253Y-11684150D02*
X10546253Y-11884150D01*
X10546253Y-11693674D02*
X10565301Y-11684150D01*
X10565301Y-11684150D02*
X10603396Y-11684150D01*
X10603396Y-11684150D02*
X10622444Y-11693674D01*
X10622444Y-11693674D02*
X10631967Y-11703198D01*
X10631967Y-11703198D02*
X10641491Y-11722246D01*
X10641491Y-11722246D02*
X10641491Y-11779388D01*
X10641491Y-11779388D02*
X10631967Y-11798436D01*
X10631967Y-11798436D02*
X10622444Y-11807960D01*
X10622444Y-11807960D02*
X10603396Y-11817484D01*
X10603396Y-11817484D02*
X10565301Y-11817484D01*
X10565301Y-11817484D02*
X10546253Y-11807960D01*
X10727205Y-11798436D02*
X10736729Y-11807960D01*
X10736729Y-11807960D02*
X10727205Y-11817484D01*
X10727205Y-11817484D02*
X10717682Y-11807960D01*
X10717682Y-11807960D02*
X10727205Y-11798436D01*
X10727205Y-11798436D02*
X10727205Y-11817484D01*
X10727205Y-11693674D02*
X10736729Y-11703198D01*
X10736729Y-11703198D02*
X10727205Y-11712722D01*
X10727205Y-11712722D02*
X10717682Y-11703198D01*
X10717682Y-11703198D02*
X10727205Y-11693674D01*
X10727205Y-11693674D02*
X10727205Y-11712722D01*
D10*
X9070000Y-12133500D02*
X9095000Y-12158500D01*
X9095000Y-12133500D02*
X9070000Y-12158500D01*
D11*
X9393872Y-12037484D02*
X9412920Y-12037484D01*
X9412920Y-12037484D02*
X9431967Y-12047008D01*
X9431967Y-12047008D02*
X9441491Y-12056531D01*
X9441491Y-12056531D02*
X9451015Y-12075579D01*
X9451015Y-12075579D02*
X9460539Y-12113674D01*
X9460539Y-12113674D02*
X9460539Y-12161293D01*
X9460539Y-12161293D02*
X9451015Y-12199388D01*
X9451015Y-12199388D02*
X9441491Y-12218436D01*
X9441491Y-12218436D02*
X9431967Y-12227960D01*
X9431967Y-12227960D02*
X9412920Y-12237484D01*
X9412920Y-12237484D02*
X9393872Y-12237484D01*
X9393872Y-12237484D02*
X9374824Y-12227960D01*
X9374824Y-12227960D02*
X9365301Y-12218436D01*
X9365301Y-12218436D02*
X9355777Y-12199388D01*
X9355777Y-12199388D02*
X9346253Y-12161293D01*
X9346253Y-12161293D02*
X9346253Y-12113674D01*
X9346253Y-12113674D02*
X9355777Y-12075579D01*
X9355777Y-12075579D02*
X9365301Y-12056531D01*
X9365301Y-12056531D02*
X9374824Y-12047008D01*
X9374824Y-12047008D02*
X9393872Y-12037484D01*
X9546253Y-12218436D02*
X9555777Y-12227960D01*
X9555777Y-12227960D02*
X9546253Y-12237484D01*
X9546253Y-12237484D02*
X9536729Y-12227960D01*
X9536729Y-12227960D02*
X9546253Y-12218436D01*
X9546253Y-12218436D02*
X9546253Y-12237484D01*
X9631967Y-12056531D02*
X9641491Y-12047008D01*
X9641491Y-12047008D02*
X9660539Y-12037484D01*
X9660539Y-12037484D02*
X9708158Y-12037484D01*
X9708158Y-12037484D02*
X9727205Y-12047008D01*
X9727205Y-12047008D02*
X9736729Y-12056531D01*
X9736729Y-12056531D02*
X9746253Y-12075579D01*
X9746253Y-12075579D02*
X9746253Y-12094627D01*
X9746253Y-12094627D02*
X9736729Y-12123198D01*
X9736729Y-12123198D02*
X9622444Y-12237484D01*
X9622444Y-12237484D02*
X9746253Y-12237484D01*
X9927205Y-12037484D02*
X9831967Y-12037484D01*
X9831967Y-12037484D02*
X9822444Y-12132722D01*
X9822444Y-12132722D02*
X9831967Y-12123198D01*
X9831967Y-12123198D02*
X9851015Y-12113674D01*
X9851015Y-12113674D02*
X9898634Y-12113674D01*
X9898634Y-12113674D02*
X9917682Y-12123198D01*
X9917682Y-12123198D02*
X9927205Y-12132722D01*
X9927205Y-12132722D02*
X9936729Y-12151769D01*
X9936729Y-12151769D02*
X9936729Y-12199388D01*
X9936729Y-12199388D02*
X9927205Y-12218436D01*
X9927205Y-12218436D02*
X9917682Y-12227960D01*
X9917682Y-12227960D02*
X9898634Y-12237484D01*
X9898634Y-12237484D02*
X9851015Y-12237484D01*
X9851015Y-12237484D02*
X9831967Y-12227960D01*
X9831967Y-12227960D02*
X9822444Y-12218436D01*
X10060539Y-12037484D02*
X10079586Y-12037484D01*
X10079586Y-12037484D02*
X10098634Y-12047008D01*
X10098634Y-12047008D02*
X10108158Y-12056531D01*
X10108158Y-12056531D02*
X10117682Y-12075579D01*
X10117682Y-12075579D02*
X10127205Y-12113674D01*
X10127205Y-12113674D02*
X10127205Y-12161293D01*
X10127205Y-12161293D02*
X10117682Y-12199388D01*
X10117682Y-12199388D02*
X10108158Y-12218436D01*
X10108158Y-12218436D02*
X10098634Y-12227960D01*
X10098634Y-12227960D02*
X10079586Y-12237484D01*
X10079586Y-12237484D02*
X10060539Y-12237484D01*
X10060539Y-12237484D02*
X10041491Y-12227960D01*
X10041491Y-12227960D02*
X10031967Y-12218436D01*
X10031967Y-12218436D02*
X10022444Y-12199388D01*
X10022444Y-12199388D02*
X10012920Y-12161293D01*
X10012920Y-12161293D02*
X10012920Y-12113674D01*
X10012920Y-12113674D02*
X10022444Y-12075579D01*
X10022444Y-12075579D02*
X10031967Y-12056531D01*
X10031967Y-12056531D02*
X10041491Y-12047008D01*
X10041491Y-12047008D02*
X10060539Y-12037484D01*
X10212920Y-12237484D02*
X10212920Y-12104150D01*
X10212920Y-12123198D02*
X10222444Y-12113674D01*
X10222444Y-12113674D02*
X10241491Y-12104150D01*
X10241491Y-12104150D02*
X10270063Y-12104150D01*
X10270063Y-12104150D02*
X10289110Y-12113674D01*
X10289110Y-12113674D02*
X10298634Y-12132722D01*
X10298634Y-12132722D02*
X10298634Y-12237484D01*
X10298634Y-12132722D02*
X10308158Y-12113674D01*
X10308158Y-12113674D02*
X10327205Y-12104150D01*
X10327205Y-12104150D02*
X10355777Y-12104150D01*
X10355777Y-12104150D02*
X10374825Y-12113674D01*
X10374825Y-12113674D02*
X10384348Y-12132722D01*
X10384348Y-12132722D02*
X10384348Y-12237484D01*
X10479586Y-12237484D02*
X10479586Y-12104150D01*
X10479586Y-12123198D02*
X10489110Y-12113674D01*
X10489110Y-12113674D02*
X10508158Y-12104150D01*
X10508158Y-12104150D02*
X10536729Y-12104150D01*
X10536729Y-12104150D02*
X10555777Y-12113674D01*
X10555777Y-12113674D02*
X10565301Y-12132722D01*
X10565301Y-12132722D02*
X10565301Y-12237484D01*
X10565301Y-12132722D02*
X10574825Y-12113674D01*
X10574825Y-12113674D02*
X10593872Y-12104150D01*
X10593872Y-12104150D02*
X10622444Y-12104150D01*
X10622444Y-12104150D02*
X10641491Y-12113674D01*
X10641491Y-12113674D02*
X10651015Y-12132722D01*
X10651015Y-12132722D02*
X10651015Y-12237484D01*
X11041491Y-12027960D02*
X10870063Y-12285103D01*
X11298634Y-12037484D02*
X11317682Y-12037484D01*
X11317682Y-12037484D02*
X11336729Y-12047008D01*
X11336729Y-12047008D02*
X11346253Y-12056531D01*
X11346253Y-12056531D02*
X11355777Y-12075579D01*
X11355777Y-12075579D02*
X11365301Y-12113674D01*
X11365301Y-12113674D02*
X11365301Y-12161293D01*
X11365301Y-12161293D02*
X11355777Y-12199388D01*
X11355777Y-12199388D02*
X11346253Y-12218436D01*
X11346253Y-12218436D02*
X11336729Y-12227960D01*
X11336729Y-12227960D02*
X11317682Y-12237484D01*
X11317682Y-12237484D02*
X11298634Y-12237484D01*
X11298634Y-12237484D02*
X11279586Y-12227960D01*
X11279586Y-12227960D02*
X11270063Y-12218436D01*
X11270063Y-12218436D02*
X11260539Y-12199388D01*
X11260539Y-12199388D02*
X11251015Y-12161293D01*
X11251015Y-12161293D02*
X11251015Y-12113674D01*
X11251015Y-12113674D02*
X11260539Y-12075579D01*
X11260539Y-12075579D02*
X11270063Y-12056531D01*
X11270063Y-12056531D02*
X11279586Y-12047008D01*
X11279586Y-12047008D02*
X11298634Y-12037484D01*
X11451015Y-12218436D02*
X11460539Y-12227960D01*
X11460539Y-12227960D02*
X11451015Y-12237484D01*
X11451015Y-12237484D02*
X11441491Y-12227960D01*
X11441491Y-12227960D02*
X11451015Y-12218436D01*
X11451015Y-12218436D02*
X11451015Y-12237484D01*
X11584348Y-12037484D02*
X11603396Y-12037484D01*
X11603396Y-12037484D02*
X11622444Y-12047008D01*
X11622444Y-12047008D02*
X11631967Y-12056531D01*
X11631967Y-12056531D02*
X11641491Y-12075579D01*
X11641491Y-12075579D02*
X11651015Y-12113674D01*
X11651015Y-12113674D02*
X11651015Y-12161293D01*
X11651015Y-12161293D02*
X11641491Y-12199388D01*
X11641491Y-12199388D02*
X11631967Y-12218436D01*
X11631967Y-12218436D02*
X11622444Y-12227960D01*
X11622444Y-12227960D02*
X11603396Y-12237484D01*
X11603396Y-12237484D02*
X11584348Y-12237484D01*
X11584348Y-12237484D02*
X11565301Y-12227960D01*
X11565301Y-12227960D02*
X11555777Y-12218436D01*
X11555777Y-12218436D02*
X11546253Y-12199388D01*
X11546253Y-12199388D02*
X11536729Y-12161293D01*
X11536729Y-12161293D02*
X11536729Y-12113674D01*
X11536729Y-12113674D02*
X11546253Y-12075579D01*
X11546253Y-12075579D02*
X11555777Y-12056531D01*
X11555777Y-12056531D02*
X11565301Y-12047008D01*
X11565301Y-12047008D02*
X11584348Y-12037484D01*
X11774825Y-12037484D02*
X11793872Y-12037484D01*
X11793872Y-12037484D02*
X11812920Y-12047008D01*
X11812920Y-12047008D02*
X11822444Y-12056531D01*
X11822444Y-12056531D02*
X11831967Y-12075579D01*
X11831967Y-12075579D02*
X11841491Y-12113674D01*
X11841491Y-12113674D02*
X11841491Y-12161293D01*
X11841491Y-12161293D02*
X11831967Y-12199388D01*
X11831967Y-12199388D02*
X11822444Y-12218436D01*
X11822444Y-12218436D02*
X11812920Y-12227960D01*
X11812920Y-12227960D02*
X11793872Y-12237484D01*
X11793872Y-12237484D02*
X11774825Y-12237484D01*
X11774825Y-12237484D02*
X11755777Y-12227960D01*
X11755777Y-12227960D02*
X11746253Y-12218436D01*
X11746253Y-12218436D02*
X11736729Y-12199388D01*
X11736729Y-12199388D02*
X11727206Y-12161293D01*
X11727206Y-12161293D02*
X11727206Y-12113674D01*
X11727206Y-12113674D02*
X11736729Y-12075579D01*
X11736729Y-12075579D02*
X11746253Y-12056531D01*
X11746253Y-12056531D02*
X11755777Y-12047008D01*
X11755777Y-12047008D02*
X11774825Y-12037484D01*
X11936729Y-12237484D02*
X11974825Y-12237484D01*
X11974825Y-12237484D02*
X11993872Y-12227960D01*
X11993872Y-12227960D02*
X12003396Y-12218436D01*
X12003396Y-12218436D02*
X12022444Y-12189865D01*
X12022444Y-12189865D02*
X12031967Y-12151769D01*
X12031967Y-12151769D02*
X12031967Y-12075579D01*
X12031967Y-12075579D02*
X12022444Y-12056531D01*
X12022444Y-12056531D02*
X12012920Y-12047008D01*
X12012920Y-12047008D02*
X11993872Y-12037484D01*
X11993872Y-12037484D02*
X11955777Y-12037484D01*
X11955777Y-12037484D02*
X11936729Y-12047008D01*
X11936729Y-12047008D02*
X11927206Y-12056531D01*
X11927206Y-12056531D02*
X11917682Y-12075579D01*
X11917682Y-12075579D02*
X11917682Y-12123198D01*
X11917682Y-12123198D02*
X11927206Y-12142246D01*
X11927206Y-12142246D02*
X11936729Y-12151769D01*
X11936729Y-12151769D02*
X11955777Y-12161293D01*
X11955777Y-12161293D02*
X11993872Y-12161293D01*
X11993872Y-12161293D02*
X12012920Y-12151769D01*
X12012920Y-12151769D02*
X12022444Y-12142246D01*
X12022444Y-12142246D02*
X12031967Y-12123198D01*
X12146253Y-12123198D02*
X12127206Y-12113674D01*
X12127206Y-12113674D02*
X12117682Y-12104150D01*
X12117682Y-12104150D02*
X12108158Y-12085103D01*
X12108158Y-12085103D02*
X12108158Y-12075579D01*
X12108158Y-12075579D02*
X12117682Y-12056531D01*
X12117682Y-12056531D02*
X12127206Y-12047008D01*
X12127206Y-12047008D02*
X12146253Y-12037484D01*
X12146253Y-12037484D02*
X12184348Y-12037484D01*
X12184348Y-12037484D02*
X12203396Y-12047008D01*
X12203396Y-12047008D02*
X12212920Y-12056531D01*
X12212920Y-12056531D02*
X12222444Y-12075579D01*
X12222444Y-12075579D02*
X12222444Y-12085103D01*
X12222444Y-12085103D02*
X12212920Y-12104150D01*
X12212920Y-12104150D02*
X12203396Y-12113674D01*
X12203396Y-12113674D02*
X12184348Y-12123198D01*
X12184348Y-12123198D02*
X12146253Y-12123198D01*
X12146253Y-12123198D02*
X12127206Y-12132722D01*
X12127206Y-12132722D02*
X12117682Y-12142246D01*
X12117682Y-12142246D02*
X12108158Y-12161293D01*
X12108158Y-12161293D02*
X12108158Y-12199388D01*
X12108158Y-12199388D02*
X12117682Y-12218436D01*
X12117682Y-12218436D02*
X12127206Y-12227960D01*
X12127206Y-12227960D02*
X12146253Y-12237484D01*
X12146253Y-12237484D02*
X12184348Y-12237484D01*
X12184348Y-12237484D02*
X12203396Y-12227960D01*
X12203396Y-12227960D02*
X12212920Y-12218436D01*
X12212920Y-12218436D02*
X12222444Y-12199388D01*
X12222444Y-12199388D02*
X12222444Y-12161293D01*
X12222444Y-12161293D02*
X12212920Y-12142246D01*
X12212920Y-12142246D02*
X12203396Y-12132722D01*
X12203396Y-12132722D02*
X12184348Y-12123198D01*
X12298634Y-12037484D02*
X12298634Y-12075579D01*
X12374825Y-12037484D02*
X12374825Y-12075579D01*
X12670063Y-12313674D02*
X12660539Y-12304150D01*
X12660539Y-12304150D02*
X12641491Y-12275579D01*
X12641491Y-12275579D02*
X12631968Y-12256531D01*
X12631968Y-12256531D02*
X12622444Y-12227960D01*
X12622444Y-12227960D02*
X12612920Y-12180341D01*
X12612920Y-12180341D02*
X12612920Y-12142246D01*
X12612920Y-12142246D02*
X12622444Y-12094627D01*
X12622444Y-12094627D02*
X12631968Y-12066055D01*
X12631968Y-12066055D02*
X12641491Y-12047008D01*
X12641491Y-12047008D02*
X12660539Y-12018436D01*
X12660539Y-12018436D02*
X12670063Y-12008912D01*
X12727206Y-12037484D02*
X12860539Y-12037484D01*
X12860539Y-12037484D02*
X12774825Y-12237484D01*
X13041491Y-12237484D02*
X12927206Y-12237484D01*
X12984348Y-12237484D02*
X12984348Y-12037484D01*
X12984348Y-12037484D02*
X12965301Y-12066055D01*
X12965301Y-12066055D02*
X12946253Y-12085103D01*
X12946253Y-12085103D02*
X12927206Y-12094627D01*
X13279587Y-12237484D02*
X13279587Y-12037484D01*
X13365301Y-12237484D02*
X13365301Y-12132722D01*
X13365301Y-12132722D02*
X13355777Y-12113674D01*
X13355777Y-12113674D02*
X13336730Y-12104150D01*
X13336730Y-12104150D02*
X13308158Y-12104150D01*
X13308158Y-12104150D02*
X13289110Y-12113674D01*
X13289110Y-12113674D02*
X13279587Y-12123198D01*
X13489110Y-12237484D02*
X13470063Y-12227960D01*
X13470063Y-12227960D02*
X13460539Y-12218436D01*
X13460539Y-12218436D02*
X13451015Y-12199388D01*
X13451015Y-12199388D02*
X13451015Y-12142246D01*
X13451015Y-12142246D02*
X13460539Y-12123198D01*
X13460539Y-12123198D02*
X13470063Y-12113674D01*
X13470063Y-12113674D02*
X13489110Y-12104150D01*
X13489110Y-12104150D02*
X13517682Y-12104150D01*
X13517682Y-12104150D02*
X13536730Y-12113674D01*
X13536730Y-12113674D02*
X13546253Y-12123198D01*
X13546253Y-12123198D02*
X13555777Y-12142246D01*
X13555777Y-12142246D02*
X13555777Y-12199388D01*
X13555777Y-12199388D02*
X13546253Y-12218436D01*
X13546253Y-12218436D02*
X13536730Y-12227960D01*
X13536730Y-12227960D02*
X13517682Y-12237484D01*
X13517682Y-12237484D02*
X13489110Y-12237484D01*
X13670063Y-12237484D02*
X13651015Y-12227960D01*
X13651015Y-12227960D02*
X13641491Y-12208912D01*
X13641491Y-12208912D02*
X13641491Y-12037484D01*
X13822444Y-12227960D02*
X13803396Y-12237484D01*
X13803396Y-12237484D02*
X13765301Y-12237484D01*
X13765301Y-12237484D02*
X13746253Y-12227960D01*
X13746253Y-12227960D02*
X13736730Y-12208912D01*
X13736730Y-12208912D02*
X13736730Y-12132722D01*
X13736730Y-12132722D02*
X13746253Y-12113674D01*
X13746253Y-12113674D02*
X13765301Y-12104150D01*
X13765301Y-12104150D02*
X13803396Y-12104150D01*
X13803396Y-12104150D02*
X13822444Y-12113674D01*
X13822444Y-12113674D02*
X13831968Y-12132722D01*
X13831968Y-12132722D02*
X13831968Y-12151769D01*
X13831968Y-12151769D02*
X13736730Y-12170817D01*
X13908158Y-12227960D02*
X13927206Y-12237484D01*
X13927206Y-12237484D02*
X13965301Y-12237484D01*
X13965301Y-12237484D02*
X13984349Y-12227960D01*
X13984349Y-12227960D02*
X13993872Y-12208912D01*
X13993872Y-12208912D02*
X13993872Y-12199388D01*
X13993872Y-12199388D02*
X13984349Y-12180341D01*
X13984349Y-12180341D02*
X13965301Y-12170817D01*
X13965301Y-12170817D02*
X13936730Y-12170817D01*
X13936730Y-12170817D02*
X13917682Y-12161293D01*
X13917682Y-12161293D02*
X13908158Y-12142246D01*
X13908158Y-12142246D02*
X13908158Y-12132722D01*
X13908158Y-12132722D02*
X13917682Y-12113674D01*
X13917682Y-12113674D02*
X13936730Y-12104150D01*
X13936730Y-12104150D02*
X13965301Y-12104150D01*
X13965301Y-12104150D02*
X13984349Y-12113674D01*
X14060539Y-12313674D02*
X14070063Y-12304150D01*
X14070063Y-12304150D02*
X14089111Y-12275579D01*
X14089111Y-12275579D02*
X14098634Y-12256531D01*
X14098634Y-12256531D02*
X14108158Y-12227960D01*
X14108158Y-12227960D02*
X14117682Y-12180341D01*
X14117682Y-12180341D02*
X14117682Y-12142246D01*
X14117682Y-12142246D02*
X14108158Y-12094627D01*
X14108158Y-12094627D02*
X14098634Y-12066055D01*
X14098634Y-12066055D02*
X14089111Y-12047008D01*
X14089111Y-12047008D02*
X14070063Y-12018436D01*
X14070063Y-12018436D02*
X14060539Y-12008912D01*
D10*
X9095000Y-12410000D02*
G75*
G03*
X9095000Y-12410000I-27000J0D01*
G01*
D11*
X9393872Y-12301484D02*
X9412920Y-12301484D01*
X9412920Y-12301484D02*
X9431967Y-12311008D01*
X9431967Y-12311008D02*
X9441491Y-12320531D01*
X9441491Y-12320531D02*
X9451015Y-12339579D01*
X9451015Y-12339579D02*
X9460539Y-12377674D01*
X9460539Y-12377674D02*
X9460539Y-12425293D01*
X9460539Y-12425293D02*
X9451015Y-12463388D01*
X9451015Y-12463388D02*
X9441491Y-12482436D01*
X9441491Y-12482436D02*
X9431967Y-12491960D01*
X9431967Y-12491960D02*
X9412920Y-12501484D01*
X9412920Y-12501484D02*
X9393872Y-12501484D01*
X9393872Y-12501484D02*
X9374824Y-12491960D01*
X9374824Y-12491960D02*
X9365301Y-12482436D01*
X9365301Y-12482436D02*
X9355777Y-12463388D01*
X9355777Y-12463388D02*
X9346253Y-12425293D01*
X9346253Y-12425293D02*
X9346253Y-12377674D01*
X9346253Y-12377674D02*
X9355777Y-12339579D01*
X9355777Y-12339579D02*
X9365301Y-12320531D01*
X9365301Y-12320531D02*
X9374824Y-12311008D01*
X9374824Y-12311008D02*
X9393872Y-12301484D01*
X9546253Y-12482436D02*
X9555777Y-12491960D01*
X9555777Y-12491960D02*
X9546253Y-12501484D01*
X9546253Y-12501484D02*
X9536729Y-12491960D01*
X9536729Y-12491960D02*
X9546253Y-12482436D01*
X9546253Y-12482436D02*
X9546253Y-12501484D01*
X9736729Y-12301484D02*
X9641491Y-12301484D01*
X9641491Y-12301484D02*
X9631967Y-12396722D01*
X9631967Y-12396722D02*
X9641491Y-12387198D01*
X9641491Y-12387198D02*
X9660539Y-12377674D01*
X9660539Y-12377674D02*
X9708158Y-12377674D01*
X9708158Y-12377674D02*
X9727205Y-12387198D01*
X9727205Y-12387198D02*
X9736729Y-12396722D01*
X9736729Y-12396722D02*
X9746253Y-12415769D01*
X9746253Y-12415769D02*
X9746253Y-12463388D01*
X9746253Y-12463388D02*
X9736729Y-12482436D01*
X9736729Y-12482436D02*
X9727205Y-12491960D01*
X9727205Y-12491960D02*
X9708158Y-12501484D01*
X9708158Y-12501484D02*
X9660539Y-12501484D01*
X9660539Y-12501484D02*
X9641491Y-12491960D01*
X9641491Y-12491960D02*
X9631967Y-12482436D01*
X9917682Y-12368150D02*
X9917682Y-12501484D01*
X9870063Y-12291960D02*
X9822444Y-12434817D01*
X9822444Y-12434817D02*
X9946253Y-12434817D01*
X10060539Y-12301484D02*
X10079586Y-12301484D01*
X10079586Y-12301484D02*
X10098634Y-12311008D01*
X10098634Y-12311008D02*
X10108158Y-12320531D01*
X10108158Y-12320531D02*
X10117682Y-12339579D01*
X10117682Y-12339579D02*
X10127205Y-12377674D01*
X10127205Y-12377674D02*
X10127205Y-12425293D01*
X10127205Y-12425293D02*
X10117682Y-12463388D01*
X10117682Y-12463388D02*
X10108158Y-12482436D01*
X10108158Y-12482436D02*
X10098634Y-12491960D01*
X10098634Y-12491960D02*
X10079586Y-12501484D01*
X10079586Y-12501484D02*
X10060539Y-12501484D01*
X10060539Y-12501484D02*
X10041491Y-12491960D01*
X10041491Y-12491960D02*
X10031967Y-12482436D01*
X10031967Y-12482436D02*
X10022444Y-12463388D01*
X10022444Y-12463388D02*
X10012920Y-12425293D01*
X10012920Y-12425293D02*
X10012920Y-12377674D01*
X10012920Y-12377674D02*
X10022444Y-12339579D01*
X10022444Y-12339579D02*
X10031967Y-12320531D01*
X10031967Y-12320531D02*
X10041491Y-12311008D01*
X10041491Y-12311008D02*
X10060539Y-12301484D01*
X10212920Y-12501484D02*
X10212920Y-12368150D01*
X10212920Y-12387198D02*
X10222444Y-12377674D01*
X10222444Y-12377674D02*
X10241491Y-12368150D01*
X10241491Y-12368150D02*
X10270063Y-12368150D01*
X10270063Y-12368150D02*
X10289110Y-12377674D01*
X10289110Y-12377674D02*
X10298634Y-12396722D01*
X10298634Y-12396722D02*
X10298634Y-12501484D01*
X10298634Y-12396722D02*
X10308158Y-12377674D01*
X10308158Y-12377674D02*
X10327205Y-12368150D01*
X10327205Y-12368150D02*
X10355777Y-12368150D01*
X10355777Y-12368150D02*
X10374825Y-12377674D01*
X10374825Y-12377674D02*
X10384348Y-12396722D01*
X10384348Y-12396722D02*
X10384348Y-12501484D01*
X10479586Y-12501484D02*
X10479586Y-12368150D01*
X10479586Y-12387198D02*
X10489110Y-12377674D01*
X10489110Y-12377674D02*
X10508158Y-12368150D01*
X10508158Y-12368150D02*
X10536729Y-12368150D01*
X10536729Y-12368150D02*
X10555777Y-12377674D01*
X10555777Y-12377674D02*
X10565301Y-12396722D01*
X10565301Y-12396722D02*
X10565301Y-12501484D01*
X10565301Y-12396722D02*
X10574825Y-12377674D01*
X10574825Y-12377674D02*
X10593872Y-12368150D01*
X10593872Y-12368150D02*
X10622444Y-12368150D01*
X10622444Y-12368150D02*
X10641491Y-12377674D01*
X10641491Y-12377674D02*
X10651015Y-12396722D01*
X10651015Y-12396722D02*
X10651015Y-12501484D01*
X11041491Y-12291960D02*
X10870063Y-12549103D01*
X11298634Y-12301484D02*
X11317682Y-12301484D01*
X11317682Y-12301484D02*
X11336729Y-12311008D01*
X11336729Y-12311008D02*
X11346253Y-12320531D01*
X11346253Y-12320531D02*
X11355777Y-12339579D01*
X11355777Y-12339579D02*
X11365301Y-12377674D01*
X11365301Y-12377674D02*
X11365301Y-12425293D01*
X11365301Y-12425293D02*
X11355777Y-12463388D01*
X11355777Y-12463388D02*
X11346253Y-12482436D01*
X11346253Y-12482436D02*
X11336729Y-12491960D01*
X11336729Y-12491960D02*
X11317682Y-12501484D01*
X11317682Y-12501484D02*
X11298634Y-12501484D01*
X11298634Y-12501484D02*
X11279586Y-12491960D01*
X11279586Y-12491960D02*
X11270063Y-12482436D01*
X11270063Y-12482436D02*
X11260539Y-12463388D01*
X11260539Y-12463388D02*
X11251015Y-12425293D01*
X11251015Y-12425293D02*
X11251015Y-12377674D01*
X11251015Y-12377674D02*
X11260539Y-12339579D01*
X11260539Y-12339579D02*
X11270063Y-12320531D01*
X11270063Y-12320531D02*
X11279586Y-12311008D01*
X11279586Y-12311008D02*
X11298634Y-12301484D01*
X11451015Y-12482436D02*
X11460539Y-12491960D01*
X11460539Y-12491960D02*
X11451015Y-12501484D01*
X11451015Y-12501484D02*
X11441491Y-12491960D01*
X11441491Y-12491960D02*
X11451015Y-12482436D01*
X11451015Y-12482436D02*
X11451015Y-12501484D01*
X11584348Y-12301484D02*
X11603396Y-12301484D01*
X11603396Y-12301484D02*
X11622444Y-12311008D01*
X11622444Y-12311008D02*
X11631967Y-12320531D01*
X11631967Y-12320531D02*
X11641491Y-12339579D01*
X11641491Y-12339579D02*
X11651015Y-12377674D01*
X11651015Y-12377674D02*
X11651015Y-12425293D01*
X11651015Y-12425293D02*
X11641491Y-12463388D01*
X11641491Y-12463388D02*
X11631967Y-12482436D01*
X11631967Y-12482436D02*
X11622444Y-12491960D01*
X11622444Y-12491960D02*
X11603396Y-12501484D01*
X11603396Y-12501484D02*
X11584348Y-12501484D01*
X11584348Y-12501484D02*
X11565301Y-12491960D01*
X11565301Y-12491960D02*
X11555777Y-12482436D01*
X11555777Y-12482436D02*
X11546253Y-12463388D01*
X11546253Y-12463388D02*
X11536729Y-12425293D01*
X11536729Y-12425293D02*
X11536729Y-12377674D01*
X11536729Y-12377674D02*
X11546253Y-12339579D01*
X11546253Y-12339579D02*
X11555777Y-12320531D01*
X11555777Y-12320531D02*
X11565301Y-12311008D01*
X11565301Y-12311008D02*
X11584348Y-12301484D01*
X11727206Y-12320531D02*
X11736729Y-12311008D01*
X11736729Y-12311008D02*
X11755777Y-12301484D01*
X11755777Y-12301484D02*
X11803396Y-12301484D01*
X11803396Y-12301484D02*
X11822444Y-12311008D01*
X11822444Y-12311008D02*
X11831967Y-12320531D01*
X11831967Y-12320531D02*
X11841491Y-12339579D01*
X11841491Y-12339579D02*
X11841491Y-12358627D01*
X11841491Y-12358627D02*
X11831967Y-12387198D01*
X11831967Y-12387198D02*
X11717682Y-12501484D01*
X11717682Y-12501484D02*
X11841491Y-12501484D01*
X12031967Y-12501484D02*
X11917682Y-12501484D01*
X11974825Y-12501484D02*
X11974825Y-12301484D01*
X11974825Y-12301484D02*
X11955777Y-12330055D01*
X11955777Y-12330055D02*
X11936729Y-12349103D01*
X11936729Y-12349103D02*
X11917682Y-12358627D01*
X12098634Y-12301484D02*
X12222444Y-12301484D01*
X12222444Y-12301484D02*
X12155777Y-12377674D01*
X12155777Y-12377674D02*
X12184348Y-12377674D01*
X12184348Y-12377674D02*
X12203396Y-12387198D01*
X12203396Y-12387198D02*
X12212920Y-12396722D01*
X12212920Y-12396722D02*
X12222444Y-12415769D01*
X12222444Y-12415769D02*
X12222444Y-12463388D01*
X12222444Y-12463388D02*
X12212920Y-12482436D01*
X12212920Y-12482436D02*
X12203396Y-12491960D01*
X12203396Y-12491960D02*
X12184348Y-12501484D01*
X12184348Y-12501484D02*
X12127206Y-12501484D01*
X12127206Y-12501484D02*
X12108158Y-12491960D01*
X12108158Y-12491960D02*
X12098634Y-12482436D01*
X12298634Y-12301484D02*
X12298634Y-12339579D01*
X12374825Y-12301484D02*
X12374825Y-12339579D01*
X12670063Y-12577674D02*
X12660539Y-12568150D01*
X12660539Y-12568150D02*
X12641491Y-12539579D01*
X12641491Y-12539579D02*
X12631968Y-12520531D01*
X12631968Y-12520531D02*
X12622444Y-12491960D01*
X12622444Y-12491960D02*
X12612920Y-12444341D01*
X12612920Y-12444341D02*
X12612920Y-12406246D01*
X12612920Y-12406246D02*
X12622444Y-12358627D01*
X12622444Y-12358627D02*
X12631968Y-12330055D01*
X12631968Y-12330055D02*
X12641491Y-12311008D01*
X12641491Y-12311008D02*
X12660539Y-12282436D01*
X12660539Y-12282436D02*
X12670063Y-12272912D01*
X12784348Y-12301484D02*
X12803396Y-12301484D01*
X12803396Y-12301484D02*
X12822444Y-12311008D01*
X12822444Y-12311008D02*
X12831968Y-12320531D01*
X12831968Y-12320531D02*
X12841491Y-12339579D01*
X12841491Y-12339579D02*
X12851015Y-12377674D01*
X12851015Y-12377674D02*
X12851015Y-12425293D01*
X12851015Y-12425293D02*
X12841491Y-12463388D01*
X12841491Y-12463388D02*
X12831968Y-12482436D01*
X12831968Y-12482436D02*
X12822444Y-12491960D01*
X12822444Y-12491960D02*
X12803396Y-12501484D01*
X12803396Y-12501484D02*
X12784348Y-12501484D01*
X12784348Y-12501484D02*
X12765301Y-12491960D01*
X12765301Y-12491960D02*
X12755777Y-12482436D01*
X12755777Y-12482436D02*
X12746253Y-12463388D01*
X12746253Y-12463388D02*
X12736729Y-12425293D01*
X12736729Y-12425293D02*
X12736729Y-12377674D01*
X12736729Y-12377674D02*
X12746253Y-12339579D01*
X12746253Y-12339579D02*
X12755777Y-12320531D01*
X12755777Y-12320531D02*
X12765301Y-12311008D01*
X12765301Y-12311008D02*
X12784348Y-12301484D01*
X13089110Y-12501484D02*
X13089110Y-12301484D01*
X13174825Y-12501484D02*
X13174825Y-12396722D01*
X13174825Y-12396722D02*
X13165301Y-12377674D01*
X13165301Y-12377674D02*
X13146253Y-12368150D01*
X13146253Y-12368150D02*
X13117682Y-12368150D01*
X13117682Y-12368150D02*
X13098634Y-12377674D01*
X13098634Y-12377674D02*
X13089110Y-12387198D01*
X13298634Y-12501484D02*
X13279587Y-12491960D01*
X13279587Y-12491960D02*
X13270063Y-12482436D01*
X13270063Y-12482436D02*
X13260539Y-12463388D01*
X13260539Y-12463388D02*
X13260539Y-12406246D01*
X13260539Y-12406246D02*
X13270063Y-12387198D01*
X13270063Y-12387198D02*
X13279587Y-12377674D01*
X13279587Y-12377674D02*
X13298634Y-12368150D01*
X13298634Y-12368150D02*
X13327206Y-12368150D01*
X13327206Y-12368150D02*
X13346253Y-12377674D01*
X13346253Y-12377674D02*
X13355777Y-12387198D01*
X13355777Y-12387198D02*
X13365301Y-12406246D01*
X13365301Y-12406246D02*
X13365301Y-12463388D01*
X13365301Y-12463388D02*
X13355777Y-12482436D01*
X13355777Y-12482436D02*
X13346253Y-12491960D01*
X13346253Y-12491960D02*
X13327206Y-12501484D01*
X13327206Y-12501484D02*
X13298634Y-12501484D01*
X13479587Y-12501484D02*
X13460539Y-12491960D01*
X13460539Y-12491960D02*
X13451015Y-12472912D01*
X13451015Y-12472912D02*
X13451015Y-12301484D01*
X13631968Y-12491960D02*
X13612920Y-12501484D01*
X13612920Y-12501484D02*
X13574825Y-12501484D01*
X13574825Y-12501484D02*
X13555777Y-12491960D01*
X13555777Y-12491960D02*
X13546253Y-12472912D01*
X13546253Y-12472912D02*
X13546253Y-12396722D01*
X13546253Y-12396722D02*
X13555777Y-12377674D01*
X13555777Y-12377674D02*
X13574825Y-12368150D01*
X13574825Y-12368150D02*
X13612920Y-12368150D01*
X13612920Y-12368150D02*
X13631968Y-12377674D01*
X13631968Y-12377674D02*
X13641491Y-12396722D01*
X13641491Y-12396722D02*
X13641491Y-12415769D01*
X13641491Y-12415769D02*
X13546253Y-12434817D01*
X13717682Y-12491960D02*
X13736730Y-12501484D01*
X13736730Y-12501484D02*
X13774825Y-12501484D01*
X13774825Y-12501484D02*
X13793872Y-12491960D01*
X13793872Y-12491960D02*
X13803396Y-12472912D01*
X13803396Y-12472912D02*
X13803396Y-12463388D01*
X13803396Y-12463388D02*
X13793872Y-12444341D01*
X13793872Y-12444341D02*
X13774825Y-12434817D01*
X13774825Y-12434817D02*
X13746253Y-12434817D01*
X13746253Y-12434817D02*
X13727206Y-12425293D01*
X13727206Y-12425293D02*
X13717682Y-12406246D01*
X13717682Y-12406246D02*
X13717682Y-12396722D01*
X13717682Y-12396722D02*
X13727206Y-12377674D01*
X13727206Y-12377674D02*
X13746253Y-12368150D01*
X13746253Y-12368150D02*
X13774825Y-12368150D01*
X13774825Y-12368150D02*
X13793872Y-12377674D01*
X14041492Y-12425293D02*
X14193873Y-12425293D01*
X14117682Y-12501484D02*
X14117682Y-12349103D01*
X14431968Y-12320531D02*
X14441492Y-12311008D01*
X14441492Y-12311008D02*
X14460539Y-12301484D01*
X14460539Y-12301484D02*
X14508158Y-12301484D01*
X14508158Y-12301484D02*
X14527206Y-12311008D01*
X14527206Y-12311008D02*
X14536730Y-12320531D01*
X14536730Y-12320531D02*
X14546253Y-12339579D01*
X14546253Y-12339579D02*
X14546253Y-12358627D01*
X14546253Y-12358627D02*
X14536730Y-12387198D01*
X14536730Y-12387198D02*
X14422444Y-12501484D01*
X14422444Y-12501484D02*
X14546253Y-12501484D01*
X14774825Y-12491960D02*
X14793873Y-12501484D01*
X14793873Y-12501484D02*
X14831968Y-12501484D01*
X14831968Y-12501484D02*
X14851015Y-12491960D01*
X14851015Y-12491960D02*
X14860539Y-12472912D01*
X14860539Y-12472912D02*
X14860539Y-12463388D01*
X14860539Y-12463388D02*
X14851015Y-12444341D01*
X14851015Y-12444341D02*
X14831968Y-12434817D01*
X14831968Y-12434817D02*
X14803396Y-12434817D01*
X14803396Y-12434817D02*
X14784349Y-12425293D01*
X14784349Y-12425293D02*
X14774825Y-12406246D01*
X14774825Y-12406246D02*
X14774825Y-12396722D01*
X14774825Y-12396722D02*
X14784349Y-12377674D01*
X14784349Y-12377674D02*
X14803396Y-12368150D01*
X14803396Y-12368150D02*
X14831968Y-12368150D01*
X14831968Y-12368150D02*
X14851015Y-12377674D01*
X14974825Y-12501484D02*
X14955777Y-12491960D01*
X14955777Y-12491960D02*
X14946254Y-12472912D01*
X14946254Y-12472912D02*
X14946254Y-12301484D01*
X15079587Y-12501484D02*
X15060539Y-12491960D01*
X15060539Y-12491960D02*
X15051015Y-12482436D01*
X15051015Y-12482436D02*
X15041492Y-12463388D01*
X15041492Y-12463388D02*
X15041492Y-12406246D01*
X15041492Y-12406246D02*
X15051015Y-12387198D01*
X15051015Y-12387198D02*
X15060539Y-12377674D01*
X15060539Y-12377674D02*
X15079587Y-12368150D01*
X15079587Y-12368150D02*
X15108158Y-12368150D01*
X15108158Y-12368150D02*
X15127206Y-12377674D01*
X15127206Y-12377674D02*
X15136730Y-12387198D01*
X15136730Y-12387198D02*
X15146254Y-12406246D01*
X15146254Y-12406246D02*
X15146254Y-12463388D01*
X15146254Y-12463388D02*
X15136730Y-12482436D01*
X15136730Y-12482436D02*
X15127206Y-12491960D01*
X15127206Y-12491960D02*
X15108158Y-12501484D01*
X15108158Y-12501484D02*
X15079587Y-12501484D01*
X15203396Y-12368150D02*
X15279587Y-12368150D01*
X15231968Y-12301484D02*
X15231968Y-12472912D01*
X15231968Y-12472912D02*
X15241492Y-12491960D01*
X15241492Y-12491960D02*
X15260539Y-12501484D01*
X15260539Y-12501484D02*
X15279587Y-12501484D01*
X15336730Y-12491960D02*
X15355777Y-12501484D01*
X15355777Y-12501484D02*
X15393873Y-12501484D01*
X15393873Y-12501484D02*
X15412920Y-12491960D01*
X15412920Y-12491960D02*
X15422444Y-12472912D01*
X15422444Y-12472912D02*
X15422444Y-12463388D01*
X15422444Y-12463388D02*
X15412920Y-12444341D01*
X15412920Y-12444341D02*
X15393873Y-12434817D01*
X15393873Y-12434817D02*
X15365301Y-12434817D01*
X15365301Y-12434817D02*
X15346254Y-12425293D01*
X15346254Y-12425293D02*
X15336730Y-12406246D01*
X15336730Y-12406246D02*
X15336730Y-12396722D01*
X15336730Y-12396722D02*
X15346254Y-12377674D01*
X15346254Y-12377674D02*
X15365301Y-12368150D01*
X15365301Y-12368150D02*
X15393873Y-12368150D01*
X15393873Y-12368150D02*
X15412920Y-12377674D01*
X15489111Y-12577674D02*
X15498635Y-12568150D01*
X15498635Y-12568150D02*
X15517682Y-12539579D01*
X15517682Y-12539579D02*
X15527206Y-12520531D01*
X15527206Y-12520531D02*
X15536730Y-12491960D01*
X15536730Y-12491960D02*
X15546254Y-12444341D01*
X15546254Y-12444341D02*
X15546254Y-12406246D01*
X15546254Y-12406246D02*
X15536730Y-12358627D01*
X15536730Y-12358627D02*
X15527206Y-12330055D01*
X15527206Y-12330055D02*
X15517682Y-12311008D01*
X15517682Y-12311008D02*
X15498635Y-12282436D01*
X15498635Y-12282436D02*
X15489111Y-12272912D01*
D10*
X9045000Y-12624000D02*
X9045000Y-12724000D01*
X8995000Y-12674000D02*
X9095000Y-12674000D01*
D11*
X9460539Y-12765484D02*
X9346253Y-12765484D01*
X9403396Y-12765484D02*
X9403396Y-12565484D01*
X9403396Y-12565484D02*
X9384348Y-12594055D01*
X9384348Y-12594055D02*
X9365301Y-12613103D01*
X9365301Y-12613103D02*
X9346253Y-12622627D01*
X9546253Y-12746436D02*
X9555777Y-12755960D01*
X9555777Y-12755960D02*
X9546253Y-12765484D01*
X9546253Y-12765484D02*
X9536729Y-12755960D01*
X9536729Y-12755960D02*
X9546253Y-12746436D01*
X9546253Y-12746436D02*
X9546253Y-12765484D01*
X9679586Y-12565484D02*
X9698634Y-12565484D01*
X9698634Y-12565484D02*
X9717682Y-12575008D01*
X9717682Y-12575008D02*
X9727205Y-12584531D01*
X9727205Y-12584531D02*
X9736729Y-12603579D01*
X9736729Y-12603579D02*
X9746253Y-12641674D01*
X9746253Y-12641674D02*
X9746253Y-12689293D01*
X9746253Y-12689293D02*
X9736729Y-12727388D01*
X9736729Y-12727388D02*
X9727205Y-12746436D01*
X9727205Y-12746436D02*
X9717682Y-12755960D01*
X9717682Y-12755960D02*
X9698634Y-12765484D01*
X9698634Y-12765484D02*
X9679586Y-12765484D01*
X9679586Y-12765484D02*
X9660539Y-12755960D01*
X9660539Y-12755960D02*
X9651015Y-12746436D01*
X9651015Y-12746436D02*
X9641491Y-12727388D01*
X9641491Y-12727388D02*
X9631967Y-12689293D01*
X9631967Y-12689293D02*
X9631967Y-12641674D01*
X9631967Y-12641674D02*
X9641491Y-12603579D01*
X9641491Y-12603579D02*
X9651015Y-12584531D01*
X9651015Y-12584531D02*
X9660539Y-12575008D01*
X9660539Y-12575008D02*
X9679586Y-12565484D01*
X9870063Y-12565484D02*
X9889110Y-12565484D01*
X9889110Y-12565484D02*
X9908158Y-12575008D01*
X9908158Y-12575008D02*
X9917682Y-12584531D01*
X9917682Y-12584531D02*
X9927205Y-12603579D01*
X9927205Y-12603579D02*
X9936729Y-12641674D01*
X9936729Y-12641674D02*
X9936729Y-12689293D01*
X9936729Y-12689293D02*
X9927205Y-12727388D01*
X9927205Y-12727388D02*
X9917682Y-12746436D01*
X9917682Y-12746436D02*
X9908158Y-12755960D01*
X9908158Y-12755960D02*
X9889110Y-12765484D01*
X9889110Y-12765484D02*
X9870063Y-12765484D01*
X9870063Y-12765484D02*
X9851015Y-12755960D01*
X9851015Y-12755960D02*
X9841491Y-12746436D01*
X9841491Y-12746436D02*
X9831967Y-12727388D01*
X9831967Y-12727388D02*
X9822444Y-12689293D01*
X9822444Y-12689293D02*
X9822444Y-12641674D01*
X9822444Y-12641674D02*
X9831967Y-12603579D01*
X9831967Y-12603579D02*
X9841491Y-12584531D01*
X9841491Y-12584531D02*
X9851015Y-12575008D01*
X9851015Y-12575008D02*
X9870063Y-12565484D01*
X10060539Y-12565484D02*
X10079586Y-12565484D01*
X10079586Y-12565484D02*
X10098634Y-12575008D01*
X10098634Y-12575008D02*
X10108158Y-12584531D01*
X10108158Y-12584531D02*
X10117682Y-12603579D01*
X10117682Y-12603579D02*
X10127205Y-12641674D01*
X10127205Y-12641674D02*
X10127205Y-12689293D01*
X10127205Y-12689293D02*
X10117682Y-12727388D01*
X10117682Y-12727388D02*
X10108158Y-12746436D01*
X10108158Y-12746436D02*
X10098634Y-12755960D01*
X10098634Y-12755960D02*
X10079586Y-12765484D01*
X10079586Y-12765484D02*
X10060539Y-12765484D01*
X10060539Y-12765484D02*
X10041491Y-12755960D01*
X10041491Y-12755960D02*
X10031967Y-12746436D01*
X10031967Y-12746436D02*
X10022444Y-12727388D01*
X10022444Y-12727388D02*
X10012920Y-12689293D01*
X10012920Y-12689293D02*
X10012920Y-12641674D01*
X10012920Y-12641674D02*
X10022444Y-12603579D01*
X10022444Y-12603579D02*
X10031967Y-12584531D01*
X10031967Y-12584531D02*
X10041491Y-12575008D01*
X10041491Y-12575008D02*
X10060539Y-12565484D01*
X10212920Y-12765484D02*
X10212920Y-12632150D01*
X10212920Y-12651198D02*
X10222444Y-12641674D01*
X10222444Y-12641674D02*
X10241491Y-12632150D01*
X10241491Y-12632150D02*
X10270063Y-12632150D01*
X10270063Y-12632150D02*
X10289110Y-12641674D01*
X10289110Y-12641674D02*
X10298634Y-12660722D01*
X10298634Y-12660722D02*
X10298634Y-12765484D01*
X10298634Y-12660722D02*
X10308158Y-12641674D01*
X10308158Y-12641674D02*
X10327205Y-12632150D01*
X10327205Y-12632150D02*
X10355777Y-12632150D01*
X10355777Y-12632150D02*
X10374825Y-12641674D01*
X10374825Y-12641674D02*
X10384348Y-12660722D01*
X10384348Y-12660722D02*
X10384348Y-12765484D01*
X10479586Y-12765484D02*
X10479586Y-12632150D01*
X10479586Y-12651198D02*
X10489110Y-12641674D01*
X10489110Y-12641674D02*
X10508158Y-12632150D01*
X10508158Y-12632150D02*
X10536729Y-12632150D01*
X10536729Y-12632150D02*
X10555777Y-12641674D01*
X10555777Y-12641674D02*
X10565301Y-12660722D01*
X10565301Y-12660722D02*
X10565301Y-12765484D01*
X10565301Y-12660722D02*
X10574825Y-12641674D01*
X10574825Y-12641674D02*
X10593872Y-12632150D01*
X10593872Y-12632150D02*
X10622444Y-12632150D01*
X10622444Y-12632150D02*
X10641491Y-12641674D01*
X10641491Y-12641674D02*
X10651015Y-12660722D01*
X10651015Y-12660722D02*
X10651015Y-12765484D01*
X11041491Y-12555960D02*
X10870063Y-12813103D01*
X11298634Y-12565484D02*
X11317682Y-12565484D01*
X11317682Y-12565484D02*
X11336729Y-12575008D01*
X11336729Y-12575008D02*
X11346253Y-12584531D01*
X11346253Y-12584531D02*
X11355777Y-12603579D01*
X11355777Y-12603579D02*
X11365301Y-12641674D01*
X11365301Y-12641674D02*
X11365301Y-12689293D01*
X11365301Y-12689293D02*
X11355777Y-12727388D01*
X11355777Y-12727388D02*
X11346253Y-12746436D01*
X11346253Y-12746436D02*
X11336729Y-12755960D01*
X11336729Y-12755960D02*
X11317682Y-12765484D01*
X11317682Y-12765484D02*
X11298634Y-12765484D01*
X11298634Y-12765484D02*
X11279586Y-12755960D01*
X11279586Y-12755960D02*
X11270063Y-12746436D01*
X11270063Y-12746436D02*
X11260539Y-12727388D01*
X11260539Y-12727388D02*
X11251015Y-12689293D01*
X11251015Y-12689293D02*
X11251015Y-12641674D01*
X11251015Y-12641674D02*
X11260539Y-12603579D01*
X11260539Y-12603579D02*
X11270063Y-12584531D01*
X11270063Y-12584531D02*
X11279586Y-12575008D01*
X11279586Y-12575008D02*
X11298634Y-12565484D01*
X11451015Y-12746436D02*
X11460539Y-12755960D01*
X11460539Y-12755960D02*
X11451015Y-12765484D01*
X11451015Y-12765484D02*
X11441491Y-12755960D01*
X11441491Y-12755960D02*
X11451015Y-12746436D01*
X11451015Y-12746436D02*
X11451015Y-12765484D01*
X11584348Y-12565484D02*
X11603396Y-12565484D01*
X11603396Y-12565484D02*
X11622444Y-12575008D01*
X11622444Y-12575008D02*
X11631967Y-12584531D01*
X11631967Y-12584531D02*
X11641491Y-12603579D01*
X11641491Y-12603579D02*
X11651015Y-12641674D01*
X11651015Y-12641674D02*
X11651015Y-12689293D01*
X11651015Y-12689293D02*
X11641491Y-12727388D01*
X11641491Y-12727388D02*
X11631967Y-12746436D01*
X11631967Y-12746436D02*
X11622444Y-12755960D01*
X11622444Y-12755960D02*
X11603396Y-12765484D01*
X11603396Y-12765484D02*
X11584348Y-12765484D01*
X11584348Y-12765484D02*
X11565301Y-12755960D01*
X11565301Y-12755960D02*
X11555777Y-12746436D01*
X11555777Y-12746436D02*
X11546253Y-12727388D01*
X11546253Y-12727388D02*
X11536729Y-12689293D01*
X11536729Y-12689293D02*
X11536729Y-12641674D01*
X11536729Y-12641674D02*
X11546253Y-12603579D01*
X11546253Y-12603579D02*
X11555777Y-12584531D01*
X11555777Y-12584531D02*
X11565301Y-12575008D01*
X11565301Y-12575008D02*
X11584348Y-12565484D01*
X11717682Y-12565484D02*
X11841491Y-12565484D01*
X11841491Y-12565484D02*
X11774825Y-12641674D01*
X11774825Y-12641674D02*
X11803396Y-12641674D01*
X11803396Y-12641674D02*
X11822444Y-12651198D01*
X11822444Y-12651198D02*
X11831967Y-12660722D01*
X11831967Y-12660722D02*
X11841491Y-12679769D01*
X11841491Y-12679769D02*
X11841491Y-12727388D01*
X11841491Y-12727388D02*
X11831967Y-12746436D01*
X11831967Y-12746436D02*
X11822444Y-12755960D01*
X11822444Y-12755960D02*
X11803396Y-12765484D01*
X11803396Y-12765484D02*
X11746253Y-12765484D01*
X11746253Y-12765484D02*
X11727206Y-12755960D01*
X11727206Y-12755960D02*
X11717682Y-12746436D01*
X11936729Y-12765484D02*
X11974825Y-12765484D01*
X11974825Y-12765484D02*
X11993872Y-12755960D01*
X11993872Y-12755960D02*
X12003396Y-12746436D01*
X12003396Y-12746436D02*
X12022444Y-12717865D01*
X12022444Y-12717865D02*
X12031967Y-12679769D01*
X12031967Y-12679769D02*
X12031967Y-12603579D01*
X12031967Y-12603579D02*
X12022444Y-12584531D01*
X12022444Y-12584531D02*
X12012920Y-12575008D01*
X12012920Y-12575008D02*
X11993872Y-12565484D01*
X11993872Y-12565484D02*
X11955777Y-12565484D01*
X11955777Y-12565484D02*
X11936729Y-12575008D01*
X11936729Y-12575008D02*
X11927206Y-12584531D01*
X11927206Y-12584531D02*
X11917682Y-12603579D01*
X11917682Y-12603579D02*
X11917682Y-12651198D01*
X11917682Y-12651198D02*
X11927206Y-12670246D01*
X11927206Y-12670246D02*
X11936729Y-12679769D01*
X11936729Y-12679769D02*
X11955777Y-12689293D01*
X11955777Y-12689293D02*
X11993872Y-12689293D01*
X11993872Y-12689293D02*
X12012920Y-12679769D01*
X12012920Y-12679769D02*
X12022444Y-12670246D01*
X12022444Y-12670246D02*
X12031967Y-12651198D01*
X12203396Y-12632150D02*
X12203396Y-12765484D01*
X12155777Y-12555960D02*
X12108158Y-12698817D01*
X12108158Y-12698817D02*
X12231967Y-12698817D01*
X12298634Y-12565484D02*
X12298634Y-12603579D01*
X12374825Y-12565484D02*
X12374825Y-12603579D01*
X12670063Y-12841674D02*
X12660539Y-12832150D01*
X12660539Y-12832150D02*
X12641491Y-12803579D01*
X12641491Y-12803579D02*
X12631968Y-12784531D01*
X12631968Y-12784531D02*
X12622444Y-12755960D01*
X12622444Y-12755960D02*
X12612920Y-12708341D01*
X12612920Y-12708341D02*
X12612920Y-12670246D01*
X12612920Y-12670246D02*
X12622444Y-12622627D01*
X12622444Y-12622627D02*
X12631968Y-12594055D01*
X12631968Y-12594055D02*
X12641491Y-12575008D01*
X12641491Y-12575008D02*
X12660539Y-12546436D01*
X12660539Y-12546436D02*
X12670063Y-12536912D01*
X12727206Y-12565484D02*
X12851015Y-12565484D01*
X12851015Y-12565484D02*
X12784348Y-12641674D01*
X12784348Y-12641674D02*
X12812920Y-12641674D01*
X12812920Y-12641674D02*
X12831968Y-12651198D01*
X12831968Y-12651198D02*
X12841491Y-12660722D01*
X12841491Y-12660722D02*
X12851015Y-12679769D01*
X12851015Y-12679769D02*
X12851015Y-12727388D01*
X12851015Y-12727388D02*
X12841491Y-12746436D01*
X12841491Y-12746436D02*
X12831968Y-12755960D01*
X12831968Y-12755960D02*
X12812920Y-12765484D01*
X12812920Y-12765484D02*
X12755777Y-12765484D01*
X12755777Y-12765484D02*
X12736729Y-12755960D01*
X12736729Y-12755960D02*
X12727206Y-12746436D01*
X13089110Y-12765484D02*
X13089110Y-12565484D01*
X13174825Y-12765484D02*
X13174825Y-12660722D01*
X13174825Y-12660722D02*
X13165301Y-12641674D01*
X13165301Y-12641674D02*
X13146253Y-12632150D01*
X13146253Y-12632150D02*
X13117682Y-12632150D01*
X13117682Y-12632150D02*
X13098634Y-12641674D01*
X13098634Y-12641674D02*
X13089110Y-12651198D01*
X13298634Y-12765484D02*
X13279587Y-12755960D01*
X13279587Y-12755960D02*
X13270063Y-12746436D01*
X13270063Y-12746436D02*
X13260539Y-12727388D01*
X13260539Y-12727388D02*
X13260539Y-12670246D01*
X13260539Y-12670246D02*
X13270063Y-12651198D01*
X13270063Y-12651198D02*
X13279587Y-12641674D01*
X13279587Y-12641674D02*
X13298634Y-12632150D01*
X13298634Y-12632150D02*
X13327206Y-12632150D01*
X13327206Y-12632150D02*
X13346253Y-12641674D01*
X13346253Y-12641674D02*
X13355777Y-12651198D01*
X13355777Y-12651198D02*
X13365301Y-12670246D01*
X13365301Y-12670246D02*
X13365301Y-12727388D01*
X13365301Y-12727388D02*
X13355777Y-12746436D01*
X13355777Y-12746436D02*
X13346253Y-12755960D01*
X13346253Y-12755960D02*
X13327206Y-12765484D01*
X13327206Y-12765484D02*
X13298634Y-12765484D01*
X13479587Y-12765484D02*
X13460539Y-12755960D01*
X13460539Y-12755960D02*
X13451015Y-12736912D01*
X13451015Y-12736912D02*
X13451015Y-12565484D01*
X13631968Y-12755960D02*
X13612920Y-12765484D01*
X13612920Y-12765484D02*
X13574825Y-12765484D01*
X13574825Y-12765484D02*
X13555777Y-12755960D01*
X13555777Y-12755960D02*
X13546253Y-12736912D01*
X13546253Y-12736912D02*
X13546253Y-12660722D01*
X13546253Y-12660722D02*
X13555777Y-12641674D01*
X13555777Y-12641674D02*
X13574825Y-12632150D01*
X13574825Y-12632150D02*
X13612920Y-12632150D01*
X13612920Y-12632150D02*
X13631968Y-12641674D01*
X13631968Y-12641674D02*
X13641491Y-12660722D01*
X13641491Y-12660722D02*
X13641491Y-12679769D01*
X13641491Y-12679769D02*
X13546253Y-12698817D01*
X13717682Y-12755960D02*
X13736730Y-12765484D01*
X13736730Y-12765484D02*
X13774825Y-12765484D01*
X13774825Y-12765484D02*
X13793872Y-12755960D01*
X13793872Y-12755960D02*
X13803396Y-12736912D01*
X13803396Y-12736912D02*
X13803396Y-12727388D01*
X13803396Y-12727388D02*
X13793872Y-12708341D01*
X13793872Y-12708341D02*
X13774825Y-12698817D01*
X13774825Y-12698817D02*
X13746253Y-12698817D01*
X13746253Y-12698817D02*
X13727206Y-12689293D01*
X13727206Y-12689293D02*
X13717682Y-12670246D01*
X13717682Y-12670246D02*
X13717682Y-12660722D01*
X13717682Y-12660722D02*
X13727206Y-12641674D01*
X13727206Y-12641674D02*
X13746253Y-12632150D01*
X13746253Y-12632150D02*
X13774825Y-12632150D01*
X13774825Y-12632150D02*
X13793872Y-12641674D01*
X13870063Y-12841674D02*
X13879587Y-12832150D01*
X13879587Y-12832150D02*
X13898634Y-12803579D01*
X13898634Y-12803579D02*
X13908158Y-12784531D01*
X13908158Y-12784531D02*
X13917682Y-12755960D01*
X13917682Y-12755960D02*
X13927206Y-12708341D01*
X13927206Y-12708341D02*
X13927206Y-12670246D01*
X13927206Y-12670246D02*
X13917682Y-12622627D01*
X13917682Y-12622627D02*
X13908158Y-12594055D01*
X13908158Y-12594055D02*
X13898634Y-12575008D01*
X13898634Y-12575008D02*
X13879587Y-12546436D01*
X13879587Y-12546436D02*
X13870063Y-12536912D01*
M02*
