%TF.GenerationSoftware,KiCad,Pcbnew,7.0.9*%
%TF.CreationDate,2023-12-16T11:51:24+08:00*%
%TF.ProjectId,iPico,69506963-6f2e-46b6-9963-61645f706362,rev?*%
%TF.SameCoordinates,Original*%
%TF.FileFunction,Copper,L1,Top*%
%TF.FilePolarity,Positive*%
%FSLAX46Y46*%
G04 Gerber Fmt 4.6, Leading zero omitted, Abs format (unit mm)*
G04 Created by KiCad (PCBNEW 7.0.9) date 2023-12-16 11:51:24*
%MOMM*%
%LPD*%
G01*
G04 APERTURE LIST*
G04 Aperture macros list*
%AMRoundRect*
0 Rectangle with rounded corners*
0 $1 Rounding radius*
0 $2 $3 $4 $5 $6 $7 $8 $9 X,Y pos of 4 corners*
0 Add a 4 corners polygon primitive as box body*
4,1,4,$2,$3,$4,$5,$6,$7,$8,$9,$2,$3,0*
0 Add four circle primitives for the rounded corners*
1,1,$1+$1,$2,$3*
1,1,$1+$1,$4,$5*
1,1,$1+$1,$6,$7*
1,1,$1+$1,$8,$9*
0 Add four rect primitives between the rounded corners*
20,1,$1+$1,$2,$3,$4,$5,0*
20,1,$1+$1,$4,$5,$6,$7,0*
20,1,$1+$1,$6,$7,$8,$9,0*
20,1,$1+$1,$8,$9,$2,$3,0*%
G04 Aperture macros list end*
%TA.AperFunction,SMDPad,CuDef*%
%ADD10O,0.300000X0.900000*%
%TD*%
%TA.AperFunction,SMDPad,CuDef*%
%ADD11R,1.650000X0.250000*%
%TD*%
%TA.AperFunction,ComponentPad*%
%ADD12C,3.000000*%
%TD*%
%TA.AperFunction,SMDPad,CuDef*%
%ADD13RoundRect,0.050000X0.387500X0.050000X-0.387500X0.050000X-0.387500X-0.050000X0.387500X-0.050000X0*%
%TD*%
%TA.AperFunction,SMDPad,CuDef*%
%ADD14RoundRect,0.050000X0.050000X0.387500X-0.050000X0.387500X-0.050000X-0.387500X0.050000X-0.387500X0*%
%TD*%
%TA.AperFunction,SMDPad,CuDef*%
%ADD15R,3.200000X3.200000*%
%TD*%
%TA.AperFunction,SMDPad,CuDef*%
%ADD16RoundRect,0.140000X0.170000X-0.140000X0.170000X0.140000X-0.170000X0.140000X-0.170000X-0.140000X0*%
%TD*%
%TA.AperFunction,SMDPad,CuDef*%
%ADD17RoundRect,0.140000X0.140000X0.170000X-0.140000X0.170000X-0.140000X-0.170000X0.140000X-0.170000X0*%
%TD*%
%TA.AperFunction,SMDPad,CuDef*%
%ADD18RoundRect,0.147500X-0.172500X0.147500X-0.172500X-0.147500X0.172500X-0.147500X0.172500X0.147500X0*%
%TD*%
%TA.AperFunction,SMDPad,CuDef*%
%ADD19RoundRect,0.140000X-0.140000X-0.170000X0.140000X-0.170000X0.140000X0.170000X-0.140000X0.170000X0*%
%TD*%
%TA.AperFunction,SMDPad,CuDef*%
%ADD20RoundRect,0.135000X0.185000X-0.135000X0.185000X0.135000X-0.185000X0.135000X-0.185000X-0.135000X0*%
%TD*%
%TA.AperFunction,SMDPad,CuDef*%
%ADD21R,0.750000X1.000000*%
%TD*%
%TA.AperFunction,SMDPad,CuDef*%
%ADD22RoundRect,0.135000X-0.185000X0.135000X-0.185000X-0.135000X0.185000X-0.135000X0.185000X0.135000X0*%
%TD*%
%TA.AperFunction,SMDPad,CuDef*%
%ADD23RoundRect,0.218750X0.218750X0.256250X-0.218750X0.256250X-0.218750X-0.256250X0.218750X-0.256250X0*%
%TD*%
%TA.AperFunction,SMDPad,CuDef*%
%ADD24RoundRect,0.140000X-0.170000X0.140000X-0.170000X-0.140000X0.170000X-0.140000X0.170000X0.140000X0*%
%TD*%
%TA.AperFunction,ComponentPad*%
%ADD25O,0.940000X1.930000*%
%TD*%
%TA.AperFunction,SMDPad,CuDef*%
%ADD26R,0.800000X1.340000*%
%TD*%
%TA.AperFunction,SMDPad,CuDef*%
%ADD27R,0.380000X1.340000*%
%TD*%
%TA.AperFunction,SMDPad,CuDef*%
%ADD28R,0.360000X1.340000*%
%TD*%
%TA.AperFunction,SMDPad,CuDef*%
%ADD29RoundRect,0.150000X0.150000X-0.512500X0.150000X0.512500X-0.150000X0.512500X-0.150000X-0.512500X0*%
%TD*%
%TA.AperFunction,SMDPad,CuDef*%
%ADD30R,1.150000X1.000000*%
%TD*%
%TA.AperFunction,SMDPad,CuDef*%
%ADD31RoundRect,0.147500X0.172500X-0.147500X0.172500X0.147500X-0.172500X0.147500X-0.172500X-0.147500X0*%
%TD*%
%TA.AperFunction,SMDPad,CuDef*%
%ADD32RoundRect,0.218750X-0.256250X0.218750X-0.256250X-0.218750X0.256250X-0.218750X0.256250X0.218750X0*%
%TD*%
%TA.AperFunction,SMDPad,CuDef*%
%ADD33RoundRect,0.135000X-0.135000X-0.185000X0.135000X-0.185000X0.135000X0.185000X-0.135000X0.185000X0*%
%TD*%
%TA.AperFunction,ViaPad*%
%ADD34C,0.500000*%
%TD*%
%TA.AperFunction,Conductor*%
%ADD35C,0.200000*%
%TD*%
%TA.AperFunction,Conductor*%
%ADD36C,0.300000*%
%TD*%
%TA.AperFunction,Conductor*%
%ADD37C,0.400000*%
%TD*%
%TA.AperFunction,Conductor*%
%ADD38C,0.600000*%
%TD*%
%TA.AperFunction,Conductor*%
%ADD39C,0.150000*%
%TD*%
G04 APERTURE END LIST*
D10*
%TO.P,U1,1,CS*%
%TO.N,/QSPI_SS_N*%
X106375000Y-103400000D03*
%TO.P,U1,2,IO1*%
%TO.N,/QSPI_SD1*%
X105875000Y-103400000D03*
%TO.P,U1,3,IO2*%
%TO.N,/QSPI_SD2*%
X105375000Y-103400000D03*
%TO.P,U1,4,GND*%
%TO.N,GND*%
X104875000Y-103400000D03*
%TO.P,U1,5,IO0*%
%TO.N,/QSPI_SD0*%
X104875000Y-106200000D03*
%TO.P,U1,6,CLK*%
%TO.N,/QSPI_SCLK*%
X105375000Y-106200000D03*
%TO.P,U1,7,IO3*%
%TO.N,/QSPI_SD3*%
X105875000Y-106200000D03*
%TO.P,U1,8,VCC*%
%TO.N,/+3.3V*%
X106375000Y-106200000D03*
D11*
%TO.P,U1,9,TP*%
%TO.N,GND*%
X105625000Y-104800000D03*
%TD*%
D12*
%TO.P,H3,1,1*%
%TO.N,GND*%
X92800000Y-110300000D03*
%TD*%
D13*
%TO.P,U4,1,IOVDD*%
%TO.N,/+3.3V*%
X103637500Y-100200000D03*
%TO.P,U4,2,GPIO0*%
%TO.N,unconnected-(U4-GPIO0-Pad2)*%
X103637500Y-99800000D03*
%TO.P,U4,3,GPIO1*%
%TO.N,unconnected-(U4-GPIO1-Pad3)*%
X103637500Y-99400000D03*
%TO.P,U4,4,GPIO2*%
%TO.N,unconnected-(U4-GPIO2-Pad4)*%
X103637500Y-99000000D03*
%TO.P,U4,5,GPIO3*%
%TO.N,unconnected-(U4-GPIO3-Pad5)*%
X103637500Y-98600000D03*
%TO.P,U4,6,GPIO4*%
%TO.N,unconnected-(U4-GPIO4-Pad6)*%
X103637500Y-98200000D03*
%TO.P,U4,7,GPIO5*%
%TO.N,unconnected-(U4-GPIO5-Pad7)*%
X103637500Y-97800000D03*
%TO.P,U4,8,GPIO6*%
%TO.N,unconnected-(U4-GPIO6-Pad8)*%
X103637500Y-97400000D03*
%TO.P,U4,9,GPIO7*%
%TO.N,unconnected-(U4-GPIO7-Pad9)*%
X103637500Y-97000000D03*
%TO.P,U4,10,IOVDD*%
%TO.N,/+3.3V*%
X103637500Y-96600000D03*
%TO.P,U4,11,GPIO8*%
%TO.N,unconnected-(U4-GPIO8-Pad11)*%
X103637500Y-96200000D03*
%TO.P,U4,12,GPIO9*%
%TO.N,unconnected-(U4-GPIO9-Pad12)*%
X103637500Y-95800000D03*
%TO.P,U4,13,GPIO10*%
%TO.N,unconnected-(U4-GPIO10-Pad13)*%
X103637500Y-95400000D03*
%TO.P,U4,14,GPIO11*%
%TO.N,unconnected-(U4-GPIO11-Pad14)*%
X103637500Y-95000000D03*
D14*
%TO.P,U4,15,GPIO12*%
%TO.N,unconnected-(U4-GPIO12-Pad15)*%
X102800000Y-94162500D03*
%TO.P,U4,16,GPIO13*%
%TO.N,unconnected-(U4-GPIO13-Pad16)*%
X102400000Y-94162500D03*
%TO.P,U4,17,GPIO14*%
%TO.N,unconnected-(U4-GPIO14-Pad17)*%
X102000000Y-94162500D03*
%TO.P,U4,18,GPIO15*%
%TO.N,unconnected-(U4-GPIO15-Pad18)*%
X101600000Y-94162500D03*
%TO.P,U4,19,TESTEN*%
%TO.N,GND*%
X101200000Y-94162500D03*
%TO.P,U4,20,XIN*%
%TO.N,/XIN*%
X100800000Y-94162500D03*
%TO.P,U4,21,XOUT*%
%TO.N,/XOUT*%
X100400000Y-94162500D03*
%TO.P,U4,22,IOVDD*%
%TO.N,/+3.3V*%
X100000000Y-94162500D03*
%TO.P,U4,23,DVDD*%
%TO.N,/+1.1V*%
X99600000Y-94162500D03*
%TO.P,U4,24,SWCLK*%
%TO.N,unconnected-(U4-SWCLK-Pad24)*%
X99200000Y-94162500D03*
%TO.P,U4,25,SWD*%
%TO.N,unconnected-(U4-SWD-Pad25)*%
X98800000Y-94162500D03*
%TO.P,U4,26,RUN*%
%TO.N,/+3.3V*%
X98400000Y-94162500D03*
%TO.P,U4,27,GPIO16*%
%TO.N,unconnected-(U4-GPIO16-Pad27)*%
X98000000Y-94162500D03*
%TO.P,U4,28,GPIO17*%
%TO.N,unconnected-(U4-GPIO17-Pad28)*%
X97600000Y-94162500D03*
D13*
%TO.P,U4,29,GPIO18*%
%TO.N,unconnected-(U4-GPIO18-Pad29)*%
X96762500Y-95000000D03*
%TO.P,U4,30,GPIO19*%
%TO.N,unconnected-(U4-GPIO19-Pad30)*%
X96762500Y-95400000D03*
%TO.P,U4,31,GPIO20*%
%TO.N,unconnected-(U4-GPIO20-Pad31)*%
X96762500Y-95800000D03*
%TO.P,U4,32,GPIO21*%
%TO.N,unconnected-(U4-GPIO21-Pad32)*%
X96762500Y-96200000D03*
%TO.P,U4,33,IOVDD*%
%TO.N,/+3.3V*%
X96762500Y-96600000D03*
%TO.P,U4,34,GPIO22*%
%TO.N,unconnected-(U4-GPIO22-Pad34)*%
X96762500Y-97000000D03*
%TO.P,U4,35,GPIO23*%
%TO.N,unconnected-(U4-GPIO23-Pad35)*%
X96762500Y-97400000D03*
%TO.P,U4,36,GPIO24*%
%TO.N,unconnected-(U4-GPIO24-Pad36)*%
X96762500Y-97800000D03*
%TO.P,U4,37,GPIO25*%
%TO.N,/GPIO25*%
X96762500Y-98200000D03*
%TO.P,U4,38,GPIO26_ADC0*%
%TO.N,unconnected-(U4-GPIO26_ADC0-Pad38)*%
X96762500Y-98600000D03*
%TO.P,U4,39,GPIO27_ADC1*%
%TO.N,unconnected-(U4-GPIO27_ADC1-Pad39)*%
X96762500Y-99000000D03*
%TO.P,U4,40,GPIO28_ADC2*%
%TO.N,unconnected-(U4-GPIO28_ADC2-Pad40)*%
X96762500Y-99400000D03*
%TO.P,U4,41,GPIO29_ADC3*%
%TO.N,unconnected-(U4-GPIO29_ADC3-Pad41)*%
X96762500Y-99800000D03*
%TO.P,U4,42,IOVDD*%
%TO.N,/+3.3V*%
X96762500Y-100200000D03*
D14*
%TO.P,U4,43,ADC_AVDD*%
%TO.N,/ADC_VREF*%
X97600000Y-101037500D03*
%TO.P,U4,44,VREG_IN*%
%TO.N,/+3.3V*%
X98000000Y-101037500D03*
%TO.P,U4,45,VREG_VOUT*%
%TO.N,/+1.1V*%
X98400000Y-101037500D03*
%TO.P,U4,46,USB_DM*%
%TO.N,/DM*%
X98800000Y-101037500D03*
%TO.P,U4,47,USB_DP*%
%TO.N,/DP*%
X99200000Y-101037500D03*
%TO.P,U4,48,USB_VDD*%
%TO.N,/+3.3V*%
X99600000Y-101037500D03*
%TO.P,U4,49,IOVDD*%
X100000000Y-101037500D03*
%TO.P,U4,50,DVDD*%
%TO.N,/+1.1V*%
X100400000Y-101037500D03*
%TO.P,U4,51,QSPI_SD3*%
%TO.N,/QSPI_SD3*%
X100800000Y-101037500D03*
%TO.P,U4,52,QSPI_SCLK*%
%TO.N,/QSPI_SCLK*%
X101200000Y-101037500D03*
%TO.P,U4,53,QSPI_SD0*%
%TO.N,/QSPI_SD0*%
X101600000Y-101037500D03*
%TO.P,U4,54,QSPI_SD2*%
%TO.N,/QSPI_SD2*%
X102000000Y-101037500D03*
%TO.P,U4,55,QSPI_SD1*%
%TO.N,/QSPI_SD1*%
X102400000Y-101037500D03*
%TO.P,U4,56,QSPI_SS*%
%TO.N,/QSPI_SS_N*%
X102800000Y-101037500D03*
D15*
%TO.P,U4,57,GND*%
%TO.N,GND*%
X100200000Y-97600000D03*
%TD*%
D16*
%TO.P,C16,1*%
%TO.N,Net-(C16-Pad1)*%
X97180000Y-89110000D03*
%TO.P,C16,2*%
%TO.N,GND*%
X97180000Y-88150000D03*
%TD*%
D17*
%TO.P,C14,1*%
%TO.N,/+3.3V*%
X94780000Y-98325000D03*
%TO.P,C14,2*%
%TO.N,GND*%
X93820000Y-98325000D03*
%TD*%
D18*
%TO.P,D2,1,A1*%
%TO.N,GND*%
X101122600Y-106775000D03*
%TO.P,D2,2,A2*%
%TO.N,/D+*%
X101122600Y-107745000D03*
%TD*%
D19*
%TO.P,C2,1*%
%TO.N,/+5V_VIN*%
X92765000Y-105775000D03*
%TO.P,C2,2*%
%TO.N,GND*%
X93725000Y-105775000D03*
%TD*%
D12*
%TO.P,H1,1,1*%
%TO.N,GND*%
X100000000Y-86700000D03*
%TD*%
D20*
%TO.P,R1,1*%
%TO.N,Net-(J1-A5-CC1)*%
X102187000Y-107765000D03*
%TO.P,R1,2*%
%TO.N,GND*%
X102187000Y-106745000D03*
%TD*%
D19*
%TO.P,C1,1*%
%TO.N,/+5V_VIN*%
X92765000Y-104700000D03*
%TO.P,C1,2*%
%TO.N,GND*%
X93725000Y-104700000D03*
%TD*%
D16*
%TO.P,C15,1*%
%TO.N,/+3.3V*%
X96150000Y-91080000D03*
%TO.P,C15,2*%
%TO.N,GND*%
X96150000Y-90120000D03*
%TD*%
D21*
%TO.P,SW1,1,1*%
%TO.N,Net-(R6-Pad2)*%
X103625000Y-92200000D03*
X103625000Y-86200000D03*
%TO.P,SW1,2,2*%
%TO.N,GND*%
X107375000Y-92200000D03*
X107375000Y-86200000D03*
%TD*%
D22*
%TO.P,R4,1*%
%TO.N,/ADC_VREF*%
X96075000Y-104715000D03*
%TO.P,R4,2*%
%TO.N,/+3.3V*%
X96075000Y-105735000D03*
%TD*%
D23*
%TO.P,F1,1*%
%TO.N,/+5V_USB*%
X94475000Y-107650000D03*
%TO.P,F1,2*%
%TO.N,/+5V_VIN*%
X92900000Y-107650000D03*
%TD*%
D24*
%TO.P,C13,1*%
%TO.N,/XIN*%
X101805000Y-90095000D03*
%TO.P,C13,2*%
%TO.N,GND*%
X101805000Y-91055000D03*
%TD*%
%TO.P,C7,1*%
%TO.N,GND*%
X95100000Y-90095000D03*
%TO.P,C7,2*%
%TO.N,/+1.1V*%
X95100000Y-91055000D03*
%TD*%
D20*
%TO.P,R6,1*%
%TO.N,/QSPI_SS_N*%
X107300000Y-103920000D03*
%TO.P,R6,2*%
%TO.N,Net-(R6-Pad2)*%
X107300000Y-102900000D03*
%TD*%
%TO.P,R5,1*%
%TO.N,/XOUT*%
X97180000Y-91090000D03*
%TO.P,R5,2*%
%TO.N,Net-(C16-Pad1)*%
X97180000Y-90070000D03*
%TD*%
D25*
%TO.P,J1,1,GND1*%
%TO.N,GND*%
X94775000Y-112050000D03*
D26*
%TO.P,J1,2,GND2*%
X95900000Y-110190000D03*
D27*
%TO.P,J1,3,B10-RX1-*%
%TO.N,unconnected-(J1-B10-RX1--Pad3)*%
X97420000Y-110190000D03*
%TO.P,J1,4,B11-RX1+*%
%TO.N,unconnected-(J1-B11-RX1+-Pad4)*%
X98070000Y-110190000D03*
%TO.P,J1,5,A9-VBUS*%
%TO.N,/+5V_USB*%
X98720000Y-110190000D03*
%TO.P,J1,6,A7-D-*%
%TO.N,/D-*%
X99370000Y-110190000D03*
%TO.P,J1,7,A6-D+*%
%TO.N,/D+*%
X100020000Y-110190000D03*
D28*
%TO.P,J1,8,A5-CC1*%
%TO.N,Net-(J1-A5-CC1)*%
X100670000Y-110190000D03*
D27*
%TO.P,J1,9,A3-TX1-*%
%TO.N,unconnected-(J1-A3-TX1--Pad9)*%
X101970000Y-110190000D03*
%TO.P,J1,10,A2-TX1+*%
%TO.N,unconnected-(J1-A2-TX1+-Pad10)*%
X102620000Y-110190000D03*
%TO.P,J1,11,A1-GND*%
%TO.N,GND*%
X103270000Y-110190000D03*
D26*
%TO.P,J1,12,GND3*%
X104180000Y-110190000D03*
D25*
%TO.P,J1,13,GND4*%
X105225000Y-112050000D03*
%TD*%
D29*
%TO.P,U2,1,IN*%
%TO.N,/+5V_VIN*%
X92750000Y-103200000D03*
%TO.P,U2,2,GND*%
%TO.N,GND*%
X93700000Y-103200000D03*
%TO.P,U2,3,EN*%
%TO.N,/+5V_VIN*%
X94650000Y-103200000D03*
%TO.P,U2,4,NR*%
%TO.N,/3V_NR*%
X94650000Y-100925000D03*
%TO.P,U2,5,OUT*%
%TO.N,/+3.3V*%
X92750000Y-100925000D03*
%TD*%
D16*
%TO.P,C8,1*%
%TO.N,GND*%
X105100000Y-97560000D03*
%TO.P,C8,2*%
%TO.N,/+3.3V*%
X105100000Y-96600000D03*
%TD*%
%TO.P,C6,1*%
%TO.N,GND*%
X98100000Y-105705000D03*
%TO.P,C6,2*%
%TO.N,/+1.1V*%
X98100000Y-104745000D03*
%TD*%
D24*
%TO.P,C10,1*%
%TO.N,/+3.3V*%
X97100000Y-104745000D03*
%TO.P,C10,2*%
%TO.N,GND*%
X97100000Y-105705000D03*
%TD*%
D20*
%TO.P,R3,1*%
%TO.N,/D-*%
X98993800Y-107765000D03*
%TO.P,R3,2*%
%TO.N,/DM*%
X98993800Y-106745000D03*
%TD*%
D24*
%TO.P,C9,1*%
%TO.N,/ADC_VREF*%
X95000000Y-104745000D03*
%TO.P,C9,2*%
%TO.N,GND*%
X95000000Y-105705000D03*
%TD*%
D12*
%TO.P,H2,1,1*%
%TO.N,GND*%
X107200000Y-110300000D03*
%TD*%
D24*
%TO.P,C3,1*%
%TO.N,GND*%
X107300000Y-105000000D03*
%TO.P,C3,2*%
%TO.N,/+3.3V*%
X107300000Y-105960000D03*
%TD*%
D17*
%TO.P,C4,1*%
%TO.N,/3V_NR*%
X94780000Y-99400000D03*
%TO.P,C4,2*%
%TO.N,GND*%
X93820000Y-99400000D03*
%TD*%
%TO.P,C12,1*%
%TO.N,/+3.3V*%
X94875000Y-96725000D03*
%TO.P,C12,2*%
%TO.N,GND*%
X93915000Y-96725000D03*
%TD*%
D16*
%TO.P,C11,1*%
%TO.N,/+3.3V*%
X105100000Y-100185000D03*
%TO.P,C11,2*%
%TO.N,GND*%
X105100000Y-99225000D03*
%TD*%
D30*
%TO.P,Y1,1,1*%
%TO.N,/XIN*%
X100355000Y-89280000D03*
%TO.P,Y1,2,2*%
%TO.N,GND*%
X98605000Y-89280000D03*
%TO.P,Y1,3,3*%
%TO.N,Net-(C16-Pad1)*%
X98605000Y-90680000D03*
%TO.P,Y1,4,4*%
%TO.N,GND*%
X100355000Y-90680000D03*
%TD*%
D20*
%TO.P,R2,1*%
%TO.N,/D+*%
X100058200Y-107765000D03*
%TO.P,R2,2*%
%TO.N,/DP*%
X100058200Y-106745000D03*
%TD*%
D24*
%TO.P,C17,1*%
%TO.N,/+1.1V*%
X102650000Y-104720000D03*
%TO.P,C17,2*%
%TO.N,GND*%
X102650000Y-105680000D03*
%TD*%
D16*
%TO.P,C5,1*%
%TO.N,/+3.3V*%
X92800000Y-99435000D03*
%TO.P,C5,2*%
%TO.N,GND*%
X92800000Y-98475000D03*
%TD*%
D24*
%TO.P,C18,1*%
%TO.N,/+3.3V*%
X101600000Y-104720000D03*
%TO.P,C18,2*%
%TO.N,GND*%
X101600000Y-105680000D03*
%TD*%
D31*
%TO.P,D1,1,A1*%
%TO.N,/D-*%
X97929400Y-107740000D03*
%TO.P,D1,2,A2*%
%TO.N,GND*%
X97929400Y-106770000D03*
%TD*%
D32*
%TO.P,D3,1,K*%
%TO.N,GND*%
X93500000Y-88412500D03*
%TO.P,D3,2,A*%
%TO.N,Net-(D3-A)*%
X93500000Y-89987500D03*
%TD*%
D33*
%TO.P,R7,1*%
%TO.N,/GPIO25*%
X92790000Y-91800000D03*
%TO.P,R7,2*%
%TO.N,Net-(D3-A)*%
X93810000Y-91800000D03*
%TD*%
D16*
%TO.P,C19,1*%
%TO.N,GND*%
X100550000Y-105680000D03*
%TO.P,C19,2*%
%TO.N,/+3.3V*%
X100550000Y-104720000D03*
%TD*%
D34*
%TO.N,/+3.3V*%
X107200000Y-106600000D03*
X105100000Y-100700000D03*
X96096800Y-91896800D03*
X106800000Y-95900000D03*
X95900000Y-104000000D03*
X101100000Y-104720000D03*
X95900000Y-106500000D03*
X94614513Y-91917488D03*
X106800000Y-100700000D03*
X105100000Y-95900000D03*
%TO.N,GND*%
X101500000Y-92900000D03*
X97200000Y-85800000D03*
X93300000Y-98325000D03*
X98800000Y-88100000D03*
X104435523Y-103164477D03*
X102800000Y-106200000D03*
X93000000Y-96500000D03*
X94900000Y-110000000D03*
X108200000Y-98500000D03*
X93700000Y-106400000D03*
X105600000Y-87500000D03*
X108500000Y-107200000D03*
X105525000Y-89200000D03*
X106300000Y-86200000D03*
X101100000Y-96600000D03*
X101200000Y-91055000D03*
X95200000Y-108700000D03*
X94400000Y-105705000D03*
X101600000Y-106300000D03*
X101200000Y-98700000D03*
X99300000Y-98700000D03*
X103000000Y-107125000D03*
X108600000Y-101000000D03*
X104400000Y-108600000D03*
X91600000Y-102900000D03*
X108400000Y-86900000D03*
X101100000Y-105680000D03*
X91600000Y-100400000D03*
X99200000Y-96600000D03*
X91500000Y-106300000D03*
X93700000Y-100125000D03*
X105400000Y-109800000D03*
X93700000Y-104200000D03*
X93820000Y-98900000D03*
X100200000Y-97600000D03*
X105600000Y-90900000D03*
X97400000Y-106700000D03*
X108200000Y-95700000D03*
X103270000Y-108545000D03*
X97600000Y-105705000D03*
X101800000Y-85800000D03*
X97200000Y-87500000D03*
X106800000Y-104800000D03*
X108600000Y-103700000D03*
X106500000Y-92200000D03*
X93000000Y-95200000D03*
X96100000Y-89600000D03*
X93000000Y-93800000D03*
X108400000Y-91500000D03*
X108400000Y-89200000D03*
X95100000Y-89600000D03*
X94800000Y-85800000D03*
X105100000Y-98400000D03*
X92900000Y-85800000D03*
%TO.N,/+1.1V*%
X102800000Y-104300000D03*
X94500000Y-91055000D03*
X98100000Y-104100000D03*
%TO.N,/+5V_VIN*%
X94700000Y-102500000D03*
X92800000Y-102500000D03*
%TO.N,/GPIO25*%
X95600000Y-98200000D03*
X92800000Y-92400000D03*
%TD*%
D35*
%TO.N,/+3.3V*%
X98100000Y-93100000D02*
X95200000Y-93100000D01*
D36*
X94614513Y-92514513D02*
X95000000Y-92900000D01*
X107300000Y-106500000D02*
X107200000Y-106600000D01*
D35*
X103637500Y-100200000D02*
X105085000Y-100200000D01*
X99600000Y-101037500D02*
X99600000Y-102950000D01*
X96762500Y-100200000D02*
X96000000Y-100200000D01*
X100000000Y-101037500D02*
X100000000Y-102750000D01*
D36*
X94800000Y-98400000D02*
X94865000Y-98335000D01*
D35*
X100550000Y-103900000D02*
X100550000Y-104720000D01*
D36*
X107740000Y-105960000D02*
X107920000Y-105780000D01*
X96075000Y-105735000D02*
X96075000Y-106325000D01*
D35*
X98900000Y-92200000D02*
X97270000Y-92200000D01*
D36*
X94875000Y-97325000D02*
X94875000Y-96725000D01*
D35*
X101600000Y-104350000D02*
X101600000Y-104720000D01*
D36*
X106800000Y-100700000D02*
X106800000Y-95900000D01*
X92335000Y-99435000D02*
X92075000Y-99175000D01*
D35*
X98000000Y-101037500D02*
X98000000Y-102400000D01*
X96075000Y-105735000D02*
X96110000Y-105735000D01*
X95200000Y-93100000D02*
X95000000Y-92900000D01*
D36*
X92375000Y-97475000D02*
X94725000Y-97475000D01*
D35*
X100000000Y-94162500D02*
X100000000Y-93300000D01*
X96110000Y-105735000D02*
X97100000Y-104745000D01*
D36*
X107300000Y-105960000D02*
X106615000Y-105960000D01*
X96075000Y-106325000D02*
X95900000Y-106500000D01*
X107920000Y-105780000D02*
X107920000Y-101820000D01*
X95500000Y-99700000D02*
X95750000Y-99950000D01*
X95500000Y-102100000D02*
X95900000Y-102500000D01*
X105100000Y-100185000D02*
X105100000Y-100700000D01*
D35*
X99600000Y-102950000D02*
X100550000Y-103900000D01*
D36*
X92800000Y-99435000D02*
X92335000Y-99435000D01*
D35*
X98400000Y-94162500D02*
X98400000Y-93400000D01*
D36*
X92075000Y-99175000D02*
X92075000Y-97775000D01*
D35*
X98400000Y-93400000D02*
X98100000Y-93100000D01*
D36*
X92750000Y-100925000D02*
X92750000Y-99485000D01*
X95000000Y-96600000D02*
X95000000Y-92900000D01*
X107920000Y-101820000D02*
X106800000Y-100700000D01*
X105100000Y-96600000D02*
X105100000Y-95900000D01*
X106615000Y-105960000D02*
X106375000Y-106200000D01*
X92075000Y-97775000D02*
X92375000Y-97475000D01*
D35*
X96000000Y-100200000D02*
X95750000Y-99950000D01*
X98000000Y-102400000D02*
X97100000Y-103300000D01*
X96762500Y-96600000D02*
X95000000Y-96600000D01*
D36*
X92750000Y-99485000D02*
X92800000Y-99435000D01*
D35*
X95000000Y-96600000D02*
X94875000Y-96725000D01*
D36*
X94780000Y-98325000D02*
X94825000Y-98325000D01*
X94725000Y-97475000D02*
X94865000Y-97615000D01*
X94614513Y-91917488D02*
X94614513Y-92514513D01*
D35*
X105085000Y-100200000D02*
X105100000Y-100185000D01*
X100000000Y-93300000D02*
X98900000Y-92200000D01*
D37*
X101600000Y-104720000D02*
X100550000Y-104720000D01*
D35*
X103637500Y-96600000D02*
X105100000Y-96600000D01*
D36*
X95500000Y-99000000D02*
X95500000Y-99500000D01*
X107300000Y-105960000D02*
X107300000Y-106500000D01*
X94865000Y-98335000D02*
X94865000Y-97615000D01*
X94780000Y-98380000D02*
X94800000Y-98400000D01*
X95900000Y-102500000D02*
X95900000Y-104000000D01*
D35*
X100000000Y-102750000D02*
X101600000Y-104350000D01*
X97270000Y-92200000D02*
X96150000Y-91080000D01*
X97100000Y-103300000D02*
X97100000Y-104745000D01*
D36*
X107300000Y-105960000D02*
X107740000Y-105960000D01*
X95500000Y-99500000D02*
X95500000Y-99700000D01*
X94725000Y-97475000D02*
X94875000Y-97325000D01*
X94825000Y-98325000D02*
X95500000Y-99000000D01*
X94780000Y-98325000D02*
X94780000Y-98380000D01*
X96150000Y-91080000D02*
X96150000Y-91843600D01*
X95500000Y-99500000D02*
X95500000Y-102100000D01*
X96150000Y-91843600D02*
X96096800Y-91896800D01*
D37*
%TO.N,GND*%
X102187000Y-106745000D02*
X101725000Y-106745000D01*
D36*
X95000000Y-105705000D02*
X93795000Y-105705000D01*
X93700000Y-106400000D02*
X93725000Y-106375000D01*
D38*
X105225000Y-110950000D02*
X105225000Y-112050000D01*
D36*
X95100000Y-90095000D02*
X95100000Y-89600000D01*
X100730000Y-91055000D02*
X100355000Y-90680000D01*
X105600000Y-104800000D02*
X105625000Y-104800000D01*
X93820000Y-98325000D02*
X92950000Y-98325000D01*
D37*
X103000000Y-108275000D02*
X103000000Y-107125000D01*
D38*
X107375000Y-86200000D02*
X107375000Y-92200000D01*
D36*
X104671046Y-103400000D02*
X104435523Y-103164477D01*
D37*
X103270000Y-110190000D02*
X103270000Y-108545000D01*
X101600000Y-105680000D02*
X101600000Y-106620000D01*
D38*
X104465000Y-110190000D02*
X105225000Y-110950000D01*
D37*
X98100000Y-105705000D02*
X97100000Y-105705000D01*
D38*
X107400000Y-86200000D02*
X106300000Y-86200000D01*
D36*
X95900000Y-110190000D02*
X95090000Y-110190000D01*
X102650000Y-105680000D02*
X102650000Y-106050000D01*
X104180000Y-108820000D02*
X104400000Y-108600000D01*
X93700000Y-104675000D02*
X93725000Y-104700000D01*
D37*
X102620000Y-106745000D02*
X102187000Y-106745000D01*
D36*
X95125000Y-90120000D02*
X95100000Y-90095000D01*
X95900000Y-110190000D02*
X95900000Y-109400000D01*
D35*
X101200000Y-94162500D02*
X101200000Y-96600000D01*
D36*
X104180000Y-110190000D02*
X105010000Y-110190000D01*
X96150000Y-90120000D02*
X96150000Y-89650000D01*
X95900000Y-109400000D02*
X95200000Y-108700000D01*
X97180000Y-87520000D02*
X97200000Y-87500000D01*
X104875000Y-103400000D02*
X104875000Y-104075000D01*
X93820000Y-100005000D02*
X93820000Y-99400000D01*
D35*
X101200000Y-93200000D02*
X101500000Y-92900000D01*
D36*
X97180000Y-88150000D02*
X97180000Y-87520000D01*
D35*
X97180000Y-88150000D02*
X98050000Y-88150000D01*
D38*
X107400000Y-92200000D02*
X106500000Y-92200000D01*
D36*
X105010000Y-110190000D02*
X105400000Y-109800000D01*
D37*
X94775000Y-112050000D02*
X94775000Y-111315000D01*
D36*
X93795000Y-105705000D02*
X93725000Y-105775000D01*
X93700000Y-103200000D02*
X93700000Y-100125000D01*
X93725000Y-104700000D02*
X93725000Y-105775000D01*
D37*
X93915000Y-96725000D02*
X93225000Y-96725000D01*
X93225000Y-96725000D02*
X93000000Y-96500000D01*
X103000000Y-107125000D02*
X102620000Y-106745000D01*
D36*
X102650000Y-106050000D02*
X102800000Y-106200000D01*
X93725000Y-106375000D02*
X93725000Y-105775000D01*
X104875000Y-103400000D02*
X104671046Y-103400000D01*
X93700000Y-103200000D02*
X93700000Y-104675000D01*
D37*
X97929400Y-105875600D02*
X98100000Y-105705000D01*
D36*
X97929400Y-106770000D02*
X97470000Y-106770000D01*
D37*
X103270000Y-108545000D02*
X103000000Y-108275000D01*
D35*
X98050000Y-88150000D02*
X98605000Y-88705000D01*
D36*
X93820000Y-98325000D02*
X93843866Y-98325000D01*
D35*
X101200000Y-94162500D02*
X101200000Y-93200000D01*
D36*
X104180000Y-110190000D02*
X104180000Y-108820000D01*
X96150000Y-89650000D02*
X96100000Y-89600000D01*
X95090000Y-110190000D02*
X94900000Y-110000000D01*
X104875000Y-104075000D02*
X105600000Y-104800000D01*
X101805000Y-91055000D02*
X100730000Y-91055000D01*
D37*
X104180000Y-110190000D02*
X104465000Y-110190000D01*
D38*
X94775000Y-111315000D02*
X95900000Y-110190000D01*
D37*
X104180000Y-110190000D02*
X103270000Y-110190000D01*
D35*
X98605000Y-88705000D02*
X98605000Y-89280000D01*
D36*
X96150000Y-90120000D02*
X95125000Y-90120000D01*
X105100000Y-97560000D02*
X105100000Y-99225000D01*
X93700000Y-100125000D02*
X93820000Y-100005000D01*
X97470000Y-106770000D02*
X97400000Y-106700000D01*
D37*
X101600000Y-106620000D02*
X101725000Y-106745000D01*
D36*
X105625000Y-104800000D02*
X107100000Y-104800000D01*
X98605000Y-88295000D02*
X98800000Y-88100000D01*
D37*
X101725000Y-106745000D02*
X101152600Y-106745000D01*
D35*
X101200000Y-96600000D02*
X100200000Y-97600000D01*
D37*
X97929400Y-106770000D02*
X97929400Y-105875600D01*
D36*
X107100000Y-104800000D02*
X107300000Y-105000000D01*
D37*
X102650000Y-105680000D02*
X100550000Y-105680000D01*
D35*
X101805000Y-91055000D02*
X101670000Y-91055000D01*
D37*
X101152600Y-106745000D02*
X101122600Y-106775000D01*
D36*
X92950000Y-98325000D02*
X92800000Y-98475000D01*
X93820000Y-99400000D02*
X93820000Y-98325000D01*
X98605000Y-89280000D02*
X98605000Y-88295000D01*
%TO.N,/+5V_USB*%
X96175000Y-108600000D02*
X95225000Y-107650000D01*
X98720000Y-110190000D02*
X98720000Y-109380000D01*
X98720000Y-109380000D02*
X97940000Y-108600000D01*
X95225000Y-107650000D02*
X94475000Y-107650000D01*
X97940000Y-108600000D02*
X96175000Y-108600000D01*
D35*
%TO.N,/D-*%
X98968800Y-107740000D02*
X98993800Y-107765000D01*
X99370000Y-110190000D02*
X99370000Y-108141200D01*
X97929400Y-107740000D02*
X98968800Y-107740000D01*
X99370000Y-108141200D02*
X98993800Y-107765000D01*
%TO.N,/D+*%
X100020000Y-110190000D02*
X100020000Y-107803200D01*
X101122600Y-107745000D02*
X100078200Y-107745000D01*
X100020000Y-107803200D02*
X100058200Y-107765000D01*
X100078200Y-107745000D02*
X100058200Y-107765000D01*
%TO.N,Net-(J1-A5-CC1)*%
X102187000Y-108238000D02*
X102187000Y-107765000D01*
X101800000Y-108625000D02*
X102187000Y-108238000D01*
X100670000Y-110190000D02*
X100670000Y-109205000D01*
X100670000Y-109205000D02*
X101250000Y-108625000D01*
X101250000Y-108625000D02*
X101800000Y-108625000D01*
%TO.N,/XIN*%
X99500000Y-89850000D02*
X99500000Y-91400000D01*
X99500000Y-91400000D02*
X100800000Y-92700000D01*
X100355000Y-89280000D02*
X100070000Y-89280000D01*
X100070000Y-89280000D02*
X99500000Y-89850000D01*
X100990000Y-89280000D02*
X100355000Y-89280000D01*
X101805000Y-90095000D02*
X100990000Y-89280000D01*
X100800000Y-92700000D02*
X100800000Y-94162500D01*
%TO.N,/XOUT*%
X99200000Y-91800000D02*
X100400000Y-93000000D01*
X97180000Y-91090000D02*
X97180000Y-91255000D01*
X97725000Y-91800000D02*
X99200000Y-91800000D01*
X100400000Y-93000000D02*
X100400000Y-94162500D01*
X97180000Y-91255000D02*
X97725000Y-91800000D01*
%TO.N,/DM*%
X98993800Y-103993800D02*
X98993800Y-106745000D01*
X98800000Y-103800000D02*
X98993800Y-103993800D01*
X98800000Y-101037500D02*
X98800000Y-103800000D01*
%TO.N,/DP*%
X99650000Y-103937500D02*
X99650000Y-106336800D01*
X99200000Y-101037500D02*
X99200000Y-103487500D01*
X99650000Y-106336800D02*
X100058200Y-106745000D01*
X99200000Y-103487500D02*
X99650000Y-103937500D01*
D39*
%TO.N,/QSPI_SD3*%
X100800000Y-101037500D02*
X100800000Y-102325000D01*
X103500000Y-104150000D02*
X103500000Y-106724264D01*
X105875000Y-106800000D02*
X105875000Y-106200000D01*
X103500000Y-106724264D02*
X104175736Y-107400000D01*
X102250000Y-103775000D02*
X103125000Y-103775000D01*
X103125000Y-103775000D02*
X103500000Y-104150000D01*
X105275000Y-107400000D02*
X105875000Y-106800000D01*
X100800000Y-102325000D02*
X102250000Y-103775000D01*
X104175736Y-107400000D02*
X105275000Y-107400000D01*
D35*
%TO.N,/+1.1V*%
X102650000Y-104720000D02*
X102650000Y-104450000D01*
X98700000Y-92700000D02*
X96000000Y-92700000D01*
D36*
X94500000Y-91055000D02*
X95100000Y-91055000D01*
D35*
X100400000Y-101037500D02*
X100400000Y-102470000D01*
X99600000Y-94162500D02*
X99600000Y-93600000D01*
X98400000Y-103000000D02*
X98100000Y-103300000D01*
X99600000Y-93600000D02*
X98700000Y-92700000D01*
X102650000Y-104450000D02*
X102800000Y-104300000D01*
X96000000Y-92700000D02*
X95100000Y-91800000D01*
D37*
X98100000Y-103300000D02*
X98100000Y-104745000D01*
D35*
X98400000Y-101037500D02*
X98400000Y-103000000D01*
X95100000Y-91800000D02*
X95100000Y-91055000D01*
X100400000Y-102470000D02*
X102650000Y-104720000D01*
%TO.N,Net-(C16-Pad1)*%
X98605000Y-90680000D02*
X97790000Y-90680000D01*
X97180000Y-89110000D02*
X97180000Y-90070000D01*
X97790000Y-90680000D02*
X97180000Y-90070000D01*
D39*
%TO.N,/QSPI_SCLK*%
X105375000Y-106625000D02*
X105375000Y-106200000D01*
X101200000Y-102175000D02*
X102425000Y-103400000D01*
X103875000Y-103900000D02*
X103875000Y-106475000D01*
X101200000Y-101037500D02*
X101200000Y-102175000D01*
X103375000Y-103400000D02*
X103875000Y-103900000D01*
X105000000Y-107000000D02*
X105375000Y-106625000D01*
X102425000Y-103400000D02*
X103375000Y-103400000D01*
X103875000Y-106475000D02*
X104400000Y-107000000D01*
X104400000Y-107000000D02*
X105000000Y-107000000D01*
%TO.N,/QSPI_SD0*%
X101600000Y-102050000D02*
X102625000Y-103075000D01*
X101600000Y-101037500D02*
X101600000Y-102050000D01*
X104300000Y-106000000D02*
X104500000Y-106200000D01*
X104300000Y-103800000D02*
X104300000Y-106000000D01*
X102625000Y-103075000D02*
X103575000Y-103075000D01*
X103575000Y-103075000D02*
X104300000Y-103800000D01*
X104500000Y-106200000D02*
X104875000Y-106200000D01*
D36*
%TO.N,/+5V_VIN*%
X94650000Y-102550000D02*
X94650000Y-103200000D01*
X92765000Y-104700000D02*
X92765000Y-105775000D01*
X92750000Y-103200000D02*
X92750000Y-104685000D01*
X92765000Y-107515000D02*
X92900000Y-107650000D01*
X92750000Y-102550000D02*
X92750000Y-103200000D01*
X92750000Y-104685000D02*
X92765000Y-104700000D01*
X92800000Y-102500000D02*
X92750000Y-102550000D01*
X92765000Y-105775000D02*
X92765000Y-107515000D01*
X94700000Y-102500000D02*
X94650000Y-102550000D01*
%TO.N,/3V_NR*%
X94700000Y-99480000D02*
X94700000Y-100875000D01*
X94700000Y-100875000D02*
X94650000Y-100925000D01*
X94780000Y-99400000D02*
X94700000Y-99480000D01*
D39*
%TO.N,/QSPI_SD2*%
X102000000Y-101037500D02*
X102000000Y-101875000D01*
X105375000Y-102775000D02*
X105375000Y-103400000D01*
X105200000Y-102600000D02*
X105375000Y-102775000D01*
X102000000Y-101875000D02*
X102725000Y-102600000D01*
X102725000Y-102600000D02*
X105200000Y-102600000D01*
%TO.N,/QSPI_SD1*%
X102400000Y-101700000D02*
X103000000Y-102300000D01*
X105875000Y-102675000D02*
X105875000Y-103400000D01*
X103000000Y-102300000D02*
X105500000Y-102300000D01*
X102400000Y-101037500D02*
X102400000Y-101700000D01*
X105500000Y-102300000D02*
X105875000Y-102675000D01*
%TO.N,/QSPI_SS_N*%
X102800000Y-101600000D02*
X102800000Y-101037500D01*
X106375000Y-102575000D02*
X105800000Y-102000000D01*
D36*
X106375000Y-103575000D02*
X106720000Y-103920000D01*
X106375000Y-103400000D02*
X106375000Y-103575000D01*
D39*
X103200000Y-102000000D02*
X102800000Y-101600000D01*
D36*
X106720000Y-103920000D02*
X107300000Y-103920000D01*
D39*
X105800000Y-102000000D02*
X103200000Y-102000000D01*
X106375000Y-103400000D02*
X106375000Y-102575000D01*
D35*
%TO.N,/ADC_VREF*%
X97600000Y-101037500D02*
X97600000Y-102100000D01*
X96600000Y-104190000D02*
X96075000Y-104715000D01*
X95030000Y-104715000D02*
X95000000Y-104745000D01*
X97600000Y-102100000D02*
X96600000Y-103100000D01*
X96600000Y-103100000D02*
X96600000Y-104190000D01*
X96075000Y-104715000D02*
X95030000Y-104715000D01*
%TO.N,Net-(D3-A)*%
X93810000Y-90447500D02*
X93500000Y-90137500D01*
X93810000Y-91800000D02*
X93810000Y-90447500D01*
%TO.N,/GPIO25*%
X92800000Y-91810000D02*
X92790000Y-91800000D01*
X96762500Y-98200000D02*
X95600000Y-98200000D01*
X92800000Y-92400000D02*
X92800000Y-91810000D01*
D36*
%TO.N,Net-(R6-Pad2)*%
X106000000Y-95200000D02*
X103625000Y-92825000D01*
D38*
X103625000Y-86200000D02*
X103625000Y-92200000D01*
D36*
X106000000Y-100900000D02*
X106000000Y-95200000D01*
X103625000Y-92825000D02*
X103625000Y-92200000D01*
X107300000Y-102200000D02*
X106000000Y-100900000D01*
X107300000Y-102900000D02*
X107300000Y-102200000D01*
%TD*%
%TA.AperFunction,Conductor*%
%TO.N,GND*%
G36*
X94211468Y-97895185D02*
G01*
X94257223Y-97947989D01*
X94267167Y-98017147D01*
X94264966Y-98026611D01*
X94249500Y-98124264D01*
X94249500Y-98525739D01*
X94263981Y-98617170D01*
X94263981Y-98617171D01*
X94263982Y-98617174D01*
X94263983Y-98617175D01*
X94316367Y-98719985D01*
X94320142Y-98727392D01*
X94320145Y-98727396D01*
X94367568Y-98774819D01*
X94401053Y-98836142D01*
X94396069Y-98905834D01*
X94367568Y-98950181D01*
X94320145Y-98997603D01*
X94320142Y-98997608D01*
X94263981Y-99107827D01*
X94263981Y-99107828D01*
X94249500Y-99199264D01*
X94249500Y-99600739D01*
X94263981Y-99692169D01*
X94263983Y-99692176D01*
X94285984Y-99735353D01*
X94299500Y-99791649D01*
X94299500Y-99995245D01*
X94279815Y-100062284D01*
X94263181Y-100082926D01*
X94171954Y-100174152D01*
X94171951Y-100174157D01*
X94114352Y-100287198D01*
X94099500Y-100380975D01*
X94099500Y-101469017D01*
X94108603Y-101526493D01*
X94114354Y-101562804D01*
X94171950Y-101675842D01*
X94171952Y-101675844D01*
X94171954Y-101675847D01*
X94261652Y-101765545D01*
X94261654Y-101765546D01*
X94261658Y-101765550D01*
X94374696Y-101823146D01*
X94416594Y-101829781D01*
X94479727Y-101859710D01*
X94516659Y-101919022D01*
X94515661Y-101988884D01*
X94477052Y-102047117D01*
X94464235Y-102056570D01*
X94368874Y-102117855D01*
X94274623Y-102226626D01*
X94274622Y-102226628D01*
X94214835Y-102357541D01*
X94214832Y-102357551D01*
X94212524Y-102373607D01*
X94183498Y-102437162D01*
X94177472Y-102443635D01*
X94171951Y-102449155D01*
X94114352Y-102562198D01*
X94099500Y-102655975D01*
X94099500Y-103744017D01*
X94109954Y-103810019D01*
X94114354Y-103837804D01*
X94171950Y-103950842D01*
X94171952Y-103950844D01*
X94171954Y-103950847D01*
X94261652Y-104040545D01*
X94261654Y-104040546D01*
X94261658Y-104040550D01*
X94363482Y-104092432D01*
X94374698Y-104098147D01*
X94468471Y-104112999D01*
X94468475Y-104112999D01*
X94468481Y-104113000D01*
X94470372Y-104112999D01*
X94471067Y-104113203D01*
X94473331Y-104113382D01*
X94473293Y-104113857D01*
X94537411Y-104132674D01*
X94583174Y-104185471D01*
X94593127Y-104254628D01*
X94564112Y-104318188D01*
X94558069Y-104324679D01*
X94510145Y-104372603D01*
X94510142Y-104372608D01*
X94510141Y-104372609D01*
X94492196Y-104407828D01*
X94453981Y-104482827D01*
X94453981Y-104482828D01*
X94439500Y-104574264D01*
X94439500Y-104915739D01*
X94453981Y-105007170D01*
X94453981Y-105007171D01*
X94453982Y-105007174D01*
X94453983Y-105007175D01*
X94507112Y-105111447D01*
X94510142Y-105117392D01*
X94510145Y-105117396D01*
X94597603Y-105204854D01*
X94597605Y-105204855D01*
X94597609Y-105204859D01*
X94707825Y-105261017D01*
X94707826Y-105261017D01*
X94707828Y-105261018D01*
X94742947Y-105266579D01*
X94799265Y-105275500D01*
X95200734Y-105275499D01*
X95200739Y-105275499D01*
X95200739Y-105275498D01*
X95246454Y-105268258D01*
X95292170Y-105261018D01*
X95292170Y-105261017D01*
X95292175Y-105261017D01*
X95402391Y-105204859D01*
X95402394Y-105204855D01*
X95406851Y-105202585D01*
X95475520Y-105189689D01*
X95540260Y-105215965D01*
X95580518Y-105273071D01*
X95583510Y-105342877D01*
X95574547Y-105367530D01*
X95515418Y-105488480D01*
X95515418Y-105488482D01*
X95504500Y-105563418D01*
X95504500Y-105906582D01*
X95512688Y-105962784D01*
X95515418Y-105981520D01*
X95541289Y-106034440D01*
X95553047Y-106103313D01*
X95525704Y-106167610D01*
X95523602Y-106170101D01*
X95474623Y-106226626D01*
X95474622Y-106226628D01*
X95414834Y-106357543D01*
X95394353Y-106500000D01*
X95414834Y-106642456D01*
X95460504Y-106742457D01*
X95474623Y-106773373D01*
X95568872Y-106882143D01*
X95689947Y-106959953D01*
X95689950Y-106959954D01*
X95689949Y-106959954D01*
X95828036Y-107000499D01*
X95828038Y-107000500D01*
X95828039Y-107000500D01*
X95971962Y-107000500D01*
X95971962Y-107000499D01*
X96110053Y-106959953D01*
X96231128Y-106882143D01*
X96325377Y-106773373D01*
X96385165Y-106642457D01*
X96391055Y-106601480D01*
X96403305Y-106562840D01*
X96413108Y-106543599D01*
X96423271Y-106527014D01*
X96436296Y-106509090D01*
X96443141Y-106488022D01*
X96450586Y-106470045D01*
X96460646Y-106450304D01*
X96464112Y-106428415D01*
X96468652Y-106409501D01*
X96475499Y-106388433D01*
X96475499Y-106359076D01*
X96475500Y-106359051D01*
X96475500Y-106251040D01*
X96495185Y-106184001D01*
X96511814Y-106163363D01*
X96578076Y-106097102D01*
X96578076Y-106097100D01*
X96578078Y-106097099D01*
X96626227Y-105998608D01*
X96634582Y-105981518D01*
X96645500Y-105906582D01*
X96645500Y-105746543D01*
X96665185Y-105679504D01*
X96681815Y-105658866D01*
X97028863Y-105311817D01*
X97090186Y-105278333D01*
X97116544Y-105275499D01*
X97300739Y-105275499D01*
X97300739Y-105275498D01*
X97346454Y-105268258D01*
X97392170Y-105261018D01*
X97392171Y-105261018D01*
X97392172Y-105261017D01*
X97392175Y-105261017D01*
X97502391Y-105204859D01*
X97506386Y-105200864D01*
X97512319Y-105194932D01*
X97573642Y-105161447D01*
X97643334Y-105166431D01*
X97687681Y-105194932D01*
X97697603Y-105204854D01*
X97697605Y-105204855D01*
X97697609Y-105204859D01*
X97807825Y-105261017D01*
X97807826Y-105261017D01*
X97807828Y-105261018D01*
X97842947Y-105266579D01*
X97899265Y-105275500D01*
X98300734Y-105275499D01*
X98300739Y-105275499D01*
X98300739Y-105275498D01*
X98346454Y-105268258D01*
X98392170Y-105261018D01*
X98392170Y-105261017D01*
X98392175Y-105261017D01*
X98463008Y-105224925D01*
X98531674Y-105212030D01*
X98596414Y-105238306D01*
X98636672Y-105295412D01*
X98643300Y-105335411D01*
X98643300Y-106184404D01*
X98623615Y-106251443D01*
X98588029Y-106283115D01*
X98590057Y-106285956D01*
X98581695Y-106291926D01*
X98490723Y-106382897D01*
X98490721Y-106382900D01*
X98434219Y-106498478D01*
X98434218Y-106498480D01*
X98434218Y-106498482D01*
X98423300Y-106573418D01*
X98423300Y-106916582D01*
X98432200Y-106977664D01*
X98434218Y-106991518D01*
X98481894Y-107089041D01*
X98493653Y-107157914D01*
X98466309Y-107222211D01*
X98408545Y-107261518D01*
X98338699Y-107263356D01*
X98314202Y-107253987D01*
X98226422Y-107209261D01*
X98226421Y-107209260D01*
X98226418Y-107209259D01*
X98226419Y-107209259D01*
X98133228Y-107194500D01*
X97725578Y-107194500D01*
X97632391Y-107209259D01*
X97632378Y-107209261D01*
X97520045Y-107266498D01*
X97520044Y-107266499D01*
X97520039Y-107266502D01*
X97430902Y-107355639D01*
X97430899Y-107355644D01*
X97430898Y-107355645D01*
X97413648Y-107389500D01*
X97373659Y-107467980D01*
X97358900Y-107561171D01*
X97358900Y-107918821D01*
X97367028Y-107970139D01*
X97373661Y-108012022D01*
X97377321Y-108019205D01*
X97390218Y-108087873D01*
X97363943Y-108152614D01*
X97306837Y-108192871D01*
X97266837Y-108199500D01*
X96392255Y-108199500D01*
X96325216Y-108179815D01*
X96304574Y-108163181D01*
X95484287Y-107342893D01*
X95484256Y-107342864D01*
X95463342Y-107321950D01*
X95463341Y-107321949D01*
X95443600Y-107311890D01*
X95427014Y-107301726D01*
X95409090Y-107288704D01*
X95409091Y-107288704D01*
X95388018Y-107281857D01*
X95370045Y-107274412D01*
X95350307Y-107264355D01*
X95350304Y-107264354D01*
X95328418Y-107260887D01*
X95309507Y-107256346D01*
X95288439Y-107249501D01*
X95288434Y-107249500D01*
X95288433Y-107249500D01*
X95288429Y-107249500D01*
X95226869Y-107249500D01*
X95159830Y-107229815D01*
X95114075Y-107177011D01*
X95110695Y-107168855D01*
X95109836Y-107166550D01*
X95028972Y-107058528D01*
X94920950Y-106977664D01*
X94920947Y-106977662D01*
X94794524Y-106930509D01*
X94738644Y-106924500D01*
X94738630Y-106924500D01*
X94211370Y-106924500D01*
X94211355Y-106924500D01*
X94155475Y-106930509D01*
X94029052Y-106977662D01*
X94029049Y-106977664D01*
X93921028Y-107058528D01*
X93840164Y-107166549D01*
X93840162Y-107166552D01*
X93803682Y-107264361D01*
X93761811Y-107320295D01*
X93696346Y-107344712D01*
X93628073Y-107329860D01*
X93578668Y-107280455D01*
X93571318Y-107264361D01*
X93534837Y-107166552D01*
X93534835Y-107166549D01*
X93500253Y-107120353D01*
X93453972Y-107058528D01*
X93345950Y-106977664D01*
X93345948Y-106977663D01*
X93246166Y-106940446D01*
X93190233Y-106898574D01*
X93165816Y-106833110D01*
X93165500Y-106824264D01*
X93165500Y-106288112D01*
X93185185Y-106221073D01*
X93201815Y-106200434D01*
X93224859Y-106177391D01*
X93281017Y-106067175D01*
X93281017Y-106067173D01*
X93281018Y-106067172D01*
X93281018Y-106067171D01*
X93286202Y-106034440D01*
X93295500Y-105975735D01*
X93295499Y-105574266D01*
X93295499Y-105574264D01*
X93295499Y-105574260D01*
X93281018Y-105482829D01*
X93281018Y-105482828D01*
X93281017Y-105482826D01*
X93281017Y-105482825D01*
X93224859Y-105372609D01*
X93224857Y-105372607D01*
X93224854Y-105372603D01*
X93201819Y-105349568D01*
X93168334Y-105288245D01*
X93165500Y-105261887D01*
X93165500Y-105213112D01*
X93185185Y-105146073D01*
X93201815Y-105125434D01*
X93224859Y-105102391D01*
X93281017Y-104992175D01*
X93281017Y-104992173D01*
X93281018Y-104992172D01*
X93281018Y-104992171D01*
X93286084Y-104960182D01*
X93295500Y-104900735D01*
X93295499Y-104499266D01*
X93295499Y-104499264D01*
X93295499Y-104499260D01*
X93281018Y-104407829D01*
X93281018Y-104407828D01*
X93281017Y-104407826D01*
X93281017Y-104407825D01*
X93224859Y-104297609D01*
X93224857Y-104297607D01*
X93224854Y-104297603D01*
X93186819Y-104259568D01*
X93153334Y-104198245D01*
X93150500Y-104171887D01*
X93150500Y-104079754D01*
X93170185Y-104012715D01*
X93186820Y-103992072D01*
X93228046Y-103950846D01*
X93228050Y-103950842D01*
X93285646Y-103837804D01*
X93285646Y-103837802D01*
X93285647Y-103837801D01*
X93300499Y-103744024D01*
X93300500Y-103744019D01*
X93300499Y-102655982D01*
X93294371Y-102617295D01*
X93294107Y-102580260D01*
X93305647Y-102500000D01*
X93285165Y-102357543D01*
X93225377Y-102226627D01*
X93131128Y-102117857D01*
X93010221Y-102040155D01*
X92964467Y-101987352D01*
X92954523Y-101918193D01*
X92983548Y-101854638D01*
X93020966Y-101825355D01*
X93025300Y-101823146D01*
X93025304Y-101823146D01*
X93138342Y-101765550D01*
X93228050Y-101675842D01*
X93285646Y-101562804D01*
X93285646Y-101562802D01*
X93285647Y-101562801D01*
X93300499Y-101469024D01*
X93300500Y-101469019D01*
X93300499Y-100380982D01*
X93285646Y-100287196D01*
X93228050Y-100174158D01*
X93228046Y-100174154D01*
X93228045Y-100174152D01*
X93186819Y-100132926D01*
X93153334Y-100071603D01*
X93150500Y-100045245D01*
X93150500Y-99995740D01*
X93170185Y-99928701D01*
X93195562Y-99901831D01*
X93195490Y-99901759D01*
X93198031Y-99899217D01*
X93201621Y-99895417D01*
X93202380Y-99894864D01*
X93202391Y-99894859D01*
X93289859Y-99807391D01*
X93346017Y-99697175D01*
X93346017Y-99697173D01*
X93346018Y-99697172D01*
X93346018Y-99697171D01*
X93353475Y-99650086D01*
X93360500Y-99605735D01*
X93360499Y-99264266D01*
X93360499Y-99264260D01*
X93346018Y-99172829D01*
X93346018Y-99172828D01*
X93346017Y-99172826D01*
X93346017Y-99172825D01*
X93289859Y-99062609D01*
X93289857Y-99062607D01*
X93289854Y-99062603D01*
X93202396Y-98975145D01*
X93202393Y-98975143D01*
X93202391Y-98975141D01*
X93092175Y-98918983D01*
X93092174Y-98918982D01*
X93092171Y-98918981D01*
X93000735Y-98904500D01*
X92599500Y-98904500D01*
X92532461Y-98884815D01*
X92486706Y-98832011D01*
X92475500Y-98780500D01*
X92475500Y-97999500D01*
X92495185Y-97932461D01*
X92547989Y-97886706D01*
X92599500Y-97875500D01*
X94144429Y-97875500D01*
X94211468Y-97895185D01*
G37*
%TD.AperFunction*%
%TA.AperFunction,Conductor*%
G36*
X104918999Y-102945185D02*
G01*
X104964754Y-102997989D01*
X104974182Y-103063561D01*
X104974882Y-103063617D01*
X104974637Y-103066726D01*
X104974698Y-103067147D01*
X104974502Y-103068440D01*
X104974500Y-103068474D01*
X104974500Y-103731524D01*
X104989352Y-103825301D01*
X104995722Y-103837802D01*
X105046950Y-103938342D01*
X105046952Y-103938344D01*
X105046954Y-103938347D01*
X105136652Y-104028045D01*
X105136654Y-104028046D01*
X105136658Y-104028050D01*
X105249696Y-104085646D01*
X105249697Y-104085646D01*
X105249699Y-104085647D01*
X105374997Y-104105492D01*
X105375000Y-104105492D01*
X105375003Y-104105492D01*
X105500300Y-104085647D01*
X105500302Y-104085646D01*
X105500304Y-104085646D01*
X105568704Y-104050793D01*
X105637374Y-104037897D01*
X105681294Y-104050793D01*
X105738132Y-104079754D01*
X105749696Y-104085646D01*
X105749699Y-104085647D01*
X105874997Y-104105492D01*
X105875000Y-104105492D01*
X105875003Y-104105492D01*
X106000300Y-104085647D01*
X106000302Y-104085646D01*
X106000304Y-104085646D01*
X106068704Y-104050793D01*
X106137374Y-104037897D01*
X106181291Y-104050791D01*
X106249696Y-104085646D01*
X106292548Y-104092432D01*
X106355682Y-104122361D01*
X106360815Y-104127208D01*
X106419078Y-104185471D01*
X106460996Y-104227389D01*
X106461006Y-104227398D01*
X106481658Y-104248050D01*
X106501398Y-104258108D01*
X106517987Y-104268274D01*
X106535909Y-104281295D01*
X106535910Y-104281295D01*
X106535911Y-104281296D01*
X106556980Y-104288142D01*
X106574949Y-104295584D01*
X106594696Y-104305646D01*
X106616582Y-104309112D01*
X106635497Y-104313653D01*
X106656567Y-104320500D01*
X106688481Y-104320500D01*
X106783959Y-104320500D01*
X106850998Y-104340185D01*
X106871640Y-104356819D01*
X106887897Y-104373076D01*
X106887900Y-104373078D01*
X106998656Y-104427222D01*
X107003482Y-104429582D01*
X107078418Y-104440500D01*
X107395500Y-104440500D01*
X107462539Y-104460185D01*
X107508294Y-104512989D01*
X107519500Y-104564500D01*
X107519500Y-105305500D01*
X107499815Y-105372539D01*
X107447011Y-105418294D01*
X107395500Y-105429500D01*
X107099260Y-105429500D01*
X107099260Y-105429501D01*
X107007829Y-105443981D01*
X107007828Y-105443981D01*
X106897607Y-105500142D01*
X106897603Y-105500145D01*
X106874568Y-105523181D01*
X106813245Y-105556666D01*
X106786887Y-105559500D01*
X106618678Y-105559500D01*
X106562384Y-105545985D01*
X106500300Y-105514352D01*
X106500301Y-105514352D01*
X106375003Y-105494508D01*
X106374997Y-105494508D01*
X106249699Y-105514352D01*
X106249695Y-105514353D01*
X106181294Y-105549206D01*
X106112625Y-105562102D01*
X106068706Y-105549206D01*
X106000304Y-105514353D01*
X106000300Y-105514352D01*
X105875003Y-105494508D01*
X105874997Y-105494508D01*
X105749699Y-105514352D01*
X105749695Y-105514353D01*
X105681294Y-105549206D01*
X105612625Y-105562102D01*
X105568706Y-105549206D01*
X105500304Y-105514353D01*
X105500300Y-105514352D01*
X105375003Y-105494508D01*
X105374997Y-105494508D01*
X105249699Y-105514352D01*
X105249695Y-105514353D01*
X105181294Y-105549206D01*
X105112625Y-105562102D01*
X105068706Y-105549206D01*
X105000304Y-105514353D01*
X105000300Y-105514352D01*
X104875003Y-105494508D01*
X104874997Y-105494508D01*
X104768897Y-105511312D01*
X104699604Y-105502357D01*
X104646152Y-105457361D01*
X104625513Y-105390609D01*
X104625500Y-105388839D01*
X104625500Y-103816920D01*
X104625736Y-103811513D01*
X104625867Y-103810022D01*
X104629264Y-103771193D01*
X104618782Y-103732076D01*
X104617616Y-103726818D01*
X104610588Y-103686955D01*
X104610586Y-103686952D01*
X104610586Y-103686950D01*
X104608760Y-103681933D01*
X104601820Y-103665176D01*
X104599554Y-103660319D01*
X104599554Y-103660316D01*
X104576339Y-103627162D01*
X104573433Y-103622599D01*
X104553196Y-103587548D01*
X104553195Y-103587547D01*
X104553194Y-103587545D01*
X104522177Y-103561518D01*
X104518193Y-103557867D01*
X104097507Y-103137181D01*
X104064022Y-103075858D01*
X104069006Y-103006166D01*
X104110878Y-102950233D01*
X104176342Y-102925816D01*
X104185188Y-102925500D01*
X104851960Y-102925500D01*
X104918999Y-102945185D01*
G37*
%TD.AperFunction*%
%TA.AperFunction,Conductor*%
G36*
X101283910Y-94708121D02*
G01*
X101289609Y-94714699D01*
X101289669Y-94714640D01*
X101297794Y-94722765D01*
X101377235Y-94802206D01*
X101480009Y-94847585D01*
X101505135Y-94850500D01*
X101694864Y-94850499D01*
X101719991Y-94847585D01*
X101749913Y-94834372D01*
X101819190Y-94825301D01*
X101850086Y-94834373D01*
X101880007Y-94847584D01*
X101880009Y-94847585D01*
X101905135Y-94850500D01*
X102094864Y-94850499D01*
X102119991Y-94847585D01*
X102149913Y-94834372D01*
X102219190Y-94825301D01*
X102250086Y-94834373D01*
X102280007Y-94847584D01*
X102280009Y-94847585D01*
X102305135Y-94850500D01*
X102494864Y-94850499D01*
X102519991Y-94847585D01*
X102549913Y-94834372D01*
X102619190Y-94825301D01*
X102650086Y-94834373D01*
X102680007Y-94847584D01*
X102680009Y-94847585D01*
X102705135Y-94850500D01*
X102825500Y-94850499D01*
X102892539Y-94870183D01*
X102938294Y-94922987D01*
X102949500Y-94974498D01*
X102949500Y-95094856D01*
X102949502Y-95094881D01*
X102952413Y-95119985D01*
X102952413Y-95119986D01*
X102952414Y-95119990D01*
X102952415Y-95119991D01*
X102965626Y-95149912D01*
X102965628Y-95149915D01*
X102974697Y-95219194D01*
X102965628Y-95250083D01*
X102952415Y-95280008D01*
X102949500Y-95305131D01*
X102949500Y-95494857D01*
X102949502Y-95494881D01*
X102952413Y-95519985D01*
X102952413Y-95519986D01*
X102952414Y-95519990D01*
X102952415Y-95519991D01*
X102965626Y-95549912D01*
X102965628Y-95549915D01*
X102974697Y-95619194D01*
X102965628Y-95650083D01*
X102952415Y-95680008D01*
X102949500Y-95705131D01*
X102949500Y-95894857D01*
X102949502Y-95894881D01*
X102952413Y-95919985D01*
X102952413Y-95919986D01*
X102952414Y-95919990D01*
X102952415Y-95919991D01*
X102965626Y-95949912D01*
X102965628Y-95949915D01*
X102974697Y-96019194D01*
X102965628Y-96050083D01*
X102952415Y-96080008D01*
X102949500Y-96105131D01*
X102949500Y-96294857D01*
X102949502Y-96294881D01*
X102952413Y-96319985D01*
X102952413Y-96319986D01*
X102952414Y-96319990D01*
X102952415Y-96319991D01*
X102965626Y-96349912D01*
X102965628Y-96349915D01*
X102974697Y-96419194D01*
X102965628Y-96450083D01*
X102952415Y-96480008D01*
X102949500Y-96505131D01*
X102949500Y-96694857D01*
X102949502Y-96694881D01*
X102952413Y-96719985D01*
X102952413Y-96719986D01*
X102952414Y-96719990D01*
X102952415Y-96719991D01*
X102965626Y-96749912D01*
X102965628Y-96749915D01*
X102974697Y-96819194D01*
X102965628Y-96850083D01*
X102952415Y-96880008D01*
X102949500Y-96905131D01*
X102949500Y-97094857D01*
X102949502Y-97094881D01*
X102952413Y-97119985D01*
X102952413Y-97119986D01*
X102952414Y-97119990D01*
X102952415Y-97119991D01*
X102965626Y-97149912D01*
X102965628Y-97149915D01*
X102974697Y-97219194D01*
X102965628Y-97250083D01*
X102952415Y-97280008D01*
X102949500Y-97305131D01*
X102949500Y-97494857D01*
X102949502Y-97494881D01*
X102952413Y-97519985D01*
X102952413Y-97519986D01*
X102952414Y-97519990D01*
X102952415Y-97519991D01*
X102965626Y-97549912D01*
X102965628Y-97549915D01*
X102974697Y-97619194D01*
X102965628Y-97650083D01*
X102952415Y-97680008D01*
X102949500Y-97705131D01*
X102949500Y-97894857D01*
X102949502Y-97894881D01*
X102952413Y-97919985D01*
X102952413Y-97919986D01*
X102952414Y-97919990D01*
X102952415Y-97919991D01*
X102965626Y-97949912D01*
X102965628Y-97949915D01*
X102974697Y-98019194D01*
X102965628Y-98050083D01*
X102952415Y-98080008D01*
X102949500Y-98105131D01*
X102949500Y-98294857D01*
X102949502Y-98294881D01*
X102952413Y-98319985D01*
X102952413Y-98319986D01*
X102952414Y-98319990D01*
X102952415Y-98319991D01*
X102965626Y-98349912D01*
X102965628Y-98349915D01*
X102974697Y-98419194D01*
X102965628Y-98450083D01*
X102952415Y-98480008D01*
X102949500Y-98505131D01*
X102949500Y-98694857D01*
X102949502Y-98694881D01*
X102952413Y-98719985D01*
X102952413Y-98719986D01*
X102952414Y-98719990D01*
X102952415Y-98719991D01*
X102965626Y-98749912D01*
X102965628Y-98749915D01*
X102974697Y-98819194D01*
X102965628Y-98850083D01*
X102952415Y-98880008D01*
X102949500Y-98905131D01*
X102949500Y-99094857D01*
X102949502Y-99094881D01*
X102952413Y-99119985D01*
X102952413Y-99119986D01*
X102952414Y-99119990D01*
X102952415Y-99119991D01*
X102965626Y-99149912D01*
X102965628Y-99149915D01*
X102974697Y-99219194D01*
X102965628Y-99250083D01*
X102952415Y-99280008D01*
X102949500Y-99305131D01*
X102949500Y-99494857D01*
X102949502Y-99494881D01*
X102952413Y-99519985D01*
X102952413Y-99519986D01*
X102952414Y-99519990D01*
X102952415Y-99519991D01*
X102965626Y-99549912D01*
X102965628Y-99549915D01*
X102974697Y-99619194D01*
X102965628Y-99650083D01*
X102952415Y-99680008D01*
X102949500Y-99705131D01*
X102949500Y-99894857D01*
X102949502Y-99894881D01*
X102952413Y-99919985D01*
X102952413Y-99919986D01*
X102952414Y-99919990D01*
X102952415Y-99919991D01*
X102965626Y-99949912D01*
X102965628Y-99949915D01*
X102974697Y-100019194D01*
X102965628Y-100050083D01*
X102952415Y-100080008D01*
X102949500Y-100105131D01*
X102949500Y-100225500D01*
X102929815Y-100292539D01*
X102877011Y-100338294D01*
X102825501Y-100349500D01*
X102705143Y-100349500D01*
X102705118Y-100349502D01*
X102680014Y-100352413D01*
X102680010Y-100352414D01*
X102650083Y-100365628D01*
X102580804Y-100374697D01*
X102549915Y-100365627D01*
X102519992Y-100352415D01*
X102494865Y-100349500D01*
X102305142Y-100349500D01*
X102305118Y-100349502D01*
X102280014Y-100352413D01*
X102280010Y-100352414D01*
X102250083Y-100365628D01*
X102180804Y-100374697D01*
X102149915Y-100365627D01*
X102119992Y-100352415D01*
X102094865Y-100349500D01*
X101905142Y-100349500D01*
X101905118Y-100349502D01*
X101880014Y-100352413D01*
X101880010Y-100352414D01*
X101850083Y-100365628D01*
X101780804Y-100374697D01*
X101749915Y-100365627D01*
X101719992Y-100352415D01*
X101694865Y-100349500D01*
X101505142Y-100349500D01*
X101505118Y-100349502D01*
X101480014Y-100352413D01*
X101480010Y-100352414D01*
X101450083Y-100365628D01*
X101380804Y-100374697D01*
X101349915Y-100365627D01*
X101319992Y-100352415D01*
X101294865Y-100349500D01*
X101105142Y-100349500D01*
X101105118Y-100349502D01*
X101080014Y-100352413D01*
X101080010Y-100352414D01*
X101050083Y-100365628D01*
X100980804Y-100374697D01*
X100949915Y-100365627D01*
X100919992Y-100352415D01*
X100894865Y-100349500D01*
X100705142Y-100349500D01*
X100705118Y-100349502D01*
X100680014Y-100352413D01*
X100680010Y-100352414D01*
X100650083Y-100365628D01*
X100580804Y-100374697D01*
X100549915Y-100365627D01*
X100519992Y-100352415D01*
X100494865Y-100349500D01*
X100305142Y-100349500D01*
X100305118Y-100349502D01*
X100280014Y-100352413D01*
X100280010Y-100352414D01*
X100250083Y-100365628D01*
X100180804Y-100374697D01*
X100149915Y-100365627D01*
X100119992Y-100352415D01*
X100094865Y-100349500D01*
X99905142Y-100349500D01*
X99905118Y-100349502D01*
X99880014Y-100352413D01*
X99880010Y-100352414D01*
X99850083Y-100365628D01*
X99780804Y-100374697D01*
X99749915Y-100365627D01*
X99719992Y-100352415D01*
X99694865Y-100349500D01*
X99505142Y-100349500D01*
X99505118Y-100349502D01*
X99480014Y-100352413D01*
X99480010Y-100352414D01*
X99450083Y-100365628D01*
X99380804Y-100374697D01*
X99349915Y-100365627D01*
X99319992Y-100352415D01*
X99294865Y-100349500D01*
X99105142Y-100349500D01*
X99105118Y-100349502D01*
X99080014Y-100352413D01*
X99080010Y-100352414D01*
X99050083Y-100365628D01*
X98980804Y-100374697D01*
X98949915Y-100365627D01*
X98919992Y-100352415D01*
X98894865Y-100349500D01*
X98705142Y-100349500D01*
X98705118Y-100349502D01*
X98680014Y-100352413D01*
X98680010Y-100352414D01*
X98650083Y-100365628D01*
X98580804Y-100374697D01*
X98549915Y-100365627D01*
X98519992Y-100352415D01*
X98494865Y-100349500D01*
X98305142Y-100349500D01*
X98305118Y-100349502D01*
X98280014Y-100352413D01*
X98280010Y-100352414D01*
X98250083Y-100365628D01*
X98180804Y-100374697D01*
X98149915Y-100365627D01*
X98119992Y-100352415D01*
X98094865Y-100349500D01*
X97905142Y-100349500D01*
X97905118Y-100349502D01*
X97880014Y-100352413D01*
X97880010Y-100352414D01*
X97850083Y-100365628D01*
X97780804Y-100374697D01*
X97749915Y-100365627D01*
X97719992Y-100352415D01*
X97694868Y-100349500D01*
X97574499Y-100349500D01*
X97507460Y-100329815D01*
X97461705Y-100277011D01*
X97450499Y-100225502D01*
X97450499Y-100105136D01*
X97447585Y-100080009D01*
X97439759Y-100062284D01*
X97434373Y-100050086D01*
X97425301Y-99980808D01*
X97434374Y-99949912D01*
X97447584Y-99919995D01*
X97447584Y-99919994D01*
X97447584Y-99919993D01*
X97447585Y-99919991D01*
X97450500Y-99894865D01*
X97450499Y-99705136D01*
X97447585Y-99680009D01*
X97436322Y-99654501D01*
X97434373Y-99650086D01*
X97425301Y-99580808D01*
X97434374Y-99549912D01*
X97447584Y-99519995D01*
X97447584Y-99519994D01*
X97447584Y-99519993D01*
X97447585Y-99519991D01*
X97450500Y-99494865D01*
X97450499Y-99305136D01*
X97447585Y-99280009D01*
X97440631Y-99264260D01*
X97434373Y-99250086D01*
X97425301Y-99180808D01*
X97434374Y-99149912D01*
X97447584Y-99119995D01*
X97447584Y-99119994D01*
X97447584Y-99119993D01*
X97447585Y-99119991D01*
X97450500Y-99094865D01*
X97450499Y-98905136D01*
X97447585Y-98880009D01*
X97439854Y-98862500D01*
X97434373Y-98850086D01*
X97425301Y-98780808D01*
X97434374Y-98749912D01*
X97447584Y-98719995D01*
X97447584Y-98719994D01*
X97447584Y-98719993D01*
X97447585Y-98719991D01*
X97450500Y-98694865D01*
X97450499Y-98505136D01*
X97447585Y-98480009D01*
X97440681Y-98464374D01*
X97434373Y-98450086D01*
X97425301Y-98380808D01*
X97434374Y-98349912D01*
X97447584Y-98319995D01*
X97447584Y-98319994D01*
X97447584Y-98319993D01*
X97447585Y-98319991D01*
X97450500Y-98294865D01*
X97450499Y-98105136D01*
X97447585Y-98080009D01*
X97440681Y-98064374D01*
X97434373Y-98050086D01*
X97425301Y-97980808D01*
X97434374Y-97949912D01*
X97447584Y-97919995D01*
X97447584Y-97919994D01*
X97447584Y-97919993D01*
X97447585Y-97919991D01*
X97450500Y-97894865D01*
X97450499Y-97705136D01*
X97447585Y-97680009D01*
X97440681Y-97664374D01*
X97434373Y-97650086D01*
X97425301Y-97580808D01*
X97434374Y-97549912D01*
X97447584Y-97519995D01*
X97447584Y-97519994D01*
X97447584Y-97519993D01*
X97447585Y-97519991D01*
X97450500Y-97494865D01*
X97450499Y-97305136D01*
X97447585Y-97280009D01*
X97439442Y-97261567D01*
X97434373Y-97250086D01*
X97425301Y-97180808D01*
X97434374Y-97149912D01*
X97447584Y-97119995D01*
X97447584Y-97119994D01*
X97447584Y-97119993D01*
X97447585Y-97119991D01*
X97450500Y-97094865D01*
X97450499Y-96905136D01*
X97447585Y-96880009D01*
X97440681Y-96864374D01*
X97434373Y-96850086D01*
X97425301Y-96780808D01*
X97434374Y-96749912D01*
X97447584Y-96719995D01*
X97447584Y-96719994D01*
X97447584Y-96719993D01*
X97447585Y-96719991D01*
X97450500Y-96694865D01*
X97450499Y-96505136D01*
X97447585Y-96480009D01*
X97440681Y-96464374D01*
X97434373Y-96450086D01*
X97425301Y-96380808D01*
X97434374Y-96349912D01*
X97447584Y-96319995D01*
X97447584Y-96319994D01*
X97447584Y-96319993D01*
X97447585Y-96319991D01*
X97450500Y-96294865D01*
X97450499Y-96105136D01*
X97447585Y-96080009D01*
X97440681Y-96064374D01*
X97434373Y-96050086D01*
X97425301Y-95980808D01*
X97434374Y-95949912D01*
X97447584Y-95919995D01*
X97447584Y-95919994D01*
X97447584Y-95919993D01*
X97447585Y-95919991D01*
X97450500Y-95894865D01*
X97450499Y-95705136D01*
X97447585Y-95680009D01*
X97440681Y-95664374D01*
X97434373Y-95650086D01*
X97425301Y-95580808D01*
X97434374Y-95549912D01*
X97447584Y-95519995D01*
X97447584Y-95519994D01*
X97447584Y-95519993D01*
X97447585Y-95519991D01*
X97450500Y-95494865D01*
X97450499Y-95305136D01*
X97447585Y-95280009D01*
X97440681Y-95264374D01*
X97434373Y-95250086D01*
X97425301Y-95180808D01*
X97434374Y-95149912D01*
X97447584Y-95119995D01*
X97447584Y-95119994D01*
X97447584Y-95119993D01*
X97447585Y-95119991D01*
X97450500Y-95094865D01*
X97450499Y-94974498D01*
X97470183Y-94907460D01*
X97522987Y-94861705D01*
X97574496Y-94850499D01*
X97694864Y-94850499D01*
X97719991Y-94847585D01*
X97749913Y-94834372D01*
X97819190Y-94825301D01*
X97850086Y-94834373D01*
X97880007Y-94847584D01*
X97880009Y-94847585D01*
X97905135Y-94850500D01*
X98094864Y-94850499D01*
X98119991Y-94847585D01*
X98149913Y-94834372D01*
X98219190Y-94825301D01*
X98250086Y-94834373D01*
X98280007Y-94847584D01*
X98280009Y-94847585D01*
X98305135Y-94850500D01*
X98494864Y-94850499D01*
X98519991Y-94847585D01*
X98549913Y-94834372D01*
X98619190Y-94825301D01*
X98650086Y-94834373D01*
X98680007Y-94847584D01*
X98680009Y-94847585D01*
X98705135Y-94850500D01*
X98894864Y-94850499D01*
X98919991Y-94847585D01*
X98949913Y-94834372D01*
X99019190Y-94825301D01*
X99050086Y-94834373D01*
X99080007Y-94847584D01*
X99080009Y-94847585D01*
X99105135Y-94850500D01*
X99294864Y-94850499D01*
X99319991Y-94847585D01*
X99349913Y-94834372D01*
X99419190Y-94825301D01*
X99450086Y-94834373D01*
X99480007Y-94847584D01*
X99480009Y-94847585D01*
X99505135Y-94850500D01*
X99694864Y-94850499D01*
X99719991Y-94847585D01*
X99749913Y-94834372D01*
X99819190Y-94825301D01*
X99850086Y-94834373D01*
X99880007Y-94847584D01*
X99880009Y-94847585D01*
X99905135Y-94850500D01*
X100094864Y-94850499D01*
X100119991Y-94847585D01*
X100149913Y-94834372D01*
X100219190Y-94825301D01*
X100250086Y-94834373D01*
X100280007Y-94847584D01*
X100280009Y-94847585D01*
X100305135Y-94850500D01*
X100494864Y-94850499D01*
X100519991Y-94847585D01*
X100549913Y-94834372D01*
X100619190Y-94825301D01*
X100650086Y-94834373D01*
X100680007Y-94847584D01*
X100680009Y-94847585D01*
X100705135Y-94850500D01*
X100894864Y-94850499D01*
X100919991Y-94847585D01*
X101022765Y-94802206D01*
X101102206Y-94722765D01*
X101102206Y-94722764D01*
X101110331Y-94714640D01*
X101112749Y-94717058D01*
X101151810Y-94685165D01*
X101221230Y-94677249D01*
X101283910Y-94708121D01*
G37*
%TD.AperFunction*%
%TA.AperFunction,Conductor*%
G36*
X104603926Y-96970185D02*
G01*
X104624568Y-96986819D01*
X104697603Y-97059854D01*
X104697605Y-97059855D01*
X104697609Y-97059859D01*
X104807825Y-97116017D01*
X104807826Y-97116017D01*
X104807828Y-97116018D01*
X104842947Y-97121579D01*
X104899265Y-97130500D01*
X105300734Y-97130499D01*
X105300739Y-97130499D01*
X105300739Y-97130498D01*
X105346454Y-97123258D01*
X105392170Y-97116018D01*
X105392170Y-97116017D01*
X105392175Y-97116017D01*
X105419207Y-97102243D01*
X105487872Y-97089347D01*
X105552613Y-97115622D01*
X105592871Y-97172728D01*
X105599500Y-97212728D01*
X105599500Y-99572270D01*
X105579815Y-99639309D01*
X105527011Y-99685064D01*
X105457853Y-99695008D01*
X105419207Y-99682756D01*
X105392173Y-99668982D01*
X105392171Y-99668981D01*
X105300735Y-99654500D01*
X104899260Y-99654500D01*
X104899260Y-99654501D01*
X104807829Y-99668981D01*
X104807828Y-99668981D01*
X104697607Y-99725142D01*
X104697603Y-99725145D01*
X104609568Y-99813181D01*
X104548245Y-99846666D01*
X104521887Y-99849500D01*
X104449499Y-99849500D01*
X104382460Y-99829815D01*
X104336705Y-99777011D01*
X104325499Y-99725500D01*
X104325499Y-99705142D01*
X104325498Y-99705135D01*
X104322585Y-99680009D01*
X104311322Y-99654501D01*
X104309373Y-99650086D01*
X104300301Y-99580808D01*
X104309374Y-99549912D01*
X104322584Y-99519995D01*
X104322584Y-99519994D01*
X104322584Y-99519993D01*
X104322585Y-99519991D01*
X104325500Y-99494865D01*
X104325499Y-99305136D01*
X104322585Y-99280009D01*
X104315631Y-99264260D01*
X104309373Y-99250086D01*
X104300301Y-99180808D01*
X104309374Y-99149912D01*
X104322584Y-99119995D01*
X104322584Y-99119994D01*
X104322584Y-99119993D01*
X104322585Y-99119991D01*
X104325500Y-99094865D01*
X104325499Y-98905136D01*
X104322585Y-98880009D01*
X104314854Y-98862500D01*
X104309373Y-98850086D01*
X104300301Y-98780808D01*
X104309374Y-98749912D01*
X104322584Y-98719995D01*
X104322584Y-98719994D01*
X104322584Y-98719993D01*
X104322585Y-98719991D01*
X104325500Y-98694865D01*
X104325499Y-98505136D01*
X104322585Y-98480009D01*
X104315681Y-98464374D01*
X104309373Y-98450086D01*
X104300301Y-98380808D01*
X104309374Y-98349912D01*
X104322584Y-98319995D01*
X104322584Y-98319994D01*
X104322584Y-98319993D01*
X104322585Y-98319991D01*
X104325500Y-98294865D01*
X104325499Y-98105136D01*
X104322585Y-98080009D01*
X104315681Y-98064374D01*
X104309373Y-98050086D01*
X104300301Y-97980808D01*
X104309374Y-97949912D01*
X104322584Y-97919995D01*
X104322584Y-97919994D01*
X104322584Y-97919993D01*
X104322585Y-97919991D01*
X104325500Y-97894865D01*
X104325499Y-97705136D01*
X104322585Y-97680009D01*
X104315681Y-97664374D01*
X104309373Y-97650086D01*
X104300301Y-97580808D01*
X104309374Y-97549912D01*
X104322584Y-97519995D01*
X104322584Y-97519994D01*
X104322584Y-97519993D01*
X104322585Y-97519991D01*
X104325500Y-97494865D01*
X104325499Y-97305136D01*
X104322585Y-97280009D01*
X104314442Y-97261567D01*
X104309373Y-97250086D01*
X104300301Y-97180808D01*
X104309374Y-97149912D01*
X104322584Y-97119995D01*
X104322584Y-97119994D01*
X104322584Y-97119993D01*
X104322585Y-97119991D01*
X104325500Y-97094865D01*
X104325500Y-97074500D01*
X104345185Y-97007461D01*
X104397989Y-96961706D01*
X104449500Y-96950500D01*
X104536887Y-96950500D01*
X104603926Y-96970185D01*
G37*
%TD.AperFunction*%
%TA.AperFunction,Conductor*%
G36*
X108842539Y-85130185D02*
G01*
X108888294Y-85182989D01*
X108899500Y-85234500D01*
X108899500Y-114785500D01*
X108879815Y-114852539D01*
X108827011Y-114898294D01*
X108775500Y-114909500D01*
X104524500Y-114909500D01*
X104457461Y-114889815D01*
X104411706Y-114837011D01*
X104400500Y-114785500D01*
X104400500Y-111477347D01*
X104399601Y-111474581D01*
X104387200Y-111450242D01*
X104383783Y-111445539D01*
X104364463Y-111426219D01*
X104362112Y-111424511D01*
X104362112Y-111424510D01*
X104362110Y-111424509D01*
X104359761Y-111422802D01*
X104335416Y-111410397D01*
X104332656Y-111409500D01*
X104332654Y-111409500D01*
X104315917Y-111409500D01*
X95732654Y-111409500D01*
X95667346Y-111409500D01*
X95664591Y-111410395D01*
X95640236Y-111422803D01*
X95635543Y-111426213D01*
X95616213Y-111445543D01*
X95612803Y-111450236D01*
X95600395Y-111474591D01*
X95599500Y-111477346D01*
X95599500Y-114785500D01*
X95579815Y-114852539D01*
X95527011Y-114898294D01*
X95475500Y-114909500D01*
X91224500Y-114909500D01*
X91157461Y-114889815D01*
X91111706Y-114837011D01*
X91100500Y-114785500D01*
X91100500Y-99238429D01*
X91674500Y-99238429D01*
X91674501Y-99238439D01*
X91681346Y-99259507D01*
X91685887Y-99278418D01*
X91689354Y-99300304D01*
X91689355Y-99300307D01*
X91699412Y-99320045D01*
X91706857Y-99338018D01*
X91713704Y-99359090D01*
X91726726Y-99377014D01*
X91736890Y-99393600D01*
X91746950Y-99413342D01*
X91767864Y-99434256D01*
X91767893Y-99434287D01*
X92076225Y-99742619D01*
X92076247Y-99742639D01*
X92096658Y-99763050D01*
X92116389Y-99773103D01*
X92132976Y-99783266D01*
X92150911Y-99796297D01*
X92171985Y-99803144D01*
X92189953Y-99810586D01*
X92209696Y-99820646D01*
X92231582Y-99824112D01*
X92250489Y-99828651D01*
X92263821Y-99832983D01*
X92321496Y-99872422D01*
X92348692Y-99936782D01*
X92349500Y-99950913D01*
X92349500Y-100045245D01*
X92329815Y-100112284D01*
X92313181Y-100132926D01*
X92271954Y-100174152D01*
X92271951Y-100174157D01*
X92214352Y-100287198D01*
X92199500Y-100380975D01*
X92199500Y-101469017D01*
X92208603Y-101526493D01*
X92214354Y-101562804D01*
X92271950Y-101675842D01*
X92271952Y-101675844D01*
X92271954Y-101675847D01*
X92361652Y-101765545D01*
X92361654Y-101765546D01*
X92361658Y-101765550D01*
X92474696Y-101823146D01*
X92516594Y-101829781D01*
X92579727Y-101859710D01*
X92616659Y-101919022D01*
X92615661Y-101988884D01*
X92577052Y-102047117D01*
X92564235Y-102056570D01*
X92468874Y-102117855D01*
X92374623Y-102226626D01*
X92374622Y-102226628D01*
X92314835Y-102357541D01*
X92314832Y-102357551D01*
X92312524Y-102373607D01*
X92283498Y-102437162D01*
X92277472Y-102443635D01*
X92271951Y-102449155D01*
X92214352Y-102562198D01*
X92199500Y-102655975D01*
X92199500Y-103744017D01*
X92209954Y-103810019D01*
X92214354Y-103837804D01*
X92271950Y-103950842D01*
X92271952Y-103950844D01*
X92271953Y-103950846D01*
X92313180Y-103992072D01*
X92346666Y-104053395D01*
X92349500Y-104079754D01*
X92349500Y-104201887D01*
X92329815Y-104268926D01*
X92313181Y-104289568D01*
X92305145Y-104297603D01*
X92305143Y-104297607D01*
X92305141Y-104297609D01*
X92291348Y-104324679D01*
X92248981Y-104407827D01*
X92248981Y-104407828D01*
X92234500Y-104499264D01*
X92234500Y-104900739D01*
X92248981Y-104992170D01*
X92248981Y-104992171D01*
X92248982Y-104992174D01*
X92248983Y-104992175D01*
X92305141Y-105102391D01*
X92328181Y-105125431D01*
X92361666Y-105186752D01*
X92364500Y-105213112D01*
X92364500Y-105261887D01*
X92344815Y-105328926D01*
X92328181Y-105349568D01*
X92305145Y-105372603D01*
X92305143Y-105372607D01*
X92305141Y-105372609D01*
X92295970Y-105390609D01*
X92248981Y-105482827D01*
X92248981Y-105482828D01*
X92234500Y-105574264D01*
X92234500Y-105975739D01*
X92248981Y-106067170D01*
X92248981Y-106067171D01*
X92248982Y-106067174D01*
X92248983Y-106067175D01*
X92305141Y-106177391D01*
X92328181Y-106200431D01*
X92361666Y-106261752D01*
X92364500Y-106288112D01*
X92364500Y-106992581D01*
X92344815Y-107059620D01*
X92339767Y-107066891D01*
X92265166Y-107166546D01*
X92265162Y-107166552D01*
X92218009Y-107292975D01*
X92212000Y-107348855D01*
X92212000Y-107951144D01*
X92218009Y-108007024D01*
X92265162Y-108133447D01*
X92265164Y-108133450D01*
X92346028Y-108241472D01*
X92431139Y-108305185D01*
X92454049Y-108322335D01*
X92454052Y-108322337D01*
X92580475Y-108369490D01*
X92580478Y-108369491D01*
X92609818Y-108372645D01*
X92636355Y-108375499D01*
X92636370Y-108375500D01*
X93163630Y-108375500D01*
X93163644Y-108375499D01*
X93185523Y-108373146D01*
X93219522Y-108369491D01*
X93345950Y-108322336D01*
X93453972Y-108241472D01*
X93534836Y-108133450D01*
X93571318Y-108035638D01*
X93613189Y-107979704D01*
X93678653Y-107955287D01*
X93746926Y-107970139D01*
X93796332Y-108019544D01*
X93803682Y-108035638D01*
X93840162Y-108133447D01*
X93840164Y-108133450D01*
X93921028Y-108241472D01*
X94006139Y-108305185D01*
X94029049Y-108322335D01*
X94029052Y-108322337D01*
X94155475Y-108369490D01*
X94155478Y-108369491D01*
X94184818Y-108372645D01*
X94211355Y-108375499D01*
X94211370Y-108375500D01*
X94738630Y-108375500D01*
X94738644Y-108375499D01*
X94760523Y-108373146D01*
X94794522Y-108369491D01*
X94920950Y-108322336D01*
X95028972Y-108241472D01*
X95037871Y-108229583D01*
X95093801Y-108187713D01*
X95163492Y-108182726D01*
X95224816Y-108216209D01*
X95224819Y-108216212D01*
X95915986Y-108907380D01*
X95916006Y-108907398D01*
X95936658Y-108928050D01*
X95956394Y-108938106D01*
X95972982Y-108948271D01*
X95990910Y-108961296D01*
X96011979Y-108968141D01*
X96029958Y-108975588D01*
X96049696Y-108985646D01*
X96071578Y-108989111D01*
X96090491Y-108993652D01*
X96111567Y-109000500D01*
X96143481Y-109000500D01*
X97722745Y-109000500D01*
X97789784Y-109020185D01*
X97810426Y-109036819D01*
X97847912Y-109074305D01*
X97881397Y-109135628D01*
X97876413Y-109205320D01*
X97834541Y-109261253D01*
X97784425Y-109283603D01*
X97770285Y-109286416D01*
X97769464Y-109282291D01*
X97722897Y-109287264D01*
X97719733Y-109286335D01*
X97719717Y-109286416D01*
X97634676Y-109269500D01*
X97634674Y-109269500D01*
X97205326Y-109269500D01*
X97205323Y-109269500D01*
X97132264Y-109284032D01*
X97132260Y-109284033D01*
X97049399Y-109339399D01*
X96994033Y-109422260D01*
X96994032Y-109422264D01*
X96979500Y-109495321D01*
X96979500Y-110884678D01*
X96994032Y-110957735D01*
X96994033Y-110957739D01*
X96994034Y-110957740D01*
X97049399Y-111040601D01*
X97127387Y-111092710D01*
X97132260Y-111095966D01*
X97132264Y-111095967D01*
X97205321Y-111110499D01*
X97205324Y-111110500D01*
X97205326Y-111110500D01*
X97634676Y-111110500D01*
X97634677Y-111110499D01*
X97651719Y-111107109D01*
X97719719Y-111093584D01*
X97720541Y-111097720D01*
X97766968Y-111092710D01*
X97770262Y-111093677D01*
X97770281Y-111093584D01*
X97855321Y-111110499D01*
X97855324Y-111110500D01*
X97855326Y-111110500D01*
X98284676Y-111110500D01*
X98284677Y-111110499D01*
X98301719Y-111107109D01*
X98369719Y-111093584D01*
X98370541Y-111097720D01*
X98416968Y-111092710D01*
X98420262Y-111093677D01*
X98420281Y-111093584D01*
X98505321Y-111110499D01*
X98505324Y-111110500D01*
X98505326Y-111110500D01*
X98934676Y-111110500D01*
X98934677Y-111110499D01*
X98951719Y-111107109D01*
X99019719Y-111093584D01*
X99020541Y-111097720D01*
X99066968Y-111092710D01*
X99070262Y-111093677D01*
X99070281Y-111093584D01*
X99155321Y-111110499D01*
X99155324Y-111110500D01*
X99155326Y-111110500D01*
X99584676Y-111110500D01*
X99584677Y-111110499D01*
X99601719Y-111107109D01*
X99669719Y-111093584D01*
X99670541Y-111097720D01*
X99716968Y-111092710D01*
X99720262Y-111093677D01*
X99720281Y-111093584D01*
X99805321Y-111110499D01*
X99805324Y-111110500D01*
X99805326Y-111110500D01*
X100234676Y-111110500D01*
X100234677Y-111110499D01*
X100251719Y-111107109D01*
X100319719Y-111093584D01*
X100320242Y-111096215D01*
X100372009Y-111090647D01*
X100385646Y-111094651D01*
X100465321Y-111110499D01*
X100465324Y-111110500D01*
X100465326Y-111110500D01*
X100874676Y-111110500D01*
X100874677Y-111110499D01*
X100947740Y-111095966D01*
X101030601Y-111040601D01*
X101085966Y-110957740D01*
X101100499Y-110884678D01*
X101529500Y-110884678D01*
X101544032Y-110957735D01*
X101544033Y-110957739D01*
X101544034Y-110957740D01*
X101599399Y-111040601D01*
X101677387Y-111092710D01*
X101682260Y-111095966D01*
X101682264Y-111095967D01*
X101755321Y-111110499D01*
X101755324Y-111110500D01*
X101755326Y-111110500D01*
X102184676Y-111110500D01*
X102184677Y-111110499D01*
X102201719Y-111107109D01*
X102269719Y-111093584D01*
X102270541Y-111097720D01*
X102316968Y-111092710D01*
X102320262Y-111093677D01*
X102320281Y-111093584D01*
X102405321Y-111110499D01*
X102405324Y-111110500D01*
X102405326Y-111110500D01*
X102834676Y-111110500D01*
X102834677Y-111110499D01*
X102907740Y-111095966D01*
X102990601Y-111040601D01*
X103045966Y-110957740D01*
X103060500Y-110884674D01*
X103060500Y-109495326D01*
X103060500Y-109495323D01*
X103060499Y-109495321D01*
X103045967Y-109422264D01*
X103045966Y-109422260D01*
X103037959Y-109410277D01*
X102990601Y-109339399D01*
X102917211Y-109290362D01*
X102907739Y-109284033D01*
X102907735Y-109284032D01*
X102834677Y-109269500D01*
X102834674Y-109269500D01*
X102405326Y-109269500D01*
X102405324Y-109269500D01*
X102320283Y-109286416D01*
X102319462Y-109282291D01*
X102272897Y-109287264D01*
X102269733Y-109286335D01*
X102269717Y-109286416D01*
X102184676Y-109269500D01*
X102184674Y-109269500D01*
X101755326Y-109269500D01*
X101755323Y-109269500D01*
X101682264Y-109284032D01*
X101682260Y-109284033D01*
X101599399Y-109339399D01*
X101544033Y-109422260D01*
X101544032Y-109422264D01*
X101529500Y-109495321D01*
X101529500Y-110884678D01*
X101100499Y-110884678D01*
X101100500Y-110884674D01*
X101100500Y-109495326D01*
X101100500Y-109495323D01*
X101085966Y-109422259D01*
X101081293Y-109410977D01*
X101082981Y-109410277D01*
X101066532Y-109357742D01*
X101085017Y-109290362D01*
X101102827Y-109267853D01*
X101358862Y-109011819D01*
X101420185Y-108978334D01*
X101446543Y-108975500D01*
X101750789Y-108975500D01*
X101776234Y-108978138D01*
X101785315Y-108980043D01*
X101801005Y-108978087D01*
X101817939Y-108975977D01*
X101825615Y-108975500D01*
X101829035Y-108975500D01*
X101829040Y-108975500D01*
X101832608Y-108974904D01*
X101850539Y-108971913D01*
X101877958Y-108968494D01*
X101901393Y-108965573D01*
X101901402Y-108965568D01*
X101908451Y-108963470D01*
X101915377Y-108961092D01*
X101915381Y-108961092D01*
X101960444Y-108936704D01*
X102006484Y-108914198D01*
X102006487Y-108914194D01*
X102012453Y-108909935D01*
X102018254Y-108905419D01*
X102018258Y-108905418D01*
X102052957Y-108867724D01*
X102400046Y-108520634D01*
X102419902Y-108504511D01*
X102427669Y-108499437D01*
X102447873Y-108473477D01*
X102452941Y-108467739D01*
X102455376Y-108465306D01*
X102459162Y-108460002D01*
X102468048Y-108447558D01*
X102499513Y-108407131D01*
X102499512Y-108407131D01*
X102499517Y-108407126D01*
X102499519Y-108407119D01*
X102502982Y-108400718D01*
X102503021Y-108400640D01*
X102503063Y-108400561D01*
X102506242Y-108394061D01*
X102520861Y-108344956D01*
X102534371Y-108305601D01*
X102537500Y-108296488D01*
X102537500Y-108296484D01*
X102540745Y-108287032D01*
X102581129Y-108230016D01*
X102591674Y-108223379D01*
X102599103Y-108218075D01*
X102690076Y-108127102D01*
X102690078Y-108127099D01*
X102742658Y-108019544D01*
X102746582Y-108011518D01*
X102757500Y-107936582D01*
X102757500Y-107593418D01*
X102746582Y-107518482D01*
X102710295Y-107444256D01*
X102690078Y-107402900D01*
X102690076Y-107402897D01*
X102599102Y-107311923D01*
X102599099Y-107311921D01*
X102483521Y-107255419D01*
X102483519Y-107255418D01*
X102483518Y-107255418D01*
X102408582Y-107244500D01*
X101965418Y-107244500D01*
X101890482Y-107255418D01*
X101890480Y-107255418D01*
X101890478Y-107255419D01*
X101774900Y-107311921D01*
X101774896Y-107311924D01*
X101761318Y-107325502D01*
X101699994Y-107358986D01*
X101630303Y-107354000D01*
X101585958Y-107325500D01*
X101531960Y-107271502D01*
X101531957Y-107271500D01*
X101531955Y-107271498D01*
X101419622Y-107214261D01*
X101419621Y-107214260D01*
X101419618Y-107214259D01*
X101419619Y-107214259D01*
X101326428Y-107199500D01*
X100918778Y-107199500D01*
X100825591Y-107214259D01*
X100825578Y-107214261D01*
X100734544Y-107260645D01*
X100665877Y-107273541D01*
X100601136Y-107247265D01*
X100560879Y-107190158D01*
X100557887Y-107120353D01*
X100566851Y-107095699D01*
X100617781Y-106991520D01*
X100617780Y-106991520D01*
X100617782Y-106991518D01*
X100628700Y-106916582D01*
X100628700Y-106573418D01*
X100617782Y-106498482D01*
X100608130Y-106478739D01*
X100561278Y-106382900D01*
X100561276Y-106382897D01*
X100470302Y-106291923D01*
X100470299Y-106291921D01*
X100354721Y-106235419D01*
X100354719Y-106235418D01*
X100354718Y-106235418D01*
X100279782Y-106224500D01*
X100279777Y-106224500D01*
X100124500Y-106224500D01*
X100057461Y-106204815D01*
X100011706Y-106152011D01*
X100000500Y-106100500D01*
X100000500Y-105307252D01*
X100020185Y-105240213D01*
X100072989Y-105194458D01*
X100142147Y-105184514D01*
X100180792Y-105196766D01*
X100257825Y-105236017D01*
X100257828Y-105236018D01*
X100292947Y-105241579D01*
X100349265Y-105250500D01*
X100750734Y-105250499D01*
X100750739Y-105250499D01*
X100750739Y-105250498D01*
X100842175Y-105236017D01*
X100885520Y-105213931D01*
X100954185Y-105201035D01*
X100976738Y-105205436D01*
X101028039Y-105220500D01*
X101028040Y-105220500D01*
X101171960Y-105220500D01*
X101171961Y-105220500D01*
X101191529Y-105214753D01*
X101261396Y-105214751D01*
X101282752Y-105223241D01*
X101307825Y-105236017D01*
X101307827Y-105236017D01*
X101307829Y-105236018D01*
X101307828Y-105236018D01*
X101342947Y-105241579D01*
X101399265Y-105250500D01*
X101800734Y-105250499D01*
X101800739Y-105250499D01*
X101800739Y-105250498D01*
X101846454Y-105243258D01*
X101892170Y-105236018D01*
X101892171Y-105236018D01*
X101892172Y-105236017D01*
X101892175Y-105236017D01*
X102002391Y-105179859D01*
X102015819Y-105166431D01*
X102037319Y-105144932D01*
X102098642Y-105111447D01*
X102168334Y-105116431D01*
X102212681Y-105144932D01*
X102247603Y-105179854D01*
X102247605Y-105179855D01*
X102247609Y-105179859D01*
X102357825Y-105236017D01*
X102357826Y-105236017D01*
X102357828Y-105236018D01*
X102392947Y-105241579D01*
X102449265Y-105250500D01*
X102850734Y-105250499D01*
X102850739Y-105250499D01*
X102850739Y-105250498D01*
X102896454Y-105243258D01*
X102942170Y-105236018D01*
X102942171Y-105236017D01*
X102942175Y-105236017D01*
X102994206Y-105209505D01*
X103062873Y-105196609D01*
X103127614Y-105222885D01*
X103167872Y-105279991D01*
X103174500Y-105319990D01*
X103174500Y-106707342D01*
X103174264Y-106712749D01*
X103170735Y-106753072D01*
X103181212Y-106792174D01*
X103182383Y-106797454D01*
X103189411Y-106837307D01*
X103191235Y-106842319D01*
X103198197Y-106859125D01*
X103200445Y-106863945D01*
X103200446Y-106863948D01*
X103213186Y-106882143D01*
X103223655Y-106897095D01*
X103226561Y-106901656D01*
X103246806Y-106936719D01*
X103277815Y-106962739D01*
X103281805Y-106966395D01*
X103933599Y-107618189D01*
X103937254Y-107622178D01*
X103963277Y-107653190D01*
X103963279Y-107653191D01*
X103963281Y-107653194D01*
X103963283Y-107653195D01*
X103963284Y-107653196D01*
X103998335Y-107673433D01*
X104002898Y-107676339D01*
X104036052Y-107699554D01*
X104036055Y-107699554D01*
X104040912Y-107701820D01*
X104057669Y-107708760D01*
X104062686Y-107710586D01*
X104062688Y-107710586D01*
X104062691Y-107710588D01*
X104102554Y-107717616D01*
X104107812Y-107718782D01*
X104146929Y-107729264D01*
X104187254Y-107725735D01*
X104192658Y-107725500D01*
X105258078Y-107725500D01*
X105263481Y-107725735D01*
X105303807Y-107729264D01*
X105342940Y-107718777D01*
X105348162Y-107717619D01*
X105388045Y-107710588D01*
X105388050Y-107710584D01*
X105393099Y-107708747D01*
X105409824Y-107701819D01*
X105414681Y-107699554D01*
X105414684Y-107699554D01*
X105447841Y-107676335D01*
X105452390Y-107673438D01*
X105487455Y-107653194D01*
X105487459Y-107653190D01*
X105513476Y-107622182D01*
X105517122Y-107618202D01*
X106093204Y-107042120D01*
X106097166Y-107038489D01*
X106128194Y-107012455D01*
X106148438Y-106977390D01*
X106151331Y-106972847D01*
X106171675Y-106943795D01*
X106226250Y-106900173D01*
X106292644Y-106892449D01*
X106374997Y-106905492D01*
X106375000Y-106905492D01*
X106375003Y-106905492D01*
X106500300Y-106885647D01*
X106500302Y-106885646D01*
X106500304Y-106885646D01*
X106612938Y-106828255D01*
X106681605Y-106815359D01*
X106746346Y-106841635D01*
X106773544Y-106871696D01*
X106774618Y-106873367D01*
X106774622Y-106873372D01*
X106774623Y-106873373D01*
X106868872Y-106982143D01*
X106989947Y-107059953D01*
X106989950Y-107059954D01*
X106989949Y-107059954D01*
X107128036Y-107100499D01*
X107128038Y-107100500D01*
X107128039Y-107100500D01*
X107271962Y-107100500D01*
X107271962Y-107100499D01*
X107410053Y-107059953D01*
X107531128Y-106982143D01*
X107625377Y-106873373D01*
X107685165Y-106742457D01*
X107705647Y-106600000D01*
X107701761Y-106572972D01*
X107700499Y-106555325D01*
X107700499Y-106534076D01*
X107700500Y-106534051D01*
X107700500Y-106482708D01*
X107720185Y-106415669D01*
X107772989Y-106369914D01*
X107794157Y-106363534D01*
X107794151Y-106363516D01*
X107803433Y-106360500D01*
X107824501Y-106353654D01*
X107843417Y-106349112D01*
X107865304Y-106345646D01*
X107885044Y-106335586D01*
X107903011Y-106328144D01*
X107924090Y-106321296D01*
X107942026Y-106308263D01*
X107958588Y-106298114D01*
X107978342Y-106288050D01*
X107993834Y-106272557D01*
X107993841Y-106272552D01*
X108045320Y-106221073D01*
X108225483Y-106040909D01*
X108248050Y-106018342D01*
X108258109Y-105998597D01*
X108268271Y-105982014D01*
X108281296Y-105964090D01*
X108288141Y-105943022D01*
X108295586Y-105925045D01*
X108305646Y-105905304D01*
X108309112Y-105883415D01*
X108313652Y-105864501D01*
X108320499Y-105843433D01*
X108320499Y-105814076D01*
X108320500Y-105814051D01*
X108320500Y-101786159D01*
X108320499Y-101786129D01*
X108320499Y-101756568D01*
X108320499Y-101756567D01*
X108313653Y-101735501D01*
X108309111Y-101716580D01*
X108307181Y-101704392D01*
X108305646Y-101694696D01*
X108299133Y-101681914D01*
X108295586Y-101674952D01*
X108288140Y-101656974D01*
X108281297Y-101635913D01*
X108281296Y-101635912D01*
X108281296Y-101635910D01*
X108268269Y-101617981D01*
X108258104Y-101601392D01*
X108248050Y-101581658D01*
X108158342Y-101491950D01*
X107324629Y-100658236D01*
X107291144Y-100596913D01*
X107289572Y-100588198D01*
X107288395Y-100580009D01*
X107285165Y-100557543D01*
X107282915Y-100552617D01*
X107225377Y-100426628D01*
X107225377Y-100426627D01*
X107225374Y-100426624D01*
X107220582Y-100419166D01*
X107223621Y-100417212D01*
X107201749Y-100369224D01*
X107200500Y-100351667D01*
X107200500Y-96248332D01*
X107220185Y-96181293D01*
X107220901Y-96180336D01*
X107225368Y-96173382D01*
X107225377Y-96173373D01*
X107285165Y-96042457D01*
X107305647Y-95900000D01*
X107285165Y-95757543D01*
X107225377Y-95626627D01*
X107131128Y-95517857D01*
X107010053Y-95440047D01*
X107010051Y-95440046D01*
X107010049Y-95440045D01*
X107010050Y-95440045D01*
X106871963Y-95399500D01*
X106871961Y-95399500D01*
X106728039Y-95399500D01*
X106728036Y-95399500D01*
X106589949Y-95440045D01*
X106581882Y-95443730D01*
X106581128Y-95442081D01*
X106524498Y-95458708D01*
X106457459Y-95439022D01*
X106411705Y-95386218D01*
X106400500Y-95334708D01*
X106400500Y-95166159D01*
X106400499Y-95166129D01*
X106400499Y-95136568D01*
X106400499Y-95136567D01*
X106393653Y-95115501D01*
X106389111Y-95096580D01*
X106388840Y-95094868D01*
X106385646Y-95074696D01*
X106375586Y-95054952D01*
X106368140Y-95036974D01*
X106361297Y-95015913D01*
X106361296Y-95015912D01*
X106361296Y-95015910D01*
X106348269Y-94997981D01*
X106338104Y-94981392D01*
X106328050Y-94961658D01*
X104270915Y-92904523D01*
X104237430Y-92843200D01*
X104236979Y-92792650D01*
X104250500Y-92724676D01*
X104250500Y-91675323D01*
X104250499Y-91675321D01*
X104235967Y-91602264D01*
X104235966Y-91602260D01*
X104196397Y-91543040D01*
X104175520Y-91476362D01*
X104175500Y-91474150D01*
X104175500Y-86925849D01*
X104195185Y-86858810D01*
X104196398Y-86856959D01*
X104235964Y-86797743D01*
X104235964Y-86797742D01*
X104235966Y-86797740D01*
X104250500Y-86724674D01*
X104250500Y-85675326D01*
X104250500Y-85675323D01*
X104250499Y-85675321D01*
X104235967Y-85602264D01*
X104235966Y-85602260D01*
X104180601Y-85519399D01*
X104097740Y-85464034D01*
X104097739Y-85464033D01*
X104097735Y-85464032D01*
X104024677Y-85449500D01*
X104024674Y-85449500D01*
X103225326Y-85449500D01*
X103225323Y-85449500D01*
X103152264Y-85464032D01*
X103152260Y-85464033D01*
X103069399Y-85519399D01*
X103014033Y-85602260D01*
X103014032Y-85602264D01*
X102999500Y-85675321D01*
X102999500Y-86724678D01*
X103014032Y-86797735D01*
X103014035Y-86797743D01*
X103053602Y-86856959D01*
X103074480Y-86923636D01*
X103074500Y-86925849D01*
X103074500Y-91474150D01*
X103054815Y-91541189D01*
X103053603Y-91543040D01*
X103014033Y-91602260D01*
X103014032Y-91602264D01*
X102999500Y-91675321D01*
X102999500Y-92724678D01*
X103014032Y-92797735D01*
X103014033Y-92797739D01*
X103014034Y-92797740D01*
X103069399Y-92880601D01*
X103152260Y-92935966D01*
X103152263Y-92935967D01*
X103175824Y-92940654D01*
X103237735Y-92973039D01*
X103262115Y-93005972D01*
X103263703Y-93009089D01*
X103276726Y-93027014D01*
X103286890Y-93043600D01*
X103296950Y-93063342D01*
X103317864Y-93084256D01*
X103317893Y-93084287D01*
X105512025Y-95278417D01*
X105545510Y-95339740D01*
X105540526Y-95409432D01*
X105498654Y-95465365D01*
X105433190Y-95489782D01*
X105364917Y-95474930D01*
X105357305Y-95470414D01*
X105310053Y-95440047D01*
X105310051Y-95440046D01*
X105310049Y-95440045D01*
X105310050Y-95440045D01*
X105171963Y-95399500D01*
X105171961Y-95399500D01*
X105028039Y-95399500D01*
X105028036Y-95399500D01*
X104889949Y-95440045D01*
X104768873Y-95517856D01*
X104768872Y-95517856D01*
X104768872Y-95517857D01*
X104756290Y-95532377D01*
X104674623Y-95626626D01*
X104674622Y-95626628D01*
X104614834Y-95757543D01*
X104594353Y-95900000D01*
X104614834Y-96042456D01*
X104618319Y-96050086D01*
X104629235Y-96073989D01*
X104639179Y-96143145D01*
X104610155Y-96206701D01*
X104551378Y-96244477D01*
X104516441Y-96249500D01*
X104449499Y-96249500D01*
X104382460Y-96229815D01*
X104336705Y-96177011D01*
X104325499Y-96125500D01*
X104325499Y-96105142D01*
X104325498Y-96105135D01*
X104322585Y-96080009D01*
X104315681Y-96064374D01*
X104309373Y-96050086D01*
X104300301Y-95980808D01*
X104309374Y-95949912D01*
X104322584Y-95919995D01*
X104322584Y-95919994D01*
X104322584Y-95919993D01*
X104322585Y-95919991D01*
X104325500Y-95894865D01*
X104325499Y-95705136D01*
X104322585Y-95680009D01*
X104315681Y-95664374D01*
X104309373Y-95650086D01*
X104300301Y-95580808D01*
X104309374Y-95549912D01*
X104322584Y-95519995D01*
X104322584Y-95519994D01*
X104322584Y-95519993D01*
X104322585Y-95519991D01*
X104325500Y-95494865D01*
X104325499Y-95305136D01*
X104322585Y-95280009D01*
X104315681Y-95264374D01*
X104309373Y-95250086D01*
X104300301Y-95180808D01*
X104309374Y-95149912D01*
X104322584Y-95119995D01*
X104322584Y-95119994D01*
X104322584Y-95119993D01*
X104322585Y-95119991D01*
X104325500Y-95094865D01*
X104325499Y-94905136D01*
X104322585Y-94880009D01*
X104277206Y-94777235D01*
X104197765Y-94697794D01*
X104151235Y-94677249D01*
X104094992Y-94652415D01*
X104069868Y-94649500D01*
X103274499Y-94649500D01*
X103207460Y-94629815D01*
X103161705Y-94577011D01*
X103150499Y-94525504D01*
X103150499Y-93730136D01*
X103150497Y-93730117D01*
X103147586Y-93705012D01*
X103147585Y-93705010D01*
X103147585Y-93705009D01*
X103102206Y-93602235D01*
X103022765Y-93522794D01*
X103022763Y-93522793D01*
X102919992Y-93477415D01*
X102894865Y-93474500D01*
X102705142Y-93474500D01*
X102705118Y-93474502D01*
X102680014Y-93477413D01*
X102680010Y-93477414D01*
X102650083Y-93490628D01*
X102580804Y-93499697D01*
X102549915Y-93490627D01*
X102519992Y-93477415D01*
X102494865Y-93474500D01*
X102305142Y-93474500D01*
X102305118Y-93474502D01*
X102280014Y-93477413D01*
X102280010Y-93477414D01*
X102250083Y-93490628D01*
X102180804Y-93499697D01*
X102149915Y-93490627D01*
X102119992Y-93477415D01*
X102094865Y-93474500D01*
X101905142Y-93474500D01*
X101905118Y-93474502D01*
X101880014Y-93477413D01*
X101880010Y-93477414D01*
X101850083Y-93490628D01*
X101780804Y-93499697D01*
X101749915Y-93490627D01*
X101719992Y-93477415D01*
X101694865Y-93474500D01*
X101505142Y-93474500D01*
X101505118Y-93474502D01*
X101480011Y-93477414D01*
X101480008Y-93477415D01*
X101377235Y-93522793D01*
X101377234Y-93522794D01*
X101362181Y-93537848D01*
X101300858Y-93571333D01*
X101231166Y-93566349D01*
X101175233Y-93524477D01*
X101150816Y-93459013D01*
X101150500Y-93450167D01*
X101150500Y-92749211D01*
X101153139Y-92723764D01*
X101155043Y-92714685D01*
X101153038Y-92698603D01*
X101150977Y-92682061D01*
X101150500Y-92674385D01*
X101150500Y-92670962D01*
X101150499Y-92670951D01*
X101146911Y-92649459D01*
X101142981Y-92617931D01*
X101140573Y-92598608D01*
X101140569Y-92598601D01*
X101138486Y-92591603D01*
X101138476Y-92591572D01*
X101138466Y-92591540D01*
X101136092Y-92584624D01*
X101136092Y-92584619D01*
X101132481Y-92577946D01*
X101111699Y-92539545D01*
X101100699Y-92517044D01*
X101089198Y-92493517D01*
X101089197Y-92493516D01*
X101084928Y-92487538D01*
X101080420Y-92481747D01*
X101080418Y-92481742D01*
X101056394Y-92459626D01*
X101042712Y-92447030D01*
X99886819Y-91291137D01*
X99853334Y-91229814D01*
X99850500Y-91203456D01*
X99850500Y-90154500D01*
X99870185Y-90087461D01*
X99922989Y-90041706D01*
X99974500Y-90030500D01*
X100954676Y-90030500D01*
X100954677Y-90030499D01*
X101027740Y-90015966D01*
X101051610Y-90000016D01*
X101118286Y-89979139D01*
X101185666Y-89997623D01*
X101232357Y-90049602D01*
X101244500Y-90103118D01*
X101244500Y-90265739D01*
X101258981Y-90357170D01*
X101258981Y-90357171D01*
X101258982Y-90357174D01*
X101258983Y-90357175D01*
X101312488Y-90462185D01*
X101315142Y-90467392D01*
X101315145Y-90467396D01*
X101402603Y-90554854D01*
X101402605Y-90554855D01*
X101402609Y-90554859D01*
X101512825Y-90611017D01*
X101512826Y-90611017D01*
X101512828Y-90611018D01*
X101547947Y-90616579D01*
X101604265Y-90625500D01*
X102005734Y-90625499D01*
X102005739Y-90625499D01*
X102005739Y-90625498D01*
X102051454Y-90618258D01*
X102097170Y-90611018D01*
X102097171Y-90611018D01*
X102097172Y-90611017D01*
X102097175Y-90611017D01*
X102207391Y-90554859D01*
X102294859Y-90467391D01*
X102351017Y-90357175D01*
X102351017Y-90357173D01*
X102351018Y-90357172D01*
X102351018Y-90357171D01*
X102357456Y-90316521D01*
X102365500Y-90265735D01*
X102365499Y-89924266D01*
X102365499Y-89924260D01*
X102351018Y-89832829D01*
X102351018Y-89832828D01*
X102351017Y-89832826D01*
X102351017Y-89832825D01*
X102294859Y-89722609D01*
X102294857Y-89722607D01*
X102294854Y-89722603D01*
X102207396Y-89635145D01*
X102207393Y-89635143D01*
X102207391Y-89635141D01*
X102097175Y-89578983D01*
X102097174Y-89578982D01*
X102097171Y-89578981D01*
X102005735Y-89564500D01*
X101821544Y-89564500D01*
X101754505Y-89544815D01*
X101733863Y-89528181D01*
X101272637Y-89066955D01*
X101256511Y-89047098D01*
X101251437Y-89039331D01*
X101225487Y-89019133D01*
X101219741Y-89014059D01*
X101217307Y-89011625D01*
X101217306Y-89011624D01*
X101216819Y-89011137D01*
X101183334Y-88949814D01*
X101180500Y-88923456D01*
X101180500Y-88755323D01*
X101180499Y-88755321D01*
X101165967Y-88682264D01*
X101165966Y-88682260D01*
X101110601Y-88599399D01*
X101027740Y-88544034D01*
X101027739Y-88544033D01*
X101027735Y-88544032D01*
X100954677Y-88529500D01*
X100954674Y-88529500D01*
X99755326Y-88529500D01*
X99755323Y-88529500D01*
X99682264Y-88544032D01*
X99682260Y-88544033D01*
X99599399Y-88599399D01*
X99544033Y-88682260D01*
X99544032Y-88682264D01*
X99529500Y-88755321D01*
X99529500Y-89273455D01*
X99509815Y-89340494D01*
X99493181Y-89361136D01*
X99286955Y-89567361D01*
X99267106Y-89583482D01*
X99259331Y-89588562D01*
X99239143Y-89614498D01*
X99234067Y-89620248D01*
X99231634Y-89622681D01*
X99231623Y-89622694D01*
X99218954Y-89640438D01*
X99187483Y-89680872D01*
X99183975Y-89687353D01*
X99180760Y-89693932D01*
X99166138Y-89743045D01*
X99149498Y-89791516D01*
X99148294Y-89798733D01*
X99146112Y-89816243D01*
X99143281Y-89815890D01*
X99130249Y-89868173D01*
X99079380Y-89916070D01*
X99023254Y-89929500D01*
X98005323Y-89929500D01*
X97932264Y-89944032D01*
X97920979Y-89948707D01*
X97920078Y-89946534D01*
X97869275Y-89962437D01*
X97801897Y-89943947D01*
X97755211Y-89891964D01*
X97744369Y-89856339D01*
X97739582Y-89823482D01*
X97739581Y-89823480D01*
X97739581Y-89823478D01*
X97683078Y-89707900D01*
X97683076Y-89707897D01*
X97651395Y-89676216D01*
X97617910Y-89614893D01*
X97622894Y-89545201D01*
X97651394Y-89500855D01*
X97669859Y-89482391D01*
X97726017Y-89372175D01*
X97726017Y-89372173D01*
X97726018Y-89372172D01*
X97726018Y-89372171D01*
X97731035Y-89340494D01*
X97740500Y-89280735D01*
X97740499Y-88939266D01*
X97740499Y-88939264D01*
X97740499Y-88939260D01*
X97726018Y-88847829D01*
X97726018Y-88847828D01*
X97726017Y-88847826D01*
X97726017Y-88847825D01*
X97669859Y-88737609D01*
X97669857Y-88737607D01*
X97669854Y-88737603D01*
X97582396Y-88650145D01*
X97582393Y-88650143D01*
X97582391Y-88650141D01*
X97472175Y-88593983D01*
X97472174Y-88593982D01*
X97472171Y-88593981D01*
X97380735Y-88579500D01*
X96979260Y-88579500D01*
X96979260Y-88579501D01*
X96887829Y-88593981D01*
X96887828Y-88593981D01*
X96777607Y-88650142D01*
X96777603Y-88650145D01*
X96690145Y-88737603D01*
X96690143Y-88737607D01*
X96690141Y-88737609D01*
X96681115Y-88755323D01*
X96633981Y-88847827D01*
X96633981Y-88847828D01*
X96619500Y-88939264D01*
X96619500Y-89280739D01*
X96633981Y-89372170D01*
X96633981Y-89372171D01*
X96690142Y-89482392D01*
X96690145Y-89482396D01*
X96708604Y-89500855D01*
X96742089Y-89562178D01*
X96737105Y-89631870D01*
X96708604Y-89676217D01*
X96676923Y-89707897D01*
X96676921Y-89707900D01*
X96620419Y-89823478D01*
X96620418Y-89823480D01*
X96620418Y-89823482D01*
X96609500Y-89898418D01*
X96609500Y-90241582D01*
X96620418Y-90316518D01*
X96620418Y-90316519D01*
X96620419Y-90316521D01*
X96677640Y-90433569D01*
X96689400Y-90502442D01*
X96662056Y-90566739D01*
X96604292Y-90606046D01*
X96534447Y-90607884D01*
X96509947Y-90598515D01*
X96442175Y-90563983D01*
X96442174Y-90563982D01*
X96442171Y-90563981D01*
X96350735Y-90549500D01*
X95949260Y-90549500D01*
X95949260Y-90549501D01*
X95857829Y-90563981D01*
X95857828Y-90563981D01*
X95747607Y-90620142D01*
X95747603Y-90620145D01*
X95725181Y-90642568D01*
X95663858Y-90676053D01*
X95594166Y-90671069D01*
X95549819Y-90642568D01*
X95502396Y-90595145D01*
X95502393Y-90595143D01*
X95502391Y-90595141D01*
X95392175Y-90538983D01*
X95392174Y-90538982D01*
X95392171Y-90538981D01*
X95300735Y-90524500D01*
X94899260Y-90524500D01*
X94899260Y-90524501D01*
X94807826Y-90538982D01*
X94807822Y-90538983D01*
X94746200Y-90570381D01*
X94677530Y-90583277D01*
X94654972Y-90578873D01*
X94571964Y-90554500D01*
X94571961Y-90554500D01*
X94428039Y-90554500D01*
X94327870Y-90583911D01*
X94258001Y-90583910D01*
X94199223Y-90546135D01*
X94170199Y-90482579D01*
X94176755Y-90421600D01*
X94219491Y-90307022D01*
X94223146Y-90273023D01*
X94225499Y-90251144D01*
X94225500Y-90251129D01*
X94225500Y-89723870D01*
X94225499Y-89723855D01*
X94222645Y-89697318D01*
X94219491Y-89667978D01*
X94207244Y-89635142D01*
X94172337Y-89541552D01*
X94172335Y-89541549D01*
X94141868Y-89500850D01*
X94091472Y-89433528D01*
X93983450Y-89352664D01*
X93983447Y-89352662D01*
X93857024Y-89305509D01*
X93801144Y-89299500D01*
X93801130Y-89299500D01*
X93198870Y-89299500D01*
X93198855Y-89299500D01*
X93142975Y-89305509D01*
X93016552Y-89352662D01*
X93016549Y-89352664D01*
X92908528Y-89433528D01*
X92827664Y-89541549D01*
X92827662Y-89541552D01*
X92780509Y-89667975D01*
X92774500Y-89723855D01*
X92774500Y-90251144D01*
X92780509Y-90307024D01*
X92827662Y-90433447D01*
X92827664Y-90433450D01*
X92908528Y-90541472D01*
X93016549Y-90622335D01*
X93016552Y-90622337D01*
X93055662Y-90636924D01*
X93142978Y-90669491D01*
X93172318Y-90672645D01*
X93198855Y-90675499D01*
X93198870Y-90675500D01*
X93335500Y-90675500D01*
X93402539Y-90695185D01*
X93448294Y-90747989D01*
X93459500Y-90799500D01*
X93459500Y-91233959D01*
X93439815Y-91300998D01*
X93423181Y-91321640D01*
X93387681Y-91357140D01*
X93326358Y-91390625D01*
X93256666Y-91385641D01*
X93212319Y-91357140D01*
X93152102Y-91296923D01*
X93152099Y-91296921D01*
X93036521Y-91240419D01*
X93036519Y-91240418D01*
X93036518Y-91240418D01*
X92961582Y-91229500D01*
X92618418Y-91229500D01*
X92543482Y-91240418D01*
X92543480Y-91240418D01*
X92543478Y-91240419D01*
X92427900Y-91296921D01*
X92427897Y-91296923D01*
X92336923Y-91387897D01*
X92336921Y-91387900D01*
X92280419Y-91503478D01*
X92280418Y-91503480D01*
X92280418Y-91503482D01*
X92269500Y-91578418D01*
X92269500Y-92021582D01*
X92277688Y-92077784D01*
X92280418Y-92096520D01*
X92310490Y-92158034D01*
X92322248Y-92226907D01*
X92316166Y-92248692D01*
X92317333Y-92249035D01*
X92314835Y-92257542D01*
X92294353Y-92400000D01*
X92314834Y-92542456D01*
X92363701Y-92649457D01*
X92374623Y-92673373D01*
X92468872Y-92782143D01*
X92589947Y-92859953D01*
X92589950Y-92859954D01*
X92589949Y-92859954D01*
X92728036Y-92900499D01*
X92728038Y-92900500D01*
X92728039Y-92900500D01*
X92871962Y-92900500D01*
X92871962Y-92900499D01*
X93010053Y-92859953D01*
X93131128Y-92782143D01*
X93225377Y-92673373D01*
X93285165Y-92542457D01*
X93303778Y-92412998D01*
X93332801Y-92349445D01*
X93391579Y-92311670D01*
X93461449Y-92311670D01*
X93480976Y-92319247D01*
X93563479Y-92359581D01*
X93563480Y-92359581D01*
X93563482Y-92359582D01*
X93638418Y-92370500D01*
X93638423Y-92370500D01*
X93981577Y-92370500D01*
X93981582Y-92370500D01*
X94056518Y-92359582D01*
X94056519Y-92359581D01*
X94066048Y-92358193D01*
X94066364Y-92360362D01*
X94123253Y-92359554D01*
X94182562Y-92396489D01*
X94212488Y-92459626D01*
X94214013Y-92479016D01*
X94214013Y-92577942D01*
X94214014Y-92577952D01*
X94220859Y-92599020D01*
X94225400Y-92617931D01*
X94228867Y-92639817D01*
X94228868Y-92639820D01*
X94238925Y-92659558D01*
X94246370Y-92677531D01*
X94253217Y-92698603D01*
X94266239Y-92716527D01*
X94276403Y-92733113D01*
X94283103Y-92746261D01*
X94286463Y-92752855D01*
X94307377Y-92773769D01*
X94307406Y-92773800D01*
X94563181Y-93029574D01*
X94596666Y-93090897D01*
X94599500Y-93117255D01*
X94599500Y-96109784D01*
X94579815Y-96176823D01*
X94531798Y-96220267D01*
X94502608Y-96235140D01*
X94502608Y-96235141D01*
X94415145Y-96322603D01*
X94415142Y-96322608D01*
X94415141Y-96322609D01*
X94401228Y-96349915D01*
X94358981Y-96432827D01*
X94358981Y-96432828D01*
X94344500Y-96524264D01*
X94344500Y-96925739D01*
X94345351Y-96931108D01*
X94336393Y-97000401D01*
X94291394Y-97053851D01*
X94224642Y-97074487D01*
X94222877Y-97074500D01*
X92311567Y-97074500D01*
X92290491Y-97081347D01*
X92271582Y-97085887D01*
X92249695Y-97089354D01*
X92229952Y-97099413D01*
X92211988Y-97106854D01*
X92190910Y-97113703D01*
X92190905Y-97113706D01*
X92172977Y-97126731D01*
X92156397Y-97136891D01*
X92136660Y-97146948D01*
X92136659Y-97146949D01*
X92114094Y-97169513D01*
X91769513Y-97514094D01*
X91746949Y-97536659D01*
X91746948Y-97536660D01*
X91736891Y-97556397D01*
X91726731Y-97572977D01*
X91713706Y-97590905D01*
X91713703Y-97590910D01*
X91706854Y-97611988D01*
X91699413Y-97629952D01*
X91689354Y-97649695D01*
X91685887Y-97671582D01*
X91681347Y-97690491D01*
X91674500Y-97711567D01*
X91674500Y-99238429D01*
X91100500Y-99238429D01*
X91100500Y-85234500D01*
X91120185Y-85167461D01*
X91172989Y-85121706D01*
X91224500Y-85110500D01*
X108775500Y-85110500D01*
X108842539Y-85130185D01*
G37*
%TD.AperFunction*%
%TD*%
M02*
