%TF.GenerationSoftware,KiCad,Pcbnew,7.0.9*%
%TF.CreationDate,2023-12-16T11:51:24+08:00*%
%TF.ProjectId,iPico,69506963-6f2e-46b6-9963-61645f706362,rev?*%
%TF.SameCoordinates,Original*%
%TF.FileFunction,Copper,L2,Bot*%
%TF.FilePolarity,Positive*%
%FSLAX46Y46*%
G04 Gerber Fmt 4.6, Leading zero omitted, Abs format (unit mm)*
G04 Created by KiCad (PCBNEW 7.0.9) date 2023-12-16 11:51:24*
%MOMM*%
%LPD*%
G01*
G04 APERTURE LIST*
%TA.AperFunction,ComponentPad*%
%ADD10C,3.000000*%
%TD*%
%TA.AperFunction,ComponentPad*%
%ADD11O,0.940000X1.930000*%
%TD*%
%TA.AperFunction,ViaPad*%
%ADD12C,0.500000*%
%TD*%
%TA.AperFunction,Conductor*%
%ADD13C,0.300000*%
%TD*%
%TA.AperFunction,Conductor*%
%ADD14C,0.200000*%
%TD*%
G04 APERTURE END LIST*
D10*
%TO.P,H3,1,1*%
%TO.N,GND*%
X92800000Y-110300000D03*
%TD*%
%TO.P,H1,1,1*%
%TO.N,GND*%
X100000000Y-86700000D03*
%TD*%
D11*
%TO.P,J1,1,GND1*%
%TO.N,GND*%
X94775000Y-112050000D03*
%TO.P,J1,13,GND4*%
X105225000Y-112050000D03*
%TD*%
D10*
%TO.P,H2,1,1*%
%TO.N,GND*%
X107200000Y-110300000D03*
%TD*%
D12*
%TO.N,/+3.3V*%
X107200000Y-106600000D03*
X105100000Y-100700000D03*
X96096800Y-91896800D03*
X106800000Y-95900000D03*
X95900000Y-104000000D03*
X101100000Y-104720000D03*
X95900000Y-106500000D03*
X94614513Y-91917488D03*
X106800000Y-100700000D03*
X105100000Y-95900000D03*
%TO.N,GND*%
X101500000Y-92900000D03*
X97200000Y-85800000D03*
X93300000Y-98325000D03*
X98800000Y-88100000D03*
X104435523Y-103164477D03*
X102800000Y-106200000D03*
X93000000Y-96500000D03*
X94900000Y-110000000D03*
X108200000Y-98500000D03*
X93700000Y-106400000D03*
X105600000Y-87500000D03*
X108500000Y-107200000D03*
X105525000Y-89200000D03*
X106300000Y-86200000D03*
X101100000Y-96600000D03*
X101200000Y-91055000D03*
X95200000Y-108700000D03*
X94400000Y-105705000D03*
X101600000Y-106300000D03*
X101200000Y-98700000D03*
X99300000Y-98700000D03*
X103000000Y-107125000D03*
X108600000Y-101000000D03*
X104400000Y-108600000D03*
X91600000Y-102900000D03*
X108400000Y-86900000D03*
X101100000Y-105680000D03*
X91600000Y-100400000D03*
X99200000Y-96600000D03*
X91500000Y-106300000D03*
X93700000Y-100125000D03*
X105400000Y-109800000D03*
X93700000Y-104200000D03*
X93820000Y-98900000D03*
X100200000Y-97600000D03*
X105600000Y-90900000D03*
X97400000Y-106700000D03*
X108200000Y-95700000D03*
X103270000Y-108545000D03*
X97600000Y-105705000D03*
X101800000Y-85800000D03*
X97200000Y-87500000D03*
X106800000Y-104800000D03*
X108600000Y-103700000D03*
X106500000Y-92200000D03*
X93000000Y-95200000D03*
X96100000Y-89600000D03*
X93000000Y-93800000D03*
X108400000Y-91500000D03*
X108400000Y-89200000D03*
X95100000Y-89600000D03*
X94800000Y-85800000D03*
X105100000Y-98400000D03*
X92900000Y-85800000D03*
%TO.N,/+1.1V*%
X102800000Y-104300000D03*
X94500000Y-91055000D03*
X98100000Y-104100000D03*
%TO.N,/+5V_VIN*%
X94700000Y-102500000D03*
X92800000Y-102500000D03*
%TO.N,/GPIO25*%
X95600000Y-98200000D03*
X92800000Y-92400000D03*
%TD*%
D13*
%TO.N,/+3.3V*%
X105900000Y-105300000D02*
X107200000Y-106600000D01*
X106800000Y-95900000D02*
X105100000Y-95900000D01*
X101680000Y-105300000D02*
X105900000Y-105300000D01*
X101100000Y-104720000D02*
X101680000Y-105300000D01*
X101100000Y-104720000D02*
X95980000Y-104720000D01*
X94635201Y-91896800D02*
X96096800Y-91896800D01*
X95900000Y-104000000D02*
X95900000Y-104800000D01*
X106800000Y-100700000D02*
X105100000Y-100700000D01*
X95980000Y-104720000D02*
X95900000Y-104800000D01*
X96100000Y-91900000D02*
X96096800Y-91896800D01*
X94614513Y-91917488D02*
X94635201Y-91896800D01*
X95900000Y-104800000D02*
X95900000Y-106500000D01*
%TO.N,/+1.1V*%
X94064513Y-91490487D02*
X94064513Y-92464513D01*
X94500000Y-91055000D02*
X94064513Y-91490487D01*
X98100000Y-96500000D02*
X98100000Y-104100000D01*
X98100000Y-104100000D02*
X102600000Y-104100000D01*
X102600000Y-104100000D02*
X102800000Y-104300000D01*
X94064513Y-92464513D02*
X98100000Y-96500000D01*
%TO.N,/+5V_VIN*%
X94700000Y-102500000D02*
X92800000Y-102500000D01*
D14*
%TO.N,/GPIO25*%
X95575000Y-98175000D02*
X95600000Y-98200000D01*
X95600000Y-95200000D02*
X93700000Y-93300000D01*
X95600000Y-98200000D02*
X95600000Y-95200000D01*
X93700000Y-93300000D02*
X92800000Y-92400000D01*
%TD*%
%TA.AperFunction,Conductor*%
%TO.N,GND*%
G36*
X108842539Y-85130185D02*
G01*
X108888294Y-85182989D01*
X108899500Y-85234500D01*
X108899500Y-114785500D01*
X108879815Y-114852539D01*
X108827011Y-114898294D01*
X108775500Y-114909500D01*
X104524500Y-114909500D01*
X104457461Y-114889815D01*
X104411706Y-114837011D01*
X104400500Y-114785500D01*
X104400500Y-111477347D01*
X104399601Y-111474581D01*
X104387200Y-111450242D01*
X104383783Y-111445539D01*
X104364463Y-111426219D01*
X104362112Y-111424511D01*
X104362112Y-111424510D01*
X104362110Y-111424509D01*
X104359761Y-111422802D01*
X104335416Y-111410397D01*
X104332656Y-111409500D01*
X104332654Y-111409500D01*
X104315917Y-111409500D01*
X95732654Y-111409500D01*
X95667346Y-111409500D01*
X95664591Y-111410395D01*
X95640236Y-111422803D01*
X95635543Y-111426213D01*
X95616213Y-111445543D01*
X95612803Y-111450236D01*
X95600395Y-111474591D01*
X95599500Y-111477346D01*
X95599500Y-114785500D01*
X95579815Y-114852539D01*
X95527011Y-114898294D01*
X95475500Y-114909500D01*
X91224500Y-114909500D01*
X91157461Y-114889815D01*
X91111706Y-114837011D01*
X91100500Y-114785500D01*
X91100500Y-102500000D01*
X92294353Y-102500000D01*
X92314834Y-102642456D01*
X92374622Y-102773371D01*
X92374623Y-102773373D01*
X92468872Y-102882143D01*
X92589947Y-102959953D01*
X92589950Y-102959954D01*
X92589949Y-102959954D01*
X92728036Y-103000499D01*
X92728038Y-103000500D01*
X92728039Y-103000500D01*
X92871962Y-103000500D01*
X92871962Y-103000499D01*
X93010050Y-102959954D01*
X93010051Y-102959954D01*
X93071936Y-102920184D01*
X93138974Y-102900500D01*
X94361026Y-102900500D01*
X94428064Y-102920184D01*
X94489949Y-102959954D01*
X94628036Y-103000499D01*
X94628038Y-103000500D01*
X94628039Y-103000500D01*
X94771962Y-103000500D01*
X94771962Y-103000499D01*
X94910053Y-102959953D01*
X95031128Y-102882143D01*
X95125377Y-102773373D01*
X95185165Y-102642457D01*
X95205647Y-102500000D01*
X95185165Y-102357543D01*
X95125377Y-102226627D01*
X95031128Y-102117857D01*
X94910053Y-102040047D01*
X94910051Y-102040046D01*
X94910049Y-102040045D01*
X94910050Y-102040045D01*
X94771963Y-101999500D01*
X94771961Y-101999500D01*
X94628039Y-101999500D01*
X94628036Y-101999500D01*
X94489950Y-102040045D01*
X94489948Y-102040045D01*
X94428064Y-102079816D01*
X94361026Y-102099500D01*
X93138974Y-102099500D01*
X93071936Y-102079816D01*
X93010050Y-102040045D01*
X92871963Y-101999500D01*
X92871961Y-101999500D01*
X92728039Y-101999500D01*
X92728036Y-101999500D01*
X92589949Y-102040045D01*
X92468873Y-102117856D01*
X92374623Y-102226626D01*
X92374622Y-102226628D01*
X92314834Y-102357543D01*
X92294353Y-102500000D01*
X91100500Y-102500000D01*
X91100500Y-92400000D01*
X92294353Y-92400000D01*
X92314834Y-92542456D01*
X92337327Y-92591707D01*
X92374623Y-92673373D01*
X92468872Y-92782143D01*
X92589947Y-92859953D01*
X92589950Y-92859954D01*
X92589949Y-92859954D01*
X92728036Y-92900499D01*
X92728038Y-92900500D01*
X92728039Y-92900500D01*
X92753456Y-92900500D01*
X92820495Y-92920185D01*
X92841137Y-92936819D01*
X93410802Y-93506484D01*
X95213181Y-95308862D01*
X95246666Y-95370185D01*
X95249500Y-95396543D01*
X95249500Y-97793963D01*
X95229815Y-97861002D01*
X95219214Y-97875164D01*
X95174625Y-97926623D01*
X95174622Y-97926628D01*
X95114834Y-98057543D01*
X95094353Y-98200000D01*
X95114834Y-98342456D01*
X95174622Y-98473371D01*
X95174623Y-98473373D01*
X95268872Y-98582143D01*
X95389947Y-98659953D01*
X95389950Y-98659954D01*
X95389949Y-98659954D01*
X95528036Y-98700499D01*
X95528038Y-98700500D01*
X95528039Y-98700500D01*
X95671962Y-98700500D01*
X95671962Y-98700499D01*
X95810053Y-98659953D01*
X95931128Y-98582143D01*
X96025377Y-98473373D01*
X96085165Y-98342457D01*
X96105647Y-98200000D01*
X96085165Y-98057543D01*
X96025377Y-97926627D01*
X96025374Y-97926623D01*
X95980786Y-97875164D01*
X95951762Y-97811608D01*
X95950500Y-97793963D01*
X95950500Y-95249211D01*
X95953139Y-95223764D01*
X95957151Y-95204630D01*
X95958602Y-95204934D01*
X95977440Y-95149370D01*
X96032087Y-95105833D01*
X96101597Y-95098751D01*
X96163901Y-95130373D01*
X96166582Y-95132975D01*
X97663181Y-96629573D01*
X97696666Y-96690896D01*
X97699500Y-96717254D01*
X97699500Y-103751667D01*
X97679815Y-103818706D01*
X97679094Y-103819669D01*
X97674622Y-103826628D01*
X97614834Y-103957543D01*
X97594353Y-104100000D01*
X97605546Y-104177854D01*
X97595602Y-104247012D01*
X97549847Y-104299816D01*
X97482808Y-104319500D01*
X96497260Y-104319500D01*
X96430221Y-104299815D01*
X96384466Y-104247011D01*
X96374522Y-104177853D01*
X96384464Y-104143991D01*
X96385165Y-104142457D01*
X96405647Y-104000000D01*
X96385165Y-103857543D01*
X96325377Y-103726627D01*
X96231128Y-103617857D01*
X96110053Y-103540047D01*
X96110051Y-103540046D01*
X96110049Y-103540045D01*
X96110050Y-103540045D01*
X95971963Y-103499500D01*
X95971961Y-103499500D01*
X95828039Y-103499500D01*
X95828036Y-103499500D01*
X95689949Y-103540045D01*
X95568873Y-103617856D01*
X95474623Y-103726626D01*
X95474622Y-103726628D01*
X95414834Y-103857543D01*
X95394353Y-104000000D01*
X95414834Y-104142456D01*
X95431000Y-104177853D01*
X95474623Y-104273373D01*
X95474627Y-104273378D01*
X95479418Y-104280833D01*
X95476364Y-104282795D01*
X95498235Y-104330663D01*
X95499500Y-104348332D01*
X95499500Y-106151667D01*
X95479815Y-106218706D01*
X95479094Y-106219669D01*
X95474622Y-106226628D01*
X95414834Y-106357543D01*
X95394353Y-106500000D01*
X95414834Y-106642456D01*
X95460504Y-106742457D01*
X95474623Y-106773373D01*
X95568872Y-106882143D01*
X95689947Y-106959953D01*
X95689950Y-106959954D01*
X95689949Y-106959954D01*
X95828036Y-107000499D01*
X95828038Y-107000500D01*
X95828039Y-107000500D01*
X95971962Y-107000500D01*
X95971962Y-107000499D01*
X96110053Y-106959953D01*
X96231128Y-106882143D01*
X96325377Y-106773373D01*
X96385165Y-106642457D01*
X96405647Y-106500000D01*
X96385165Y-106357543D01*
X96325377Y-106226627D01*
X96325374Y-106226624D01*
X96320582Y-106219166D01*
X96323621Y-106217212D01*
X96301749Y-106169224D01*
X96300500Y-106151667D01*
X96300500Y-105244500D01*
X96320185Y-105177461D01*
X96372989Y-105131706D01*
X96424500Y-105120500D01*
X100761026Y-105120500D01*
X100828064Y-105140184D01*
X100871050Y-105167809D01*
X100886069Y-105177461D01*
X100889949Y-105179954D01*
X101006262Y-105214106D01*
X101059009Y-105245402D01*
X101420986Y-105607380D01*
X101421006Y-105607398D01*
X101441658Y-105628050D01*
X101461398Y-105638108D01*
X101477987Y-105648274D01*
X101495909Y-105661295D01*
X101495910Y-105661295D01*
X101495911Y-105661296D01*
X101516980Y-105668142D01*
X101534949Y-105675584D01*
X101554696Y-105685646D01*
X101576582Y-105689112D01*
X101595497Y-105693653D01*
X101616567Y-105700500D01*
X101648481Y-105700500D01*
X105682745Y-105700500D01*
X105749784Y-105720185D01*
X105770426Y-105736819D01*
X106675369Y-106641762D01*
X106708854Y-106703085D01*
X106710426Y-106711795D01*
X106714835Y-106742457D01*
X106774623Y-106873373D01*
X106868872Y-106982143D01*
X106989947Y-107059953D01*
X106989950Y-107059954D01*
X106989949Y-107059954D01*
X107128036Y-107100499D01*
X107128038Y-107100500D01*
X107128039Y-107100500D01*
X107271962Y-107100500D01*
X107271962Y-107100499D01*
X107410053Y-107059953D01*
X107531128Y-106982143D01*
X107625377Y-106873373D01*
X107685165Y-106742457D01*
X107705647Y-106600000D01*
X107685165Y-106457543D01*
X107625377Y-106326627D01*
X107531128Y-106217857D01*
X107496581Y-106195655D01*
X107410051Y-106140045D01*
X107293736Y-106105893D01*
X107240990Y-106074597D01*
X106159287Y-104992893D01*
X106159256Y-104992864D01*
X106138342Y-104971950D01*
X106138341Y-104971949D01*
X106118600Y-104961890D01*
X106102014Y-104951726D01*
X106084090Y-104938704D01*
X106084091Y-104938704D01*
X106063018Y-104931857D01*
X106045045Y-104924412D01*
X106025307Y-104914355D01*
X106025304Y-104914354D01*
X106003418Y-104910887D01*
X105984507Y-104906346D01*
X105963439Y-104899501D01*
X105963434Y-104899500D01*
X105963433Y-104899500D01*
X105963429Y-104899500D01*
X103212741Y-104899500D01*
X103145702Y-104879815D01*
X103099947Y-104827011D01*
X103090003Y-104757853D01*
X103119028Y-104694297D01*
X103130766Y-104682559D01*
X103131124Y-104682145D01*
X103131128Y-104682143D01*
X103225377Y-104573373D01*
X103285165Y-104442457D01*
X103305647Y-104300000D01*
X103285165Y-104157543D01*
X103225377Y-104026627D01*
X103131128Y-103917857D01*
X103010053Y-103840047D01*
X103010051Y-103840046D01*
X103010049Y-103840045D01*
X103010050Y-103840045D01*
X102893736Y-103805893D01*
X102840989Y-103774597D01*
X102838342Y-103771950D01*
X102838340Y-103771949D01*
X102818600Y-103761890D01*
X102802014Y-103751726D01*
X102784090Y-103738704D01*
X102784091Y-103738704D01*
X102763018Y-103731857D01*
X102745045Y-103724412D01*
X102725307Y-103714355D01*
X102725304Y-103714354D01*
X102703418Y-103710887D01*
X102684507Y-103706346D01*
X102663439Y-103699501D01*
X102663434Y-103699500D01*
X102663433Y-103699500D01*
X102663429Y-103699500D01*
X98624500Y-103699500D01*
X98557461Y-103679815D01*
X98511706Y-103627011D01*
X98500500Y-103575500D01*
X98500500Y-100700000D01*
X104594353Y-100700000D01*
X104614834Y-100842456D01*
X104674622Y-100973371D01*
X104674623Y-100973373D01*
X104768872Y-101082143D01*
X104889947Y-101159953D01*
X104889950Y-101159954D01*
X104889949Y-101159954D01*
X105028036Y-101200499D01*
X105028038Y-101200500D01*
X105028039Y-101200500D01*
X105171962Y-101200500D01*
X105171962Y-101200499D01*
X105310050Y-101159954D01*
X105310051Y-101159954D01*
X105371936Y-101120184D01*
X105438974Y-101100500D01*
X106461026Y-101100500D01*
X106528064Y-101120184D01*
X106589949Y-101159954D01*
X106728036Y-101200499D01*
X106728038Y-101200500D01*
X106728039Y-101200500D01*
X106871962Y-101200500D01*
X106871962Y-101200499D01*
X107010053Y-101159953D01*
X107131128Y-101082143D01*
X107225377Y-100973373D01*
X107285165Y-100842457D01*
X107305647Y-100700000D01*
X107285165Y-100557543D01*
X107225377Y-100426627D01*
X107131128Y-100317857D01*
X107010053Y-100240047D01*
X107010051Y-100240046D01*
X107010049Y-100240045D01*
X107010050Y-100240045D01*
X106871963Y-100199500D01*
X106871961Y-100199500D01*
X106728039Y-100199500D01*
X106728036Y-100199500D01*
X106589950Y-100240045D01*
X106589948Y-100240045D01*
X106528064Y-100279816D01*
X106461026Y-100299500D01*
X105438974Y-100299500D01*
X105371936Y-100279816D01*
X105310050Y-100240045D01*
X105171963Y-100199500D01*
X105171961Y-100199500D01*
X105028039Y-100199500D01*
X105028036Y-100199500D01*
X104889949Y-100240045D01*
X104768873Y-100317856D01*
X104674623Y-100426626D01*
X104674622Y-100426628D01*
X104614834Y-100557543D01*
X104594353Y-100700000D01*
X98500500Y-100700000D01*
X98500500Y-96466159D01*
X98500499Y-96466129D01*
X98500499Y-96436568D01*
X98500499Y-96436567D01*
X98493653Y-96415501D01*
X98489111Y-96396580D01*
X98485646Y-96374696D01*
X98475586Y-96354952D01*
X98468140Y-96336974D01*
X98461297Y-96315913D01*
X98461296Y-96315912D01*
X98461296Y-96315910D01*
X98448269Y-96297981D01*
X98438104Y-96281392D01*
X98428050Y-96261658D01*
X98338342Y-96171950D01*
X98066392Y-95900000D01*
X104594353Y-95900000D01*
X104614834Y-96042456D01*
X104673973Y-96171950D01*
X104674623Y-96173373D01*
X104768872Y-96282143D01*
X104889947Y-96359953D01*
X104889950Y-96359954D01*
X104889949Y-96359954D01*
X105028036Y-96400499D01*
X105028038Y-96400500D01*
X105028039Y-96400500D01*
X105171962Y-96400500D01*
X105171962Y-96400499D01*
X105310050Y-96359954D01*
X105310051Y-96359954D01*
X105317835Y-96354952D01*
X105331360Y-96346260D01*
X105371936Y-96320184D01*
X105438974Y-96300500D01*
X106461026Y-96300500D01*
X106528064Y-96320184D01*
X106568640Y-96346260D01*
X106582165Y-96354952D01*
X106589949Y-96359954D01*
X106728036Y-96400499D01*
X106728038Y-96400500D01*
X106728039Y-96400500D01*
X106871962Y-96400500D01*
X106871962Y-96400499D01*
X107010053Y-96359953D01*
X107131128Y-96282143D01*
X107225377Y-96173373D01*
X107285165Y-96042457D01*
X107305647Y-95900000D01*
X107285165Y-95757543D01*
X107225377Y-95626627D01*
X107131128Y-95517857D01*
X107010053Y-95440047D01*
X107010051Y-95440046D01*
X107010049Y-95440045D01*
X107010050Y-95440045D01*
X106871963Y-95399500D01*
X106871961Y-95399500D01*
X106728039Y-95399500D01*
X106728036Y-95399500D01*
X106589950Y-95440045D01*
X106589948Y-95440045D01*
X106528064Y-95479816D01*
X106461026Y-95499500D01*
X105438974Y-95499500D01*
X105371936Y-95479816D01*
X105310050Y-95440045D01*
X105171963Y-95399500D01*
X105171961Y-95399500D01*
X105028039Y-95399500D01*
X105028036Y-95399500D01*
X104889949Y-95440045D01*
X104768873Y-95517856D01*
X104674623Y-95626626D01*
X104674622Y-95626628D01*
X104614834Y-95757543D01*
X104594353Y-95900000D01*
X98066392Y-95900000D01*
X94755333Y-92588940D01*
X94721848Y-92527617D01*
X94726832Y-92457925D01*
X94768704Y-92401992D01*
X94808079Y-92382281D01*
X94824566Y-92377441D01*
X94918638Y-92316984D01*
X94985677Y-92297300D01*
X95757826Y-92297300D01*
X95824864Y-92316984D01*
X95886749Y-92356754D01*
X96024836Y-92397299D01*
X96024838Y-92397300D01*
X96024839Y-92397300D01*
X96168762Y-92397300D01*
X96168762Y-92397299D01*
X96306853Y-92356753D01*
X96427928Y-92278943D01*
X96522177Y-92170173D01*
X96581965Y-92039257D01*
X96602447Y-91896800D01*
X96581965Y-91754343D01*
X96522177Y-91623427D01*
X96427928Y-91514657D01*
X96306853Y-91436847D01*
X96306851Y-91436846D01*
X96306849Y-91436845D01*
X96306850Y-91436845D01*
X96168763Y-91396300D01*
X96168761Y-91396300D01*
X96024839Y-91396300D01*
X96024836Y-91396300D01*
X95886750Y-91436845D01*
X95886748Y-91436845D01*
X95824864Y-91476616D01*
X95757826Y-91496300D01*
X95041635Y-91496300D01*
X94974596Y-91476615D01*
X94928841Y-91423811D01*
X94918897Y-91354653D01*
X94928841Y-91320788D01*
X94951175Y-91271884D01*
X94985165Y-91197457D01*
X95005647Y-91055000D01*
X94985165Y-90912543D01*
X94925377Y-90781627D01*
X94831128Y-90672857D01*
X94710053Y-90595047D01*
X94710051Y-90595046D01*
X94710049Y-90595045D01*
X94710050Y-90595045D01*
X94571963Y-90554500D01*
X94571961Y-90554500D01*
X94428039Y-90554500D01*
X94428036Y-90554500D01*
X94289949Y-90595045D01*
X94168873Y-90672856D01*
X94074623Y-90781626D01*
X94074622Y-90781628D01*
X94014835Y-90912541D01*
X94014834Y-90912545D01*
X94010426Y-90943204D01*
X93981400Y-91006759D01*
X93975370Y-91013236D01*
X93759029Y-91229578D01*
X93759026Y-91229581D01*
X93736462Y-91252146D01*
X93736461Y-91252147D01*
X93726404Y-91271884D01*
X93716244Y-91288464D01*
X93703219Y-91306392D01*
X93703216Y-91306397D01*
X93696367Y-91327475D01*
X93688926Y-91345439D01*
X93678867Y-91365182D01*
X93675400Y-91387069D01*
X93670860Y-91405978D01*
X93664013Y-91427054D01*
X93664013Y-92468969D01*
X93644328Y-92536008D01*
X93591524Y-92581763D01*
X93522366Y-92591707D01*
X93458810Y-92562682D01*
X93452332Y-92556650D01*
X93336503Y-92440821D01*
X93303018Y-92379498D01*
X93301449Y-92370805D01*
X93285165Y-92257543D01*
X93225377Y-92126627D01*
X93131128Y-92017857D01*
X93010053Y-91940047D01*
X93010051Y-91940046D01*
X93010049Y-91940045D01*
X93010050Y-91940045D01*
X92871963Y-91899500D01*
X92871961Y-91899500D01*
X92728039Y-91899500D01*
X92728036Y-91899500D01*
X92589949Y-91940045D01*
X92468873Y-92017856D01*
X92374623Y-92126626D01*
X92374622Y-92126628D01*
X92314834Y-92257543D01*
X92294353Y-92400000D01*
X91100500Y-92400000D01*
X91100500Y-85234500D01*
X91120185Y-85167461D01*
X91172989Y-85121706D01*
X91224500Y-85110500D01*
X108775500Y-85110500D01*
X108842539Y-85130185D01*
G37*
%TD.AperFunction*%
%TD*%
M02*
