%TF.GenerationSoftware,KiCad,Pcbnew,7.0.9*%
%TF.CreationDate,2023-12-16T11:51:24+08:00*%
%TF.ProjectId,iPico,69506963-6f2e-46b6-9963-61645f706362,rev?*%
%TF.SameCoordinates,Original*%
%TF.FileFunction,Legend,Top*%
%TF.FilePolarity,Positive*%
%FSLAX46Y46*%
G04 Gerber Fmt 4.6, Leading zero omitted, Abs format (unit mm)*
G04 Created by KiCad (PCBNEW 7.0.9) date 2023-12-16 11:51:24*
%MOMM*%
%LPD*%
G01*
G04 APERTURE LIST*
%ADD10C,0.150000*%
%ADD11C,0.100000*%
%ADD12C,0.120000*%
G04 APERTURE END LIST*
D10*
X104438095Y-101654819D02*
X104438095Y-102464342D01*
X104438095Y-102464342D02*
X104485714Y-102559580D01*
X104485714Y-102559580D02*
X104533333Y-102607200D01*
X104533333Y-102607200D02*
X104628571Y-102654819D01*
X104628571Y-102654819D02*
X104819047Y-102654819D01*
X104819047Y-102654819D02*
X104914285Y-102607200D01*
X104914285Y-102607200D02*
X104961904Y-102559580D01*
X104961904Y-102559580D02*
X105009523Y-102464342D01*
X105009523Y-102464342D02*
X105009523Y-101654819D01*
X106009523Y-102654819D02*
X105438095Y-102654819D01*
X105723809Y-102654819D02*
X105723809Y-101654819D01*
X105723809Y-101654819D02*
X105628571Y-101797676D01*
X105628571Y-101797676D02*
X105533333Y-101892914D01*
X105533333Y-101892914D02*
X105438095Y-101940533D01*
X92038095Y-113454819D02*
X92038095Y-112454819D01*
X92038095Y-112931009D02*
X92609523Y-112931009D01*
X92609523Y-113454819D02*
X92609523Y-112454819D01*
X92990476Y-112454819D02*
X93609523Y-112454819D01*
X93609523Y-112454819D02*
X93276190Y-112835771D01*
X93276190Y-112835771D02*
X93419047Y-112835771D01*
X93419047Y-112835771D02*
X93514285Y-112883390D01*
X93514285Y-112883390D02*
X93561904Y-112931009D01*
X93561904Y-112931009D02*
X93609523Y-113026247D01*
X93609523Y-113026247D02*
X93609523Y-113264342D01*
X93609523Y-113264342D02*
X93561904Y-113359580D01*
X93561904Y-113359580D02*
X93514285Y-113407200D01*
X93514285Y-113407200D02*
X93419047Y-113454819D01*
X93419047Y-113454819D02*
X93133333Y-113454819D01*
X93133333Y-113454819D02*
X93038095Y-113407200D01*
X93038095Y-113407200D02*
X92990476Y-113359580D01*
X99438095Y-101874819D02*
X99438095Y-102684342D01*
X99438095Y-102684342D02*
X99485714Y-102779580D01*
X99485714Y-102779580D02*
X99533333Y-102827200D01*
X99533333Y-102827200D02*
X99628571Y-102874819D01*
X99628571Y-102874819D02*
X99819047Y-102874819D01*
X99819047Y-102874819D02*
X99914285Y-102827200D01*
X99914285Y-102827200D02*
X99961904Y-102779580D01*
X99961904Y-102779580D02*
X100009523Y-102684342D01*
X100009523Y-102684342D02*
X100009523Y-101874819D01*
X100914285Y-102208152D02*
X100914285Y-102874819D01*
X100676190Y-101827200D02*
X100438095Y-102541485D01*
X100438095Y-102541485D02*
X101057142Y-102541485D01*
X100461905Y-109254819D02*
X100461905Y-108254819D01*
X100461905Y-108254819D02*
X100700000Y-108254819D01*
X100700000Y-108254819D02*
X100842857Y-108302438D01*
X100842857Y-108302438D02*
X100938095Y-108397676D01*
X100938095Y-108397676D02*
X100985714Y-108492914D01*
X100985714Y-108492914D02*
X101033333Y-108683390D01*
X101033333Y-108683390D02*
X101033333Y-108826247D01*
X101033333Y-108826247D02*
X100985714Y-109016723D01*
X100985714Y-109016723D02*
X100938095Y-109111961D01*
X100938095Y-109111961D02*
X100842857Y-109207200D01*
X100842857Y-109207200D02*
X100700000Y-109254819D01*
X100700000Y-109254819D02*
X100461905Y-109254819D01*
X101414286Y-108350057D02*
X101461905Y-108302438D01*
X101461905Y-108302438D02*
X101557143Y-108254819D01*
X101557143Y-108254819D02*
X101795238Y-108254819D01*
X101795238Y-108254819D02*
X101890476Y-108302438D01*
X101890476Y-108302438D02*
X101938095Y-108350057D01*
X101938095Y-108350057D02*
X101985714Y-108445295D01*
X101985714Y-108445295D02*
X101985714Y-108540533D01*
X101985714Y-108540533D02*
X101938095Y-108683390D01*
X101938095Y-108683390D02*
X101366667Y-109254819D01*
X101366667Y-109254819D02*
X101985714Y-109254819D01*
X96738095Y-87054819D02*
X96738095Y-86054819D01*
X96738095Y-86531009D02*
X97309523Y-86531009D01*
X97309523Y-87054819D02*
X97309523Y-86054819D01*
X98309523Y-87054819D02*
X97738095Y-87054819D01*
X98023809Y-87054819D02*
X98023809Y-86054819D01*
X98023809Y-86054819D02*
X97928571Y-86197676D01*
X97928571Y-86197676D02*
X97833333Y-86292914D01*
X97833333Y-86292914D02*
X97738095Y-86340533D01*
X105166667Y-94307200D02*
X105309524Y-94354819D01*
X105309524Y-94354819D02*
X105547619Y-94354819D01*
X105547619Y-94354819D02*
X105642857Y-94307200D01*
X105642857Y-94307200D02*
X105690476Y-94259580D01*
X105690476Y-94259580D02*
X105738095Y-94164342D01*
X105738095Y-94164342D02*
X105738095Y-94069104D01*
X105738095Y-94069104D02*
X105690476Y-93973866D01*
X105690476Y-93973866D02*
X105642857Y-93926247D01*
X105642857Y-93926247D02*
X105547619Y-93878628D01*
X105547619Y-93878628D02*
X105357143Y-93831009D01*
X105357143Y-93831009D02*
X105261905Y-93783390D01*
X105261905Y-93783390D02*
X105214286Y-93735771D01*
X105214286Y-93735771D02*
X105166667Y-93640533D01*
X105166667Y-93640533D02*
X105166667Y-93545295D01*
X105166667Y-93545295D02*
X105214286Y-93450057D01*
X105214286Y-93450057D02*
X105261905Y-93402438D01*
X105261905Y-93402438D02*
X105357143Y-93354819D01*
X105357143Y-93354819D02*
X105595238Y-93354819D01*
X105595238Y-93354819D02*
X105738095Y-93402438D01*
X106071429Y-93354819D02*
X106309524Y-94354819D01*
X106309524Y-94354819D02*
X106500000Y-93640533D01*
X106500000Y-93640533D02*
X106690476Y-94354819D01*
X106690476Y-94354819D02*
X106928572Y-93354819D01*
X107833333Y-94354819D02*
X107261905Y-94354819D01*
X107547619Y-94354819D02*
X107547619Y-93354819D01*
X107547619Y-93354819D02*
X107452381Y-93497676D01*
X107452381Y-93497676D02*
X107357143Y-93592914D01*
X107357143Y-93592914D02*
X107261905Y-93640533D01*
X95666666Y-107531009D02*
X95333333Y-107531009D01*
X95333333Y-108054819D02*
X95333333Y-107054819D01*
X95333333Y-107054819D02*
X95809523Y-107054819D01*
X96714285Y-108054819D02*
X96142857Y-108054819D01*
X96428571Y-108054819D02*
X96428571Y-107054819D01*
X96428571Y-107054819D02*
X96333333Y-107197676D01*
X96333333Y-107197676D02*
X96238095Y-107292914D01*
X96238095Y-107292914D02*
X96142857Y-107340533D01*
X104066666Y-108054819D02*
X104066666Y-108769104D01*
X104066666Y-108769104D02*
X104019047Y-108911961D01*
X104019047Y-108911961D02*
X103923809Y-109007200D01*
X103923809Y-109007200D02*
X103780952Y-109054819D01*
X103780952Y-109054819D02*
X103685714Y-109054819D01*
X105066666Y-109054819D02*
X104495238Y-109054819D01*
X104780952Y-109054819D02*
X104780952Y-108054819D01*
X104780952Y-108054819D02*
X104685714Y-108197676D01*
X104685714Y-108197676D02*
X104590476Y-108292914D01*
X104590476Y-108292914D02*
X104495238Y-108340533D01*
X95738095Y-102454819D02*
X95738095Y-103264342D01*
X95738095Y-103264342D02*
X95785714Y-103359580D01*
X95785714Y-103359580D02*
X95833333Y-103407200D01*
X95833333Y-103407200D02*
X95928571Y-103454819D01*
X95928571Y-103454819D02*
X96119047Y-103454819D01*
X96119047Y-103454819D02*
X96214285Y-103407200D01*
X96214285Y-103407200D02*
X96261904Y-103359580D01*
X96261904Y-103359580D02*
X96309523Y-103264342D01*
X96309523Y-103264342D02*
X96309523Y-102454819D01*
X96738095Y-102550057D02*
X96785714Y-102502438D01*
X96785714Y-102502438D02*
X96880952Y-102454819D01*
X96880952Y-102454819D02*
X97119047Y-102454819D01*
X97119047Y-102454819D02*
X97214285Y-102502438D01*
X97214285Y-102502438D02*
X97261904Y-102550057D01*
X97261904Y-102550057D02*
X97309523Y-102645295D01*
X97309523Y-102645295D02*
X97309523Y-102740533D01*
X97309523Y-102740533D02*
X97261904Y-102883390D01*
X97261904Y-102883390D02*
X96690476Y-103454819D01*
X96690476Y-103454819D02*
X97309523Y-103454819D01*
X106538095Y-113254819D02*
X106538095Y-112254819D01*
X106538095Y-112731009D02*
X107109523Y-112731009D01*
X107109523Y-113254819D02*
X107109523Y-112254819D01*
X107538095Y-112350057D02*
X107585714Y-112302438D01*
X107585714Y-112302438D02*
X107680952Y-112254819D01*
X107680952Y-112254819D02*
X107919047Y-112254819D01*
X107919047Y-112254819D02*
X108014285Y-112302438D01*
X108014285Y-112302438D02*
X108061904Y-112350057D01*
X108061904Y-112350057D02*
X108109523Y-112445295D01*
X108109523Y-112445295D02*
X108109523Y-112540533D01*
X108109523Y-112540533D02*
X108061904Y-112683390D01*
X108061904Y-112683390D02*
X107490476Y-113254819D01*
X107490476Y-113254819D02*
X108109523Y-113254819D01*
X101423809Y-88578628D02*
X101423809Y-89054819D01*
X101090476Y-88054819D02*
X101423809Y-88578628D01*
X101423809Y-88578628D02*
X101757142Y-88054819D01*
X102614285Y-89054819D02*
X102042857Y-89054819D01*
X102328571Y-89054819D02*
X102328571Y-88054819D01*
X102328571Y-88054819D02*
X102233333Y-88197676D01*
X102233333Y-88197676D02*
X102138095Y-88292914D01*
X102138095Y-88292914D02*
X102042857Y-88340533D01*
X97161905Y-109254819D02*
X97161905Y-108254819D01*
X97161905Y-108254819D02*
X97400000Y-108254819D01*
X97400000Y-108254819D02*
X97542857Y-108302438D01*
X97542857Y-108302438D02*
X97638095Y-108397676D01*
X97638095Y-108397676D02*
X97685714Y-108492914D01*
X97685714Y-108492914D02*
X97733333Y-108683390D01*
X97733333Y-108683390D02*
X97733333Y-108826247D01*
X97733333Y-108826247D02*
X97685714Y-109016723D01*
X97685714Y-109016723D02*
X97638095Y-109111961D01*
X97638095Y-109111961D02*
X97542857Y-109207200D01*
X97542857Y-109207200D02*
X97400000Y-109254819D01*
X97400000Y-109254819D02*
X97161905Y-109254819D01*
X98685714Y-109254819D02*
X98114286Y-109254819D01*
X98400000Y-109254819D02*
X98400000Y-108254819D01*
X98400000Y-108254819D02*
X98304762Y-108397676D01*
X98304762Y-108397676D02*
X98209524Y-108492914D01*
X98209524Y-108492914D02*
X98114286Y-108540533D01*
X95654819Y-89238094D02*
X94654819Y-89238094D01*
X94654819Y-89238094D02*
X94654819Y-88999999D01*
X94654819Y-88999999D02*
X94702438Y-88857142D01*
X94702438Y-88857142D02*
X94797676Y-88761904D01*
X94797676Y-88761904D02*
X94892914Y-88714285D01*
X94892914Y-88714285D02*
X95083390Y-88666666D01*
X95083390Y-88666666D02*
X95226247Y-88666666D01*
X95226247Y-88666666D02*
X95416723Y-88714285D01*
X95416723Y-88714285D02*
X95511961Y-88761904D01*
X95511961Y-88761904D02*
X95607200Y-88857142D01*
X95607200Y-88857142D02*
X95654819Y-88999999D01*
X95654819Y-88999999D02*
X95654819Y-89238094D01*
X94654819Y-88333332D02*
X94654819Y-87714285D01*
X94654819Y-87714285D02*
X95035771Y-88047618D01*
X95035771Y-88047618D02*
X95035771Y-87904761D01*
X95035771Y-87904761D02*
X95083390Y-87809523D01*
X95083390Y-87809523D02*
X95131009Y-87761904D01*
X95131009Y-87761904D02*
X95226247Y-87714285D01*
X95226247Y-87714285D02*
X95464342Y-87714285D01*
X95464342Y-87714285D02*
X95559580Y-87761904D01*
X95559580Y-87761904D02*
X95607200Y-87809523D01*
X95607200Y-87809523D02*
X95654819Y-87904761D01*
X95654819Y-87904761D02*
X95654819Y-88190475D01*
X95654819Y-88190475D02*
X95607200Y-88285713D01*
X95607200Y-88285713D02*
X95559580Y-88333332D01*
D11*
%TO.C,U1*%
X106625000Y-103300000D02*
X104625000Y-103300000D01*
X104625000Y-103300000D02*
X104625000Y-106300000D01*
X104625000Y-106300000D02*
X106625000Y-106300000D01*
X106625000Y-106300000D02*
X106625000Y-103300000D01*
X106599264Y-102547868D02*
G75*
G03*
X106599264Y-102547868I-212132J0D01*
G01*
D12*
%TO.C,U4*%
X103810000Y-93990000D02*
X103810000Y-94640000D01*
X103160000Y-101210000D02*
X103810000Y-101210000D01*
X103160000Y-93990000D02*
X103810000Y-93990000D01*
X97240000Y-101210000D02*
X96590000Y-101210000D01*
X97240000Y-93990000D02*
X96590000Y-93990000D01*
X96590000Y-101210000D02*
X96590000Y-100560000D01*
X96590000Y-93990000D02*
X96590000Y-94640000D01*
%TO.C,C16*%
X96820000Y-88737836D02*
X96820000Y-88522164D01*
X97540000Y-88737836D02*
X97540000Y-88522164D01*
%TO.C,C14*%
X94407836Y-98685000D02*
X94192164Y-98685000D01*
X94407836Y-97965000D02*
X94192164Y-97965000D01*
D11*
%TO.C,D2*%
X101172600Y-106170000D02*
G75*
G03*
X101172600Y-106170000I-50000J0D01*
G01*
D12*
%TO.C,C2*%
X93137164Y-105415000D02*
X93352836Y-105415000D01*
X93137164Y-106135000D02*
X93352836Y-106135000D01*
%TO.C,R1*%
X101807000Y-107408641D02*
X101807000Y-107101359D01*
X102567000Y-107408641D02*
X102567000Y-107101359D01*
%TO.C,C1*%
X93137164Y-104340000D02*
X93352836Y-104340000D01*
X93137164Y-105060000D02*
X93352836Y-105060000D01*
%TO.C,C15*%
X95790000Y-90707836D02*
X95790000Y-90492164D01*
X96510000Y-90707836D02*
X96510000Y-90492164D01*
%TO.C,SW1*%
X104500000Y-91950000D02*
X106500000Y-91950000D01*
X103200000Y-90950000D02*
X102750000Y-90500000D01*
X107800000Y-90950000D02*
X108250000Y-90500000D01*
X102750000Y-90500000D02*
X102750000Y-87900000D01*
X108250000Y-90500000D02*
X108250000Y-87900000D01*
X103200000Y-87450000D02*
X102750000Y-87900000D01*
X107800000Y-87450000D02*
X108250000Y-87900000D01*
X104500000Y-86450000D02*
X106500000Y-86450000D01*
%TO.C,R4*%
X96455000Y-105071359D02*
X96455000Y-105378641D01*
X95695000Y-105071359D02*
X95695000Y-105378641D01*
%TO.C,F1*%
X93850279Y-108160000D02*
X93524721Y-108160000D01*
X93850279Y-107140000D02*
X93524721Y-107140000D01*
%TO.C,C13*%
X102165000Y-90467164D02*
X102165000Y-90682836D01*
X101445000Y-90467164D02*
X101445000Y-90682836D01*
%TO.C,C7*%
X95460000Y-90467164D02*
X95460000Y-90682836D01*
X94740000Y-90467164D02*
X94740000Y-90682836D01*
%TO.C,R6*%
X106920000Y-103563641D02*
X106920000Y-103256359D01*
X107680000Y-103563641D02*
X107680000Y-103256359D01*
%TO.C,R5*%
X96800000Y-90733641D02*
X96800000Y-90426359D01*
X97560000Y-90733641D02*
X97560000Y-90426359D01*
D11*
%TO.C,J1*%
X95700000Y-111510000D02*
X95700000Y-115010000D01*
X95700000Y-111510000D02*
X104300000Y-111510000D01*
X95700000Y-115010000D02*
X93500000Y-115010000D01*
X104300000Y-111510000D02*
X104300000Y-115010000D01*
X104300000Y-115010000D02*
X106500000Y-115010000D01*
D12*
%TO.C,U2*%
X92140000Y-102062500D02*
X92140000Y-103862500D01*
X92140000Y-102062500D02*
X92140000Y-101262500D01*
X95260000Y-102062500D02*
X95260000Y-102862500D01*
X95260000Y-102062500D02*
X95260000Y-101262500D01*
%TO.C,C8*%
X104740000Y-97187836D02*
X104740000Y-96972164D01*
X105460000Y-97187836D02*
X105460000Y-96972164D01*
%TO.C,C6*%
X97740000Y-105332836D02*
X97740000Y-105117164D01*
X98460000Y-105332836D02*
X98460000Y-105117164D01*
%TO.C,C10*%
X97460000Y-105117164D02*
X97460000Y-105332836D01*
X96740000Y-105117164D02*
X96740000Y-105332836D01*
%TO.C,R3*%
X98613800Y-107408641D02*
X98613800Y-107101359D01*
X99373800Y-107408641D02*
X99373800Y-107101359D01*
%TO.C,C9*%
X95360000Y-105117164D02*
X95360000Y-105332836D01*
X94640000Y-105117164D02*
X94640000Y-105332836D01*
%TO.C,C3*%
X107660000Y-105372164D02*
X107660000Y-105587836D01*
X106940000Y-105372164D02*
X106940000Y-105587836D01*
%TO.C,C4*%
X94407836Y-99760000D02*
X94192164Y-99760000D01*
X94407836Y-99040000D02*
X94192164Y-99040000D01*
%TO.C,C12*%
X94502836Y-97085000D02*
X94287164Y-97085000D01*
X94502836Y-96365000D02*
X94287164Y-96365000D01*
%TO.C,C11*%
X104740000Y-99812836D02*
X104740000Y-99597164D01*
X105460000Y-99812836D02*
X105460000Y-99597164D01*
%TO.C,Y1*%
X101130000Y-91380000D02*
X101130000Y-88580000D01*
X101130000Y-88580000D02*
X97830000Y-88580000D01*
%TO.C,R2*%
X99678200Y-107408641D02*
X99678200Y-107101359D01*
X100438200Y-107408641D02*
X100438200Y-107101359D01*
%TO.C,C17*%
X103010000Y-105092164D02*
X103010000Y-105307836D01*
X102290000Y-105092164D02*
X102290000Y-105307836D01*
%TO.C,C5*%
X92440000Y-99062836D02*
X92440000Y-98847164D01*
X93160000Y-99062836D02*
X93160000Y-98847164D01*
%TO.C,C18*%
X101960000Y-105092164D02*
X101960000Y-105307836D01*
X101240000Y-105092164D02*
X101240000Y-105307836D01*
D11*
%TO.C,D1*%
X97979400Y-108345000D02*
G75*
G03*
X97979400Y-108345000I-50000J0D01*
G01*
D12*
%TO.C,D3*%
X94235000Y-87715000D02*
X92765000Y-87715000D01*
X92765000Y-87715000D02*
X92765000Y-90000000D01*
X94235000Y-90000000D02*
X94235000Y-87715000D01*
%TO.C,R7*%
X93146359Y-91420000D02*
X93453641Y-91420000D01*
X93146359Y-92180000D02*
X93453641Y-92180000D01*
%TO.C,C19*%
X100190000Y-105307836D02*
X100190000Y-105092164D01*
X100910000Y-105307836D02*
X100910000Y-105092164D01*
%TD*%
M02*
