M48
; DRILL file {KiCad 7.0.9} date Sat Dec 16 11:51:22 2023
; FORMAT={-:-/ absolute / inch / decimal}
; #@! TF.CreationDate,2023-12-16T11:51:22+08:00
; #@! TF.GenerationSoftware,Kicad,Pcbnew,7.0.9
; #@! TF.FileFunction,Plated,1,2,PTH
FMAT,2
INCH
; #@! TA.AperFunction,Plated,PTH,ViaDrill
T1C0.0098
; #@! TA.AperFunction,Plated,PTH,ComponentDrill
T2C0.0213
; #@! TA.AperFunction,Plated,PTH,ComponentDrill
T3C0.0394
%
G90
G05
T1
X3.6024Y-4.185
X3.6063Y-3.9528
X3.6063Y-4.0512
X3.6535Y-3.6378
X3.6535Y-4.0354
X3.6575Y-3.378
X3.6614Y-3.6929
X3.6614Y-3.748
X3.6614Y-3.7992
X3.6732Y-3.8711
X3.689Y-3.9419
X3.689Y-4.1024
X3.689Y-4.189
X3.6937Y-3.8937
X3.7165Y-4.1616
X3.7205Y-3.5848
X3.725Y-3.6188
X3.7283Y-4.0354
X3.7323Y-3.378
X3.7362Y-4.3307
X3.7441Y-3.5276
X3.748Y-4.2795
X3.7638Y-3.8661
X3.7756Y-4.0945
X3.7756Y-4.1929
X3.7833Y-3.618
X3.7835Y-3.5276
X3.8268Y-3.378
X3.8268Y-3.4449
X3.8346Y-4.2008
X3.8425Y-4.1616
X3.8622Y-4.0984
X3.8898Y-3.4685
X3.9055Y-3.8031
X3.9094Y-3.8858
X3.9449Y-3.8425
X3.9803Y-3.8031
X3.9803Y-4.1228
X3.9803Y-4.1606
X3.9843Y-3.5848
X3.9843Y-3.8858
X3.9961Y-3.6575
X4.0Y-4.185
X4.0079Y-3.378
X4.0472Y-4.1063
X4.0472Y-4.1811
X4.0551Y-4.2175
X4.0657Y-4.2734
X4.1102Y-4.2756
X4.1116Y-4.0616
X4.1378Y-3.7756
X4.1378Y-3.874
X4.1378Y-3.9646
X4.1496Y-4.3228
X4.1545Y-3.5118
X4.1575Y-3.4449
X4.1575Y-3.5787
X4.185Y-3.3937
X4.1929Y-3.6299
X4.2047Y-3.7756
X4.2047Y-3.9646
X4.2047Y-4.126
X4.2205Y-4.1969
X4.2598Y-3.7677
X4.2598Y-3.878
X4.2677Y-3.4213
X4.2677Y-3.5118
X4.2677Y-3.6024
X4.2717Y-4.2205
X4.2756Y-3.9764
X4.2756Y-4.0827
T3
X3.6535Y-4.3425
X3.937Y-3.4134
X4.2205Y-4.3425
T2
G00X3.7313Y-4.3919
M15
G01X3.7313Y-4.4309
M16
G05
G00X4.1427Y-4.3919
M15
G01X4.1427Y-4.4309
M16
G05
T0
M30
